<svg xmlns="http://www.w3.org/2000/svg" xmlns:xlink="http://www.w3.org/1999/xlink" viewBox="0 0 449 195"><defs><circle id="a" cx="66.31" cy="97.67" r="41.33"/></defs><clipPath id="b"><use overflow="visible" xlink:href="#a"/></clipPath><g clip-path="url(#b)"><path fill="#DB4437" d="M31.54 56.33v50.73h18.5l16.27-28.18h41.34V56.33z"/><linearGradient id="c" x1="7802.0107" x2="7900.647" y1="-2876.25" y2="-2818.6338" gradientTransform="matrix(.25 0 0 -.25 -1915.5 -631.25)" gradientUnits="userSpaceOnUse"><stop offset="0" stop-color="#a52714" stop-opacity=".6"/><stop offset=".66" stop-color="#a52714" stop-opacity="0"/></linearGradient><path fill="url(#c)" d="M31.54 56.33v50.73h18.5l16.27-28.18h41.34V56.33z"/></g><defs><circle id="d" cx="66.31" cy="97.67" r="41.33"/></defs><clipPath id="e"><use overflow="visible" xlink:href="#d"/></clipPath><path fill="#3E2723" fill-opacity=".15" d="M50.49 106.9L31.78 74.81l-.27.47 18.57 31.85z" clip-path="url(#e)"/><g><defs><circle id="f" cx="66.31" cy="97.67" r="41.33"/></defs><clipPath id="g"><use overflow="visible" xlink:href="#f"/></clipPath><g clip-path="url(#g)"><path fill="#0F9D58" d="M24.98 139h39.35l18.26-18.26v-13.68H50.04L24.98 64.07z"/><linearGradient id="h" x1="7955.2002" x2="7845.604" y1="-3044.3523" y2="-2980.1602" gradientTransform="matrix(.25 0 0 -.25 -1915.5 -631.25)" gradientUnits="userSpaceOnUse"><stop offset="0" stop-color="#055524" stop-opacity=".4"/><stop offset=".33" stop-color="#055524" stop-opacity="0"/></linearGradient><path fill="url(#h)" d="M24.98 139h39.35l18.26-18.26v-13.68H50.04L24.98 64.07z"/></g></g><g><defs><circle id="i" cx="66.31" cy="97.67" r="41.33"/></defs><clipPath id="j"><use overflow="visible" xlink:href="#i"/></clipPath><path fill="#263238" fill-opacity=".15" d="M82.21 107.69l-.39-.23L63.79 139h.54l17.89-31.3z" clip-path="url(#j)"/></g><g><defs><circle id="k" cx="66.31" cy="97.67" r="41.33"/></defs><clipPath id="l"><use overflow="visible" xlink:href="#k"/></clipPath><g clip-path="url(#l)"><defs><path id="m" d="M24.98 139h39.35l18.26-18.26v-13.68H50.04L24.98 64.07z"/></defs><clipPath id="n"><use overflow="visible" xlink:href="#m"/></clipPath><g clip-path="url(#n)"><path fill="#FFCD40" d="M66.31 78.88l16.28 28.18L64.33 139h43.32V78.88z"/><linearGradient id="o" x1="7975.8359" x2="8003.4326" y1="-2828.8748" y2="-2949.7307" gradientTransform="matrix(.25 0 0 -.25 -1915.5 -631.25)" gradientUnits="userSpaceOnUse"><stop offset="0" stop-color="#ea6100" stop-opacity=".3"/><stop offset=".66" stop-color="#ea6100" stop-opacity="0"/></linearGradient><path fill="url(#o)" d="M66.31 78.88l16.28 28.18L64.33 139h43.32V78.88z"/></g><g><defs><circle id="p" cx="66.31" cy="97.67" r="41.33"/></defs><clipPath id="q"><use overflow="visible" xlink:href="#p"/></clipPath><g clip-path="url(#q)"><path fill="#FFCD40" d="M66.31 78.88l16.28 28.18L64.33 139h43.32V78.88z"/><linearGradient id="r" x1="7975.8359" x2="8003.4326" y1="-2828.8748" y2="-2949.7307" gradientTransform="matrix(.25 0 0 -.25 -1915.5 -631.25)" gradientUnits="userSpaceOnUse"><stop offset="0" stop-color="#ea6100" stop-opacity=".3"/><stop offset=".66" stop-color="#ea6100" stop-opacity="0"/></linearGradient><path fill="url(#r)" d="M66.31 78.88l16.28 28.18L64.33 139h43.32V78.88z"/></g></g><g><defs><circle id="s" cx="66.31" cy="97.67" r="41.33"/></defs><clipPath id="t"><use overflow="visible" xlink:href="#s"/></clipPath><g clip-path="url(#t)"><defs><path id="u" d="M66.31 78.88l16.28 28.18L64.33 139h43.32V78.88z"/></defs><clipPath id="v"><use overflow="visible" xlink:href="#u"/></clipPath><g clip-path="url(#v)"><path fill="#DB4437" d="M31.54 56.33v50.73h18.5l16.27-28.18h41.34V56.33z"/><linearGradient id="w" x1="7802.0107" x2="7900.647" y1="-2876.25" y2="-2818.6338" gradientTransform="matrix(.25 0 0 -.25 -1915.5 -631.25)" gradientUnits="userSpaceOnUse"><stop offset="0" stop-color="#a52714" stop-opacity=".6"/><stop offset=".66" stop-color="#a52714" stop-opacity="0"/></linearGradient><path fill="url(#w)" d="M31.54 56.33v50.73h18.5l16.27-28.18h41.34V56.33z"/></g><defs><circle id="x" cx="66.31" cy="97.67" r="41.33"/></defs><clipPath id="y"><use overflow="visible" xlink:href="#x"/></clipPath><radialGradient id="z" cx="8496.0723" cy="-2840.417" r="157.9647" gradientTransform="matrix(.25 0 0 -.25 -2059.5 -631.25)" gradientUnits="userSpaceOnUse"><stop offset="0" stop-color="#3e2723" stop-opacity=".2"/><stop offset="1" stop-color="#3e2723" stop-opacity="0"/></radialGradient><path fill="url(#z)" d="M66.31 78.88v9.84l36.83-9.84z" clip-path="url(#y)"/><g><defs><circle id="A" cx="66.31" cy="97.67" r="41.33"/></defs><clipPath id="B"><use overflow="visible" xlink:href="#A"/></clipPath><g clip-path="url(#B)"><defs><path id="C" d="M31.54 56.33v18.95l18.5 31.78 16.27-28.18h41.34V56.33z"/></defs><clipPath id="D"><use overflow="visible" xlink:href="#C"/></clipPath><g clip-path="url(#D)"><path fill="#0F9D58" d="M24.98 139h39.35l18.26-18.26v-13.68H50.04L24.98 64.07z"/><linearGradient id="E" x1="7955.2002" x2="7845.604" y1="-3044.3523" y2="-2980.1602" gradientTransform="matrix(.25 0 0 -.25 -1915.5 -631.25)" gradientUnits="userSpaceOnUse"><stop offset="0" stop-color="#055524" stop-opacity=".4"/><stop offset=".33" stop-color="#055524" stop-opacity="0"/></linearGradient><path fill="url(#E)" d="M24.98 139h39.35l18.26-18.26v-13.68H50.04L24.98 64.07z"/></g><defs><circle id="F" cx="66.31" cy="97.67" r="41.33"/></defs><clipPath id="G"><use overflow="visible" xlink:href="#F"/></clipPath><radialGradient id="H" cx="8363.9912" cy="-2826.4612" r="146.6276" gradientTransform="matrix(.25 0 0 -.25 -2059.5 -631.25)" gradientUnits="userSpaceOnUse"><stop offset="0" stop-color="#3e2723" stop-opacity=".2"/><stop offset="1" stop-color="#3e2723" stop-opacity="0"/></radialGradient><path fill="url(#H)" d="M31.54 75.33l26.89 26.89-8.39 4.84z" clip-path="url(#G)"/><g><defs><circle id="I" cx="66.31" cy="97.67" r="41.33"/></defs><clipPath id="J"><use overflow="visible" xlink:href="#I"/></clipPath><radialGradient id="K" cx="8502.9639" cy="-2915.9268" r="165.0889" gradientTransform="matrix(.25 0 0 -.25 -2059.5 -631.25)" gradientUnits="userSpaceOnUse"><stop offset="0" stop-color="#263238" stop-opacity=".2"/><stop offset="1" stop-color="#263238" stop-opacity="0"/></radialGradient><path fill="url(#K)" d="M64.36 138.95l9.84-36.73 8.39 4.84z" clip-path="url(#J)"/></g><g><defs><circle id="L" cx="66.31" cy="97.67" r="41.33"/></defs><clipPath id="M"><use overflow="visible" xlink:href="#L"/></clipPath><g clip-path="url(#M)"><circle cx="66.31" cy="97.67" r="18.79" fill="#F1F1F1"/><circle cx="66.31" cy="97.67" r="15.03" fill="#4285F4"/></g></g><g><defs><circle id="N" cx="66.31" cy="97.67" r="41.33"/></defs><clipPath id="O"><use overflow="visible" xlink:href="#N"/></clipPath><g clip-path="url(#O)"><path fill="#3E2723" fill-opacity=".2" d="M66.31 78.41c-10.38 0-18.79 8.41-18.79 18.79v.47c0-10.38 8.41-18.79 18.79-18.79h41.33v-.47H66.31z"/><path fill="#FFF" fill-opacity=".1" d="M82.57 107.06c-3.25 5.61-9.3 9.39-16.25 9.39-6.95 0-13.01-3.79-16.26-9.39h-.02L24.98 64.07v.47l25.06 42.99h.02c3.25 5.61 9.3 9.39 16.26 9.39 6.95 0 13-3.78 16.25-9.39h.02v-.47h-.02z"/><path fill="#3E2723" d="M66.78 78.88c-.08 0-.15.01-.23.01 10.27.13 18.55 8.48 18.55 18.77s-8.29 18.65-18.55 18.77c.08 0 .15.01.23.01 10.38 0 18.79-8.41 18.79-18.79s-8.41-18.77-18.79-18.77z" opacity=".1"/><path fill="#FFF" fill-opacity=".2" d="M82.75 107.69c1.6-2.76 2.52-5.96 2.52-9.38 0-1.98-.31-3.89-.88-5.68.45 1.61.7 3.29.7 5.04 0 3.42-.93 6.61-2.52 9.38l.01.02L64.33 139h.54l17.89-31.3-.01-.01z"/></g></g><g><defs><circle id="P" cx="66.31" cy="97.67" r="41.33"/></defs><clipPath id="Q"><use overflow="visible" xlink:href="#P"/></clipPath><g clip-path="url(#Q)"><path fill="#FFF" fill-opacity=".2" d="M66.31 56.8c22.75 0 41.2 18.38 41.33 41.1v-.23c0-22.83-18.51-41.33-41.33-41.33s-41.33 18.5-41.33 41.33v.23c.13-22.72 18.59-41.1 41.33-41.1z"/><path fill="#3E2723" fill-opacity=".15" d="M66.31 138.53c22.75 0 41.2-18.38 41.33-41.1v.23c0 22.83-18.51 41.33-41.33 41.33s-41.33-18.51-41.33-41.33v-.23c.13 22.72 18.59 41.1 41.33 41.1z"/></g></g></g><radialGradient id="R" cx="7811.3101" cy="-2795.45" r="332.0684" gradientTransform="matrix(.25 0 0 -.25 -1915.5 -631.25)" gradientUnits="userSpaceOnUse"><stop offset="0" stop-color="#fff" stop-opacity=".1"/><stop offset="1" stop-color="#fff" stop-opacity="0"/></radialGradient><circle cx="66.31" cy="97.67" r="41.33" fill="url(#R)" clip-path="url(#B)"/></g><path fill="none" d="M21.22 52.58h90.18v90.18H21.22z"/></g></g></g></g><path fill="#5D5D5D" d="M155.31 16h4v163h-4z"/><g><path fill="#5D5D5D" d="M213.52 60.57c-1.61-.93-2.87-2.22-3.76-3.86-.89-1.64-1.34-3.5-1.34-5.58s.45-3.94 1.34-5.58c.89-1.64 2.15-2.93 3.76-3.86 1.61-.93 3.43-1.4 5.46-1.4 2.24 0 4.15.51 5.72 1.52 1.57 1.01 2.69 2.39 3.36 4.12l-4.04 1.68c-.91-2.16-2.63-3.24-5.16-3.24-1.09 0-2.1.28-3.02.84s-1.65 1.35-2.2 2.38c-.55 1.03-.82 2.21-.82 3.54s.27 2.52.82 3.56c.54 1.04 1.28 1.84 2.2 2.4.92.56 1.93.84 3.02.84 1.28 0 2.38-.29 3.3-.86.92-.57 1.62-1.39 2.1-2.46l3.96 1.72c-.78 1.73-1.95 3.11-3.52 4.12-1.57 1.01-3.48 1.52-5.72 1.52-2.03 0-3.85-.46-5.46-1.4zM231.98 32.69h4.4v7.8l-.2 3.12h.2c.59-.96 1.46-1.75 2.62-2.38 1.16-.63 2.41-.94 3.74-.94 2.48 0 4.37.73 5.68 2.18 1.31 1.45 1.96 3.43 1.96 5.94v12.92h-4.4V49.01c0-1.55-.41-2.71-1.22-3.48s-1.88-1.16-3.18-1.16c-.99 0-1.88.28-2.66.84-.79.56-1.41 1.3-1.86 2.22s-.68 1.9-.68 2.94v10.96h-4.4V32.69zM255.38 40.93h4.2v3h.2c.45-1.04 1.24-1.91 2.36-2.6 1.12-.69 2.31-1.04 3.56-1.04.99 0 1.81.15 2.48.44v4.52c-1.17-.43-2.23-.64-3.16-.64-1.01 0-1.91.27-2.7.8s-1.41 1.25-1.86 2.15c-.45.9-.68 1.88-.68 2.95v10.83h-4.4V40.93zM274.38 60.55c-1.63-.95-2.89-2.25-3.8-3.9-.91-1.65-1.36-3.49-1.36-5.52 0-2.03.45-3.87 1.36-5.52.91-1.65 2.17-2.95 3.8-3.9 1.63-.95 3.47-1.42 5.52-1.42s3.89.48 5.52 1.44 2.89 2.27 3.8 3.92c.91 1.65 1.36 3.48 1.36 5.48 0 2.03-.45 3.87-1.36 5.52-.91 1.65-2.17 2.95-3.8 3.9-1.63.95-3.47 1.42-5.52 1.42s-3.89-.47-5.52-1.42zm8.64-3.44c.96-.55 1.72-1.33 2.3-2.36.57-1.03.86-2.23.86-3.62 0-1.39-.29-2.59-.86-3.6-.57-1.01-1.34-1.79-2.3-2.34-.96-.55-2-.82-3.12-.82s-2.16.27-3.12.82c-.96.55-1.73 1.33-2.3 2.34-.57 1.01-.86 2.21-.86 3.6 0 1.39.29 2.59.86 3.62.57 1.03 1.34 1.81 2.3 2.36.96.55 2 .82 3.12.82s2.16-.27 3.12-.82zM294.22 40.93h4.2v2.68h.2c.61-.99 1.48-1.79 2.6-2.4 1.12-.61 2.32-.92 3.6-.92 1.47 0 2.75.34 3.84 1.02s1.88 1.58 2.36 2.7c.69-1.12 1.62-2.02 2.78-2.7s2.53-1.02 4.1-1.02c2.35 0 4.13.71 5.34 2.14 1.21 1.43 1.82 3.37 1.82 5.82v13.08h-4.4V49.01c0-3.09-1.32-4.64-3.96-4.64-1.41 0-2.57.57-3.48 1.72-.91 1.15-1.36 2.56-1.36 4.24v11h-4.4V49.01c0-3.09-1.36-4.64-4.08-4.64-1.39 0-2.53.57-3.42 1.72-.89 1.15-1.34 2.56-1.34 4.24v11h-4.4v-20.4zM334 60.57c-1.59-.93-2.83-2.22-3.72-3.86-.89-1.64-1.34-3.49-1.34-5.54 0-1.95.43-3.75 1.3-5.42.87-1.67 2.07-2.99 3.62-3.98 1.54-.99 3.3-1.48 5.28-1.48 2.05 0 3.83.45 5.34 1.36 1.51.91 2.65 2.15 3.44 3.72.79 1.57 1.18 3.35 1.18 5.32 0 .37-.04.84-.12 1.4h-15.64c.16 1.89.83 3.35 2.02 4.38 1.19 1.03 2.56 1.54 4.14 1.54 1.25 0 2.34-.29 3.26-.86.92-.57 1.66-1.35 2.22-2.34l3.72 1.76c-.96 1.68-2.21 3-3.76 3.96-1.55.96-3.4 1.44-5.56 1.44-2 0-3.79-.46-5.38-1.4zm10.62-11.84c-.05-.72-.28-1.43-.68-2.14-.4-.71-1.01-1.3-1.82-1.78s-1.81-.72-2.98-.72c-1.41 0-2.61.42-3.58 1.26-.97.84-1.65 1.97-2.02 3.38h11.08zM213.26 108.57c-1.49-.93-2.67-2.22-3.54-3.86-.87-1.64-1.3-3.5-1.3-5.58s.43-3.94 1.3-5.58c.87-1.64 2.04-2.93 3.54-3.86 1.49-.93 3.16-1.4 5-1.4 1.44 0 2.73.32 3.88.96 1.15.64 2.01 1.43 2.6 2.36h.2l-.2-2.88v-8.04h4.4v28.64h-4.2v-2.64h-.2c-.59.91-1.45 1.68-2.6 2.32-1.15.64-2.44.96-3.88.96-1.84 0-3.5-.46-5-1.4zm8.62-3.48c.92-.56 1.66-1.36 2.22-2.4s.84-2.23.84-3.56-.28-2.51-.84-3.54c-.56-1.03-1.3-1.82-2.22-2.38s-1.91-.84-2.98-.84-2.07.28-3 .84-1.68 1.35-2.24 2.38c-.56 1.03-.84 2.21-.84 3.54s.28 2.52.84 3.56 1.31 1.84 2.24 2.4c.93.56 1.93.84 3 .84s2.06-.28 2.98-.84zM238 108.57c-1.59-.93-2.83-2.22-3.72-3.86-.89-1.64-1.34-3.49-1.34-5.54 0-1.95.43-3.75 1.3-5.42.87-1.67 2.07-2.99 3.62-3.98 1.54-.99 3.3-1.48 5.28-1.48 2.05 0 3.83.45 5.34 1.36 1.51.91 2.65 2.15 3.44 3.72.79 1.57 1.18 3.35 1.18 5.32 0 .37-.04.84-.12 1.4h-15.64c.16 1.89.83 3.35 2.02 4.38 1.19 1.03 2.56 1.54 4.14 1.54 1.25 0 2.34-.29 3.26-.86s1.66-1.35 2.22-2.34l3.72 1.76c-.96 1.68-2.21 3-3.76 3.96-1.55.96-3.4 1.44-5.56 1.44-2 0-3.79-.46-5.38-1.4zm10.62-11.84c-.05-.72-.28-1.43-.68-2.14-.4-.71-1.01-1.3-1.82-1.78s-1.81-.72-2.98-.72c-1.41 0-2.61.42-3.58 1.26-.97.84-1.65 1.97-2.02 3.38h11.08zM254.42 88.93h4.92l5.64 14.72h.16l5.76-14.72h4.8l-8.48 20.4h-4.4l-8.4-20.4zM289.58 108.43c-1.49-1.03-2.55-2.34-3.16-3.94l3.92-1.72c.48 1.07 1.15 1.88 2.02 2.44.87.56 1.86.84 2.98.84 1.09 0 2.01-.19 2.76-.58.75-.39 1.12-.97 1.12-1.74 0-.75-.32-1.33-.96-1.76-.64-.43-1.63-.8-2.96-1.12l-2.44-.6c-1.63-.4-2.97-1.11-4.04-2.12-1.07-1.01-1.6-2.29-1.6-3.84 0-1.2.35-2.25 1.06-3.16.71-.91 1.66-1.61 2.86-2.1s2.51-.74 3.92-.74c1.89 0 3.56.38 5 1.14 1.44.76 2.48 1.86 3.12 3.3l-3.84 1.68c-.77-1.57-2.19-2.36-4.24-2.36-.99 0-1.81.2-2.48.6-.67.4-1 .92-1 1.56 0 .61.25 1.11.76 1.5.51.39 1.25.71 2.24.98l3 .76c2 .51 3.51 1.27 4.54 2.3 1.03 1.03 1.54 2.29 1.54 3.78 0 1.28-.37 2.41-1.1 3.38-.73.97-1.74 1.73-3.02 2.26-1.28.53-2.7.8-4.24.8-2.35 0-4.27-.51-5.76-1.54zM309.28 107.75c-1.29-1.48-1.94-3.54-1.94-6.18V88.93h4.4v12.04c0 1.65.39 2.89 1.18 3.72.79.83 1.82 1.24 3.1 1.24 1.04 0 1.96-.27 2.76-.82.8-.55 1.41-1.27 1.84-2.18.43-.91.64-1.88.64-2.92V88.93h4.4v20.4h-4.16v-2.64h-.24c-.56.96-1.43 1.75-2.6 2.36-1.17.61-2.41.92-3.72.92-2.48 0-4.37-.74-5.66-2.22zM330.78 88.93h4.2v2.68h.2c.61-.99 1.48-1.79 2.6-2.4 1.12-.61 2.32-.92 3.6-.92 1.46 0 2.75.34 3.84 1.02 1.09.68 1.88 1.58 2.36 2.7.69-1.12 1.62-2.02 2.78-2.7 1.16-.68 2.53-1.02 4.1-1.02 2.35 0 4.12.71 5.34 2.14 1.21 1.43 1.82 3.37 1.82 5.82v13.08h-4.4V97.01c0-3.09-1.32-4.64-3.96-4.64-1.41 0-2.57.57-3.48 1.72-.91 1.15-1.36 2.56-1.36 4.24v11h-4.4V97.01c0-3.09-1.36-4.64-4.08-4.64-1.39 0-2.53.57-3.42 1.72-.89 1.15-1.34 2.56-1.34 4.24v11h-4.4v-20.4zM366.62 88.93h4.2v2.68h.2c.61-.99 1.48-1.79 2.6-2.4 1.12-.61 2.32-.92 3.6-.92 1.46 0 2.75.34 3.84 1.02 1.09.68 1.88 1.58 2.36 2.7.69-1.12 1.62-2.02 2.78-2.7 1.16-.68 2.53-1.02 4.1-1.02 2.35 0 4.12.71 5.34 2.14 1.21 1.43 1.82 3.37 1.82 5.82v13.08h-4.4V97.01c0-3.09-1.32-4.64-3.96-4.64-1.41 0-2.57.57-3.48 1.72-.91 1.15-1.36 2.56-1.36 4.24v11h-4.4V97.01c0-3.09-1.36-4.64-4.08-4.64-1.39 0-2.53.57-3.42 1.72-.89 1.15-1.34 2.56-1.34 4.24v11h-4.4v-20.4zM402.88 85.43c-.57-.57-.86-1.27-.86-2.1 0-.83.29-1.53.86-2.1.57-.57 1.27-.86 2.1-.86.83 0 1.53.29 2.1.86.57.57.86 1.27.86 2.1 0 .83-.29 1.53-.86 2.1-.57.57-1.27.86-2.1.86-.83 0-1.53-.28-2.1-.86zm-.1 3.5h4.4v20.4h-4.4v-20.4zM418.26 109.53c-.8-.3-1.45-.69-1.96-1.18-1.15-1.17-1.72-2.76-1.72-4.77V92.81h-3.56v-3.88h3.56v-5.76h4.4v5.76h4.96v3.88h-4.96v9.84c0 1.12.21 1.91.64 2.38.4.55 1.09.82 2.08.82.45 0 .85-.06 1.2-.18s.72-.31 1.12-.58v4.28c-.88.4-1.95.6-3.2.6-.91 0-1.76-.15-2.56-.44z"/><path fill="#878787" d="M208.76 153.49c.79-.79 2.34-2.35 4.66-4.68 2.32-2.33 3.86-3.92 4.62-4.75 1.04-1.11 1.74-2.01 2.13-2.7.38-.69.57-1.52.57-2.48s-.37-1.8-1.11-2.52c-.74-.72-1.74-1.07-3-1.07-1.16 0-2.1.34-2.83 1.02-.73.68-1.2 1.46-1.42 2.35l-3.7-1.52c.25-.89.71-1.76 1.39-2.63.68-.86 1.58-1.59 2.72-2.18 1.13-.59 2.44-.89 3.92-.89 1.6 0 3.03.33 4.27.98 1.25.65 2.21 1.54 2.89 2.66.68 1.12 1.02 2.36 1.02 3.72 0 1.46-.38 2.86-1.13 4.2-.75 1.34-1.71 2.6-2.87 3.76-.49.47-1.74 1.7-3.74 3.7l-3.03 3.03.07.15h11.03v3.7h-16.46v-3.85zM233.84 156.17c-1.58-1.17-2.79-2.76-3.64-4.77-.85-2.01-1.28-4.25-1.28-6.71 0-2.49.43-4.74 1.28-6.75.85-2.01 2.07-3.59 3.64-4.75 1.58-1.16 3.4-1.74 5.48-1.74s3.89.58 5.46 1.74c1.57 1.16 2.78 2.75 3.62 4.75.85 2.01 1.28 4.26 1.28 6.75 0 2.47-.43 4.71-1.28 6.71-.85 2.01-2.06 3.6-3.64 4.77-1.58 1.17-3.39 1.76-5.44 1.76-2.07 0-3.9-.59-5.48-1.76zm8.79-3.33c.95-.83 1.68-1.95 2.18-3.37.51-1.42.76-3.02.76-4.79 0-1.78-.25-3.38-.76-4.81-.51-1.43-1.23-2.55-2.18-3.37-.95-.81-2.05-1.22-3.31-1.22-1.28 0-2.39.41-3.33 1.22s-1.66 1.94-2.16 3.37c-.51 1.43-.76 3.03-.76 4.81 0 1.78.25 3.37.76 4.79.5 1.42 1.23 2.54 2.16 3.37s2.05 1.24 3.33 1.24c1.26 0 2.36-.42 3.31-1.24zM259.11 137.54l-4.14 3-2.07-3.14 7.44-5.37h2.85v25.31h-4.07v-19.8zM272.45 156.93c-1.35-.67-2.4-1.58-3.16-2.76-.77-1.17-1.15-2.46-1.15-3.87 0-1.38.38-2.61 1.13-3.68.75-1.07 1.71-1.91 2.87-2.5v-.22c-.91-.62-1.67-1.39-2.26-2.31-.59-.92-.89-1.93-.89-3.02 0-1.33.34-2.55 1.02-3.64.68-1.1 1.63-1.95 2.85-2.57 1.22-.62 2.6-.92 4.12-.92s2.9.31 4.13.92c1.22.62 2.17 1.47 2.85 2.57s1.02 2.31 1.02 3.64c0 1.09-.29 2.09-.89 3.02-.59.93-1.35 1.7-2.26 2.31v.22c1.16.59 2.12 1.42 2.87 2.5s1.13 2.3 1.13 3.68c0 1.41-.38 2.69-1.15 3.87-.77 1.17-1.82 2.09-3.16 2.76-1.35.67-2.86 1-4.53 1s-3.19-.34-4.54-1zm7.92-3.98c.9-.75 1.35-1.73 1.35-2.94 0-1.18-.45-2.16-1.35-2.92-.9-.76-2.03-1.15-3.39-1.15-1.36 0-2.48.38-3.38 1.15-.9.77-1.35 1.74-1.35 2.92 0 1.21.45 2.19 1.35 2.94s2.03 1.13 3.38 1.13c1.36 0 2.49-.38 3.39-1.13zm-.55-11.66c.75-.65 1.13-1.52 1.13-2.61 0-1.06-.37-1.91-1.11-2.54s-1.69-.94-2.85-.94c-1.16 0-2.11.31-2.85.94-.74.63-1.11 1.47-1.11 2.54 0 1.09.38 1.96 1.13 2.61s1.7.98 2.83.98 2.07-.32 2.83-.98z"/></g></svg>