<svg xmlns="http://www.w3.org/2000/svg" viewBox="0 0 700 216"><g fill="none" fill-rule="evenodd"><path fill="#1565C0" d="M569 50h51V7h-51z"/><path fill="#2196F3" d="M116 173h84V40h-84z"/><path fill="#1976D2" d="M179 186h40v-79h-40z"/><path fill="#4684F0" d="M316 120h43V77h-43z"/><path fill="#2196F3" d="M372 216h38v-80h-38z"/><path stroke="#212121" stroke-width="1.5" d="M239 10h-36M253 1h-37M0 98.5996299h210.058829V30.8536044h-86.686765V178.186571h86.437809v-65.962394h-31.63444v66.231188c0 14.171128 11.49498 25.658315 25.674488 25.658315h27.570154v-91.889503h29.87875c15.847215 0 28.694957-12.8401489 28.694957-28.6779981v-24.099511h12.814748L289.993782 16h-19.661545c-21.239267 0-38.457241 17.2077983-38.457241 38.4345132V85.640572h113.226101v41.376256h-37.502409c-10.544147 0-19.851511 6.886717-22.928971 16.966983l-4.238255 17.432626h9.418345c0 13.657522 11.077053 24.728029 24.741652 24.728029h13.520624v-39.670565c0-4.923223-3.993298-8.913162-8.918433-8.913162-4.926134 0-8.919432 3.989939-8.919432 8.913162v.994237c0 4.923223 3.993298 8.914161 8.919432 8.914161h97.852804v-29.167622h-51.622928V205h34.494938l.015997-74.006223V36.5672209h-77.992294v72.4114461h95.175274V19.2475085h79.257072l-.348939 109.3990695 9.827273-.135896c7.239728 0 13.107696-5.8655 13.107696-13.100949v-6.68587h8.271547l-8.271547-17.7503823V84.317587c0-16.2795104-10.29819-29.7991382-27.64914-29.7991382-14.577439 0-25.108588 10.7517513-25.15258 23.4629993-.012998 4.1378255 3.222433 7.7440588 7.361706 7.8569722 4.49721.1239049 8.13957-3.6711835 7.758637-8.2176955-.330942-3.9639588-3.835326-6.9176927-7.814627-6.9176927h-9.485333c-6.299893 0-11.406996 5.1030849-11.406996 11.3992545V144.412482h9.763285c6.869792 0 12.439814-5.566729 12.439814-12.432461v-28.812895h-37.138474v70.107214h102.93991l5.998945-.149885V19.1026197h57.980811v39.9833249h-14.655425l-25.363542 16.187581V58.4274498h-28.626969v-20.199503H700"/></g></svg>