<svg xmlns="http://www.w3.org/2000/svg" viewBox="0 0 900 217"><g fill="none" fill-rule="evenodd"><path fill="#2196F3" d="M571 217h93v-62h-93z"/><path fill="#1565C0" d="M605 50h51V7h-51z"/><path fill="#2196F3" d="M153 173h84V40h-84z"/><path fill="#1976D2" d="M215 181h40v-79h-40z"/><path fill="#4684F0" d="M352 114h43V71h-43z"/><path fill="#2196F3" d="M409 216h38v-80h-38z"/><path stroke="#212121" stroke-width="1.5" d="M276 11h-36M290 1h-37"/><path stroke="#212121" stroke-width="1.333" d="M653 93l7-7M642 78v9M657 105h9"/><path stroke="#212121" stroke-width="1.5" d="M0 98.5996299h247.172595V30.8536044h-86.740639V178.186571h86.491528v-65.962394h-31.6541v66.231188c0 14.171128 11.502123 25.658315 25.690444 25.658315h27.587288v-91.889503h29.897318c15.857064 0 28.712791-12.8401489 28.712791-28.6779981v-24.099511h12.822712L327.157225 16h-19.673764c-21.252467 0-38.481142 17.2077983-38.481142 38.4345132V85.640572h113.296469v41.376256h-37.525716c-10.5507 0-19.863849 6.886717-22.943221 16.966983l-4.240889 17.432626h9.424198c0 13.657522 11.083938 24.728029 24.757029 24.728029h13.529026v-39.670565c0-4.923223-3.99578-8.913162-8.923975-8.913162-4.929196 0-8.924976 3.989939-8.924976 8.913162v.994237c0 4.923223 3.99578 8.914161 8.924976 8.914161h97.913616v-29.167622h-51.65501V205h34.516375l.016008-74.006223V36.5672209h-78.040764v72.4114461h95.234423V19.2475085h79.306327l-.349156 109.3990695 9.833381-.135896c7.244227 0 13.115842-5.8655 13.115842-13.100949v-6.68587h8.276687l-8.276687-17.7503823V84.317587c0-16.2795104-10.30459-29.7991382-27.666324-29.7991382-14.586497 0-25.124192 10.7517513-25.168211 23.4629993-.013006 4.1378255 3.224436 7.7440588 7.366281 7.8569722 4.500005.1239049 8.144628-3.6711835 7.763458-8.2176955-.331147-3.9639588-3.837709-6.9176927-7.819483-6.9176927h-9.491228c-6.303808 0-11.414084 5.1030849-11.414084 11.3992545V144.412482h9.769352c6.874062 0 12.447545-5.566729 12.447545-12.432461v-28.812895h-37.161554v70.107214h103.003883l6.002674-.149885V19.1026197h58.016844v39.9833249h-14.664532l-25.379306 16.187581V58.4274498h-28.64476v-20.199503h178.746624v58.4441619c0 13.3427633-10.828824 24.1594653-24.188775 24.1594653h-27.834399V86.1911496h-14.006239l16.200216-20.6761373c4.930196-6.2911734 12.483561-9.9673531 20.482124-9.9673531h6.002674v23.6018927c0 3.3374396-2.708206 6.0423644-6.049695 6.0423644-3.580595 0-6.288801-2.7049248-6.288801-6.0423644 0-3.5762563 2.708206-6.2811811 6.049695-6.2811811h59.646569v77.3386662h-10.072486c-11.38107 0-20.60818 9.21593-20.60818 20.584208l-52.023174.167871v-23.814729l-138.610745-.666489v58.520104h90.17817l-.089039-78.623681h-23.48046V95.0413598c.47021-.4696397 3.705651-.6385101 7.616393-.6644902 8.554811-.0549578 15.515911 6.8747254 15.515911 15.4201694v2.135362h-32.101299l-7.065147 75.908763H900"/></g></svg>