<svg xmlns="http://www.w3.org/2000/svg" viewBox="0 0 8000 216"><g fill="none" fill-rule="evenodd"><path fill="#2196F3" d="M3786 154h93v62h-93z"/><path fill="#1565C0" d="M4244 94h45V36h-45z"/><path fill="#4684F0" d="M4016 187.000498C4016 196.94125 4007.94125 205 3997.9995 205c-9.94075 0-17.9995-8.05875-17.9995-17.999502S3988.05875 169 3997.9995 169c9.94175 0 18.0005 8.059746 18.0005 18.000498M4115 187.000498C4115 196.94125 4106.94125 205 4097.0005 205c-9.94175 0-18.0005-8.05875-18.0005-17.999502S4087.05875 169 4097.0005 169c9.94075 0 17.9995 8.059746 17.9995 18.000498"/><path fill="#2196F3" d="M4143 122h35V87h-35zM4033 107h82V69h-82z"/><path fill="#1565C0" d="M3820 49h51V6h-51z"/><path fill="#2196F3" d="M3368 172h84V39h-84z"/><path fill="#1976D2" d="M3431 186h40v-79h-40z"/><path fill="#4684F0" d="M3568 120h43V77h-43z"/><path fill="#2196F3" d="M3624 216h38v-80h-38z"/><path stroke="#212121" stroke-width="1.5" d="M3491 10h-36M3505 1h-37M4046 46h-36M4026 36h-26M4498 46h-36M4504 36h-26"/><path fill="#4684F0" d="M4527 134h91V64h-91z"/><path fill="#2196F3" d="M4302 206h38v-62h-38z"/><path stroke="#212121" stroke-width="1.5" d="M3951 208h-26M3963 199h-25"/><path fill="#2196F3" d="M4615 172c0 9.940477-8.05875 18-17.9995 18-9.94175 0-18.0005-8.059523-18.0005-18s8.05875-18 18.0005-18c9.94075 0 17.9995 8.059523 17.9995 18"/><path stroke="#212121" stroke-width="1.333" d="M3868 93l7-7M3857 77v9M3872 105h9"/><path stroke="#212121" stroke-width="1.5" d="M0 98.8111884h3462.15235v-67.920542h-86.73205V178.60097h86.48296v-66.130338h-31.6506v66.400822c0 14.207424 11.50085 25.724033 25.68761 25.724033h27.58424v-92.124855h29.89401c15.85531 0 28.70962-12.8730363 28.70962-28.7514503V59.5579458h12.82129L3542.12814 16h-19.67159c-21.25012 0-38.47689 17.25087-38.47689 38.5329537v31.2859855h113.28394v41.4822318h-37.52157c-10.55053 0-19.86165 6.904355-22.94068 17.010439l-4.24042 17.477275h9.42216c0 13.691501 11.08371 24.791364 24.75529 24.791364h13.52753v-39.772171c0-4.935833-3.99534-8.936993-8.92299-8.936993-4.92865 0-8.92399 4.00116-8.92399 8.936993v.996783c0 4.935833 3.99534 8.936993 8.92399 8.936993h97.90279v-29.242329h-51.6493v77.984552h34.51256l.01601-74.195772V36.6198988h-78.03214v72.5969102h95.2229V19.2558262h79.29856l-.34912 109.6792678 9.83229-.136243c7.24243 0 13.1144-5.880523 13.1144-13.134504v-6.702995h8.27577l-8.27577-17.7968471v-6.672941c0-16.3202046-10.30345-29.8744596-27.66427-29.8744596-14.58288 0-25.12041 10.7792892-25.16343 23.5230939-.015 4.1484235 3.22308 7.7638933 7.36447 7.8770959 4.49851.1242223 8.14373-3.6805863 7.7636-8.238743-.33211-3.9741116-3.83729-6.9364125-7.81962-6.9364125h-9.49018c-6.30311 0-11.41282 5.117157-11.41282 11.4294527v62.4697877h9.76827c6.8733 0 12.44517-5.580987 12.44517-12.464304v-28.886692h-37.15645v70.286776h102.9925l6.00201-.150269V19.1105663h58.01043v40.0857323h-14.66291l-25.3775 16.2290415V58.5361173h-28.64059V38.2848782h178.72686v58.5938522c0 13.3769376-10.82862 24.2213436-24.1851 24.2213436h-27.83232V86.3709269h-14.00469l16.19942-20.7300959c4.92865-6.306285 12.48118-9.9918802 20.47886-9.9918802h6.00201v23.6623431c0 3.3459876-2.7079 6.0578403-6.04902 6.0578403h-.23908c-3.34112 0-6.04903-2.7118527-6.04903-6.0578403v-.2404302c0-3.3449858 2.70791-6.0578404 6.04903-6.0578404h59.63997v77.5377517h-10.07137c-11.38081 0-20.6059 9.239534-20.6059 20.636929l-52.01742.168301v-23.875724l-138.59543-.668196v58.669988h90.1682l-.08903-78.825055h-23.47786V95.2438047c.47016-.4708426 3.70524-.6401455 7.61555-.6661921 8.55387-.0561004 15.5152 6.8923334 15.5152 15.4596644v2.140831h-32.09875l-7.06437 76.103185s303.49666-.326585 302.41329.757355v-12.172783c0-12.381156-10.02235-22.418116-22.38549-22.418116h-8.23076l-30.07407-28.510018h-41.13778V206h31.27747l2.00067-169.3270062h37.79266v61.7615206h-70.99878V59.9686808h103.94782v73.9002422h47.92405V83.6200042h-28.39951v27.0063268h44.96606V59.9686808h23.07373l-57.39022-36.14468-40.82368 25.4775915h161.69416l-.12504 37.1043974h-27.63826V24.5733418h47.49391v64.4423178c0 11.3062322-9.15207 20.4716334-20.44185 20.4716334h-57.80836v52.351682l17.76595-.185332v18.532163c0 13.698513-11.08971 24.804387-24.7683 24.804387h-15.80129v-27.349942h-5.89297c-6.29211 0-9.82529-7.251977-5.953-12.218865l20.64492-22.115576h54.26818c6.21508 0 11.25377-5.046029 11.25377-11.270167 0-6.224138-5.03869-11.270168-11.25377-11.270168h-1.00034c-6.21508 0-11.25377 5.04603-11.25377 11.270168v45.331119h98.36595v-49.588738l-29.843.043077v64.289043h49.86871V77.489033c0-9.8506274-7.97367-17.8359169-17.80997-17.8359169-9.83629 0-17.81096 7.9852895-17.81096 17.8359169v1.8803649c0 9.8506274 7.97467 17.8359169 17.81096 17.8359169h73.60266c11.77894 0 21.32714-9.5611094 21.32714-21.3572182 0-11.795107-9.5482-21.3572182-21.32714-21.3572182h-.93632v-1.9264473c0-12.3140357-9.96734-22.2958979-22.26246-22.2958979-12.29511 0-22.26345 9.9818622-22.26345 22.2958979v25.6238532c0 26.6226407 21.55122 48.2042607 48.13512 48.2042607h179.86325V56.4954656h-130.24663c0 15.269324 12.35914 27.6464726 27.60525 27.6464726h68.86706V32.119846h-59.07078V205.17853H4395.8721v-9.36576c0-21.943267 17.76195-39.731098 39.67229-39.731098h37.80266v17.836919h-19.59156v-13.252715c0-26.531478 21.47719-48.039966 47.97006-48.039966h73.1395v52.373721c0 10.836391 8.77194 19.62011 19.59156 19.62011 10.82063 0 19.59157-8.783719 19.59157-19.62011 0-10.83539-8.77094-19.62011-19.59157-19.62011h-10.21842c-17.47185 0-31.63559 14.185385-31.63559 31.682696v28.116313h84.84241v-33.044132h18.92034l-25.3905-44.451544H8000"/></g></svg>