<svg xmlns="http://www.w3.org/2000/svg" viewBox="0 0 1400 217"><g fill="none" fill-rule="evenodd"><path fill="#2196F3" d="M710 217h93v-62h-93z"/><path fill="#4684F0" d="M940 187c0 9.940477-8.05875 18-18.000498 18C912.05875 205 904 196.940477 904 187s8.05875-18 17.999502-18C931.94125 169 940 177.059523 940 187M1039 187c0 9.940477-8.05875 18-18.0005 18-9.94075 0-17.9995-8.059523-17.9995-18s8.05875-18 17.9995-18c9.94175 0 18.0005 8.059523 18.0005 18"/><path fill="#2196F3" d="M1067 122h35V87h-35zM957 108h82V70h-82z"/><path fill="#1565C0" d="M744 50h51V7h-51z"/><path fill="#2196F3" d="M292 173h84V40h-84z"/><path fill="#1976D2" d="M355 186h40v-79h-40z"/><path fill="#4684F0" d="M492 120h43V77h-43z"/><path fill="#2196F3" d="M548 216h38v-80h-38z"/><path stroke="#212121" stroke-width="1.5" d="M415 11h-36M429 1h-37M970 46h-36M950 37h-26M875 209h-26M887 199h-25"/><path stroke="#212121" stroke-width="1.333" d="M792 93l7-7M781 78v9M796 105h9"/><path stroke="#212121" stroke-width="1.5" d="M0 98.8111884h386.144671V30.8916482h-86.728416V178.601972h86.479343v-66.13134h-31.648275v66.400822c0 14.207424 11.49937 25.724033 25.685527 25.724033h27.583084v-92.124855h29.89276c15.854646 0 28.708413-12.8730363 28.708413-28.7514503V59.5579458h12.820757L466.117107 16h-19.670765c-21.249227 0-38.475275 17.2518718-38.475275 38.5329537v31.2859855h113.280197v41.4822318h-37.520996c-10.549091 0-19.86082 6.904355-22.939722 17.010439l-4.240243 17.477275h9.422762c0 13.692503 11.082247 24.791364 24.753254 24.791364h13.526964v-39.772171c0-4.935833-3.995171-8.935991-8.922615-8.935991-4.928444 0-8.923615 4.000158-8.923615 8.935991v.996783c0 4.935833 3.995171 8.936993 8.923615 8.936993H593.230358v-29.242329h-51.648136v77.984552h34.511114l.016004-74.195772V36.6198988h-78.028866v72.5969102h95.218904V19.2558262h79.295237l-.349102 109.6792678 9.831881-.136243c7.243123 0 13.113843-5.880523 13.113843-13.134504v-6.702995h8.275425l-8.275425-17.7958453v-6.6729411c0-16.3212063-10.303019-29.8754613-27.663106-29.8754613-14.582274 0-25.119362 10.7792892-25.162374 23.5230939-.015005 4.1484235 3.222944 7.7638933 7.364158 7.8770959 4.499318.1242223 8.143386-3.6805863 7.763275-8.238743-.332097-3.9741116-3.837125-6.9354107-7.819292-6.9354107h-9.489781c-6.302847 0-11.412344 5.1161552-11.412344 11.4284509v62.4697877h9.767862c6.873015 0 12.445648-5.580987 12.445648-12.464304v-28.886692h-37.155889v70.286776h102.988181l6.001759-.150269V19.1105663h58.008999v40.0857323h-14.663297L740.7886 75.4253401V58.5361173h-28.639393V38.2848782h178.719374v58.5938522c0 13.3769376-10.828173 24.2213436-24.184087 24.2213436h-27.831156V86.3709269h-14.004104l16.198747-20.7290941c4.928444-6.3072868 12.480657-9.992882 20.478001-9.992882h6.001759v23.6623431c0 3.3459876-2.707794 6.0578403-6.047773 6.0578403-3.580049 0-6.288843-2.7118527-6.288843-6.0578403 0-3.585416 2.708794-6.2972688 6.048773-6.2972688h59.637477v77.5367499h-10.070951c-11.379335 0-20.605039 9.239534-20.605039 20.636929l-52.015243.168301v-23.875724l-138.589614-.668196v58.669988h90.164423l-.089026-78.825055h-23.47688V95.2438047c.470138-.4708426 3.705086-.6401455 7.615232-.6661921 8.553506-.0550986 15.514546 6.8923334 15.514546 15.4596644v2.140831h-32.097406l-7.06407 76.103185s303.483933-.326585 302.400623.757355v-12.172783c0-12.381156-10.02194-22.418116-22.38456-22.418116h-8.23042l-30.072809-28.510018h-41.136055V206h31.276166l2.000586-169.3270062h37.791072v61.7615206h-70.995803V59.9686808h103.943463v73.9002422h47.92204V83.6200042h-28.39832v27.0073288h44.96418V59.9686808h23.07376l-57.38882-36.14468-40.82196 25.4775915H1400"/></g></svg>