<?xml version="1.0" encoding="utf-8"?>
<!-- Generator: Adobe Illustrator 16.0.0, SVG Export Plug-In . SVG Version: 6.00 Build 0)  -->
<!DOCTYPE svg PUBLIC "-//W3C//DTD SVG 1.1//EN" "http://www.w3.org/Graphics/SVG/1.1/DTD/svg11.dtd">
<svg version="1.1" id="Layer_1" xmlns:sketch="http://www.bohemiancoding.com/sketch/ns"
	 xmlns="http://www.w3.org/2000/svg" xmlns:xlink="http://www.w3.org/1999/xlink" x="0px" y="0px" width="59.887px"
	 height="39.064px" viewBox="-38 -20.083 59.887 39.064" enable-background="new -38 -20.083 59.887 39.064" xml:space="preserve">
<title>cardboard</title>
<desc>Created with Sketch.</desc>
<g id="Page-1" sketch:type="MSPage">
	<g id="cardboard" sketch:type="MSArtboardGroup">
		<path id="Imported-Layers" sketch:type="MSShapeGroup" d="M18.125-20.083h-52.479c-1.958,0-3.607,1.71-3.607,3.821V15.16
			c0,2.109,1.65,3.82,3.685,3.82h14.334c1.537,0,2.855-0.976,3.409-2.36l4.167-10.436c0.704-1.758,2.376-2.998,4.328-2.998
			c1.951,0,3.626,1.24,4.326,2.998l4.17,10.436c0.556,1.385,1.872,2.36,3.33,2.36h14.336c2.113,0,3.762-1.711,3.762-3.82v-31.423
			C21.887-18.373,20.238-20.083,18.125-20.083L18.125-20.083z M-21.61,6.322c-3.667,0-6.636-3.077-6.636-6.874
			c0-3.798,2.97-6.874,6.636-6.874c3.666,0,6.628,3.076,6.628,6.874C-14.982,3.246-17.95,6.322-21.61,6.322L-21.61,6.322z
			 M5.541,6.319c-3.665,0-6.633-3.074-6.633-6.871c0-3.797,2.969-6.871,6.633-6.871s6.633,3.074,6.633,6.871
			C12.174,3.246,9.205,6.319,5.541,6.319L5.541,6.319z"/>
		<g id="Oval-2-_x2B_-Imported-Layers" transform="translate(18.000000, 20.000000)" sketch:type="MSLayerGroup">
		</g>
	</g>
</g>
</svg>
