<svg xmlns="http://www.w3.org/2000/svg" viewBox="0 0 106.58 69.69"><defs><style>.cls-1{fill:#fff;}</style></defs><title>code-labs-2017</title><g id="Layer_2" data-name="Layer 2"><g id="Layer_1-2" data-name="Layer 1"><polygon class="cls-1" points="65.59 4.1 65.59 8.2 61.49 8.2 61.49 12.3 61.49 16.4 57.39 16.4 57.39 20.5 57.39 24.6 53.29 24.6 53.29 28.7 53.29 32.8 49.19 32.8 49.19 36.89 49.19 40.99 45.09 40.99 45.09 45.09 45.09 49.19 40.99 49.19 40.99 53.29 40.99 57.39 36.89 57.39 36.89 61.49 36.89 65.59 36.89 69.69 40.99 69.69 40.99 65.59 40.99 61.49 45.09 61.49 45.09 57.39 45.09 53.29 49.19 53.29 49.19 49.19 49.19 45.09 53.29 45.09 53.29 40.99 53.29 36.89 57.39 36.89 57.39 32.8 57.39 28.7 61.49 28.7 61.49 24.6 61.49 20.5 65.59 20.5 65.59 16.4 65.59 12.3 69.69 12.3 69.69 8.2 69.69 4.1 69.69 0 65.59 0 65.59 4.1"/><polygon class="cls-1" points="102.48 32.8 102.48 28.7 98.38 28.7 98.38 24.6 94.28 24.6 94.28 20.5 90.19 20.5 90.19 16.4 86.09 16.4 86.09 12.3 81.99 12.3 81.99 8.2 77.89 8.2 77.89 12.3 77.89 16.4 81.99 16.4 81.99 20.5 86.09 20.5 86.09 24.6 90.19 24.6 90.19 28.7 94.28 28.7 94.28 32.8 98.38 32.8 98.38 36.89 94.28 36.89 94.28 40.99 90.19 40.99 90.19 45.09 86.09 45.09 86.09 49.19 81.99 49.19 81.99 53.29 77.89 53.29 77.89 57.39 77.89 61.49 81.99 61.49 81.99 57.39 86.09 57.39 86.09 53.29 90.19 53.29 90.19 49.19 94.28 49.19 94.28 45.09 98.38 45.09 98.38 40.99 102.48 40.99 102.48 36.89 106.58 36.89 106.58 32.8 102.48 32.8"/><polygon class="cls-1" points="24.6 12.3 20.5 12.3 20.5 16.4 16.4 16.4 16.4 20.5 12.3 20.5 12.3 24.6 8.2 24.6 8.2 28.7 4.1 28.7 4.1 32.8 0 32.8 0 36.89 4.1 36.89 4.1 40.99 8.2 40.99 8.2 45.09 12.3 45.09 12.3 49.19 16.4 49.19 16.4 53.29 20.5 53.29 20.5 57.39 24.6 57.39 24.6 61.49 28.7 61.49 28.7 57.39 28.7 53.29 24.6 53.29 24.6 49.19 20.5 49.19 20.5 45.09 16.4 45.09 16.4 40.99 12.3 40.99 12.3 36.89 8.2 36.89 8.2 32.8 12.3 32.8 12.3 28.7 16.4 28.7 16.4 24.6 20.5 24.6 20.5 20.5 24.6 20.5 24.6 16.4 28.7 16.4 28.7 12.3 28.7 8.2 24.6 8.2 24.6 12.3"/></g></g></svg>