<svg xmlns="http://www.w3.org/2000/svg" viewBox="0 0 106.58 69.69"><defs><style>.cls-1{fill:#fff;}</style></defs><title>Asset 1</title><g id="Layer_2" data-name="Layer 2"><g id="Layer_1-2" data-name="Layer 1"><rect class="cls-1" x="61.49" y="12.3" width="4.1" height="4.1"/><rect class="cls-1" x="61.49" y="8.2" width="4.1" height="4.1"/><rect class="cls-1" x="65.59" y="8.2" width="4.1" height="4.1"/><rect class="cls-1" x="65.59" y="4.1" width="4.1" height="4.1"/><rect class="cls-1" x="65.59" width="4.1" height="4.1"/><rect class="cls-1" x="36.89" y="61.49" width="4.1" height="4.1"/><rect class="cls-1" x="36.89" y="65.59" width="4.1" height="4.1"/><rect class="cls-1" x="36.89" y="57.39" width="4.1" height="4.1"/><rect class="cls-1" x="61.49" y="16.4" width="4.1" height="4.1"/><rect class="cls-1" x="57.39" y="16.4" width="4.1" height="4.1"/><rect class="cls-1" x="57.39" y="20.5" width="4.1" height="4.1"/><rect class="cls-1" x="57.39" y="24.6" width="4.1" height="4.1"/><rect class="cls-1" x="53.29" y="24.6" width="4.1" height="4.1"/><rect class="cls-1" x="53.29" y="28.7" width="4.1" height="4.1"/><rect class="cls-1" x="53.29" y="32.79" width="4.1" height="4.1"/><rect class="cls-1" x="49.19" y="32.79" width="4.1" height="4.1"/><rect class="cls-1" x="49.19" y="36.89" width="4.1" height="4.1"/><rect class="cls-1" x="49.19" y="40.99" width="4.1" height="4.1"/><rect class="cls-1" x="45.09" y="40.99" width="4.1" height="4.1"/><rect class="cls-1" x="45.09" y="45.09" width="4.1" height="4.1"/><rect class="cls-1" x="40.99" y="49.19" width="4.1" height="4.1"/><rect class="cls-1" x="45.09" y="49.19" width="4.1" height="4.1"/><rect class="cls-1" x="40.99" y="53.29" width="4.1" height="4.1"/><rect class="cls-1" x="40.99" y="57.39" width="4.1" height="4.1"/><rect class="cls-1" x="86.09" y="20.5" width="4.1" height="4.1" transform="translate(176.27 45.09) rotate(-180)"/><rect class="cls-1" x="90.19" y="20.5" width="4.1" height="4.1" transform="translate(184.47 45.09) rotate(-180)"/><rect class="cls-1" x="77.89" y="8.2" width="4.1" height="4.1" transform="translate(159.87 20.5) rotate(-180)"/><rect class="cls-1" x="81.99" y="12.3" width="4.1" height="4.1" transform="translate(168.07 28.7) rotate(-180)"/><rect class="cls-1" x="77.89" y="12.3" width="4.1" height="4.1" transform="translate(159.87 28.7) rotate(-180)"/><rect class="cls-1" x="86.09" y="16.4" width="4.1" height="4.1" transform="translate(176.27 36.89) rotate(-180)"/><rect class="cls-1" x="81.99" y="16.4" width="4.1" height="4.1" transform="translate(168.07 36.89) rotate(-180)"/><rect class="cls-1" x="86.09" y="45.09" width="4.1" height="4.1" transform="translate(176.27 94.28) rotate(-180)"/><rect class="cls-1" x="90.19" y="45.09" width="4.1" height="4.1" transform="translate(184.47 94.28) rotate(-180)"/><rect class="cls-1" x="90.19" y="40.99" width="4.1" height="4.1" transform="translate(184.47 86.09) rotate(-180)"/><rect class="cls-1" x="94.28" y="24.6" width="4.1" height="4.1" transform="translate(192.67 53.29) rotate(-180)"/><rect class="cls-1" x="94.28" y="40.99" width="4.1" height="4.1" transform="translate(192.67 86.09) rotate(-180)"/><rect class="cls-1" x="94.28" y="36.89" width="4.1" height="4.1" transform="translate(192.67 77.89) rotate(-180)"/><rect class="cls-1" x="98.38" y="36.89" width="4.1" height="4.1" transform="translate(200.87 77.89) rotate(-180)"/><rect class="cls-1" x="98.38" y="32.79" width="4.1" height="4.1" transform="translate(200.87 69.69) rotate(-180)"/><rect class="cls-1" x="102.48" y="32.79" width="4.1" height="4.1" transform="translate(209.07 69.69) rotate(-180)"/><rect class="cls-1" x="90.19" y="24.6" width="4.1" height="4.1" transform="translate(184.47 53.29) rotate(-180)"/><rect class="cls-1" x="86.09" y="49.19" width="4.1" height="4.1" transform="translate(176.27 102.48) rotate(-180)"/><rect class="cls-1" x="81.99" y="49.19" width="4.1" height="4.1" transform="translate(168.07 102.48) rotate(-180)"/><rect class="cls-1" x="81.99" y="53.29" width="4.1" height="4.1" transform="translate(168.07 110.68) rotate(-180)"/><rect class="cls-1" x="77.89" y="53.29" width="4.1" height="4.1" transform="translate(159.87 110.68) rotate(-180)"/><rect class="cls-1" x="77.89" y="57.39" width="4.1" height="4.1" transform="translate(159.87 118.88) rotate(-180)"/><rect class="cls-1" x="94.28" y="28.7" width="4.1" height="4.1" transform="translate(192.67 61.49) rotate(-180)"/><rect class="cls-1" x="98.38" y="28.7" width="4.1" height="4.1" transform="translate(200.87 61.49) rotate(-180)"/><rect class="cls-1" x="16.4" y="20.5" width="4.1" height="4.1"/><rect class="cls-1" x="12.3" y="20.5" width="4.1" height="4.1"/><rect class="cls-1" x="24.6" y="8.2" width="4.1" height="4.1"/><rect class="cls-1" x="20.5" y="12.3" width="4.1" height="4.1"/><rect class="cls-1" x="24.6" y="12.3" width="4.1" height="4.1"/><rect class="cls-1" x="16.4" y="16.4" width="4.1" height="4.1"/><rect class="cls-1" x="20.5" y="16.4" width="4.1" height="4.1"/><rect class="cls-1" x="16.4" y="45.09" width="4.1" height="4.1"/><rect class="cls-1" x="12.3" y="45.09" width="4.1" height="4.1"/><rect class="cls-1" x="12.3" y="40.99" width="4.1" height="4.1"/><rect class="cls-1" x="8.2" y="24.6" width="4.1" height="4.1"/><rect class="cls-1" x="8.2" y="40.99" width="4.1" height="4.1"/><rect class="cls-1" x="8.2" y="36.89" width="4.1" height="4.1"/><rect class="cls-1" x="4.1" y="36.89" width="4.1" height="4.1"/><rect class="cls-1" x="4.1" y="32.79" width="4.1" height="4.1"/><rect class="cls-1" y="32.79" width="4.1" height="4.1"/><rect class="cls-1" x="12.3" y="24.6" width="4.1" height="4.1"/><rect class="cls-1" x="16.4" y="49.19" width="4.1" height="4.1"/><rect class="cls-1" x="20.5" y="49.19" width="4.1" height="4.1"/><rect class="cls-1" x="20.5" y="53.29" width="4.1" height="4.1"/><rect class="cls-1" x="24.6" y="53.29" width="4.1" height="4.1"/><rect class="cls-1" x="24.6" y="57.39" width="4.1" height="4.1"/><rect class="cls-1" x="8.2" y="28.7" width="4.1" height="4.1"/><rect class="cls-1" x="4.1" y="28.7" width="4.1" height="4.1"/></g></g></svg>