<svg xmlns="http://www.w3.org/2000/svg" width="325" height="270" viewBox="0 0 325 270">
  <defs>
    <linearGradient id="a" x1="84.368%" x2="11.203%" y1="79.6%" y2="11.097%">
      <stop stop-color="#000000" stop-opacity="0" offset="0%"/>
      <stop stop-color="#000000" stop-opacity=".059" offset="100%"/>
    </linearGradient>
  </defs>
  <g fill="none" fill-rule="evenodd">
    <polygon fill="url(#a)" points="128.578 141.441 208.377 221.24 256.172 169.446 135.237 48.511 97.492 90.961"/>
    <rect width="325" height="270"/>
    <polygon fill="url(#a)" points="194.578 141.441 274.377 221.24 322.172 169.446 201.237 48.511 234.663 98.015"/>
    <path fill="#FFFFFF" d="M140.333333,130.333333 L102,92 L140.333333,53.6666667 L128.666667,42 L78.6666667,92 L128.666667,142 L140.333333,130.333333 L140.333333,130.333333 Z M183.666667,130.333333 L222,92 L183.666667,53.6666667 L195.333333,42 L245.333333,92 L195.333333,142 L183.666667,130.333333 L183.666667,130.333333 Z"/>
  </g>
</svg>
