<svg xmlns="http://www.w3.org/2000/svg" width="325" height="270" viewBox="0 0 325 270">
  <defs>
    <linearGradient id="a" x1="84.368%" x2="11.203%" y1="79.6%" y2="11.097%">
      <stop stop-color="#000000" stop-opacity="0" offset="0%"/>
      <stop stop-color="#000000" stop-opacity=".059" offset="100%"/>
    </linearGradient>
  </defs>
  <g fill="none" fill-rule="evenodd">
    <rect width="325" height="270" />
    <polygon fill="url(#a)" points="119.169 142.019 239.949 262.905 324.164 178.616 203.467 57.813 159.29 49.763 129.68 57.621 115.404 81.865 109.968 102.117"/>
    <polygon fill="url(#a)" points="157.948 107.336 197.491 146.914 214.352 121.723 165.59 72.918"/>
    <path fill="#FFFFFF" d="M162.618174,42.4328241 C129.914949,42.4328241 103.432445,68.9978378 103.432445,101.72973 C103.432445,134.461622 129.914949,161.026635 162.618174,161.026635 C195.380645,161.026635 221.922394,134.461622 221.922394,101.72973 C221.922394,68.9978378 195.380645,42.4328241 162.618174,42.4328241 L162.618174,42.4328241 Z M162.677419,149.167254 C136.491141,149.167254 115.28144,127.938962 115.28144,101.72973 C115.28144,75.5204975 136.491141,54.2922052 162.677419,54.2922052 C188.863698,54.2922052 210.073399,75.5204975 210.073399,101.72973 C210.073399,127.938962 188.863698,149.167254 162.677419,149.167254 L162.677419,149.167254 Z"/>
    <polygon fill="#FFFFFF" points="165.64 72.081 156.753 72.081 156.753 107.659 187.857 126.338 192.3 119.044 165.64 103.212"/>
  </g>
</svg>
