<svg xmlns="http://www.w3.org/2000/svg" viewBox="0 0 86.09 61.49"><defs><style>.cls-1{fill:#fff;}</style></defs><title>Asset 2</title><g id="Layer_2" data-name="Layer 2"><g id="Layer_1-2" data-name="Layer 1"><rect class="cls-1" x="20.5" width="4.1" height="4.1"/><rect class="cls-1" x="28.7" width="4.1" height="4.1"/><rect class="cls-1" x="32.79" width="4.1" height="4.1"/><rect class="cls-1" x="36.89" width="4.1" height="4.1"/><rect class="cls-1" x="40.99" width="4.1" height="4.1"/><rect class="cls-1" x="45.09" width="4.1" height="4.1"/><rect class="cls-1" x="49.19" width="4.1" height="4.1"/><rect class="cls-1" x="53.29" width="4.1" height="4.1"/><rect class="cls-1" x="57.39" width="4.1" height="4.1"/><rect class="cls-1" x="61.49" width="4.1" height="4.1"/><rect class="cls-1" x="65.59" width="4.1" height="4.1"/><rect class="cls-1" x="69.69" width="4.1" height="4.1"/><rect class="cls-1" x="73.79" width="4.1" height="4.1"/><rect class="cls-1" x="77.89" width="4.1" height="4.1"/><rect class="cls-1" x="77.89" y="4.1" width="4.1" height="4.1"/><rect class="cls-1" x="81.99" y="4.1" width="4.1" height="4.1"/><rect class="cls-1" x="81.99" y="8.2" width="4.1" height="4.1"/><rect class="cls-1" x="81.99" y="12.3" width="4.1" height="4.1"/><rect class="cls-1" x="81.99" y="16.4" width="4.1" height="4.1"/><rect class="cls-1" x="81.99" y="20.5" width="4.1" height="4.1"/><rect class="cls-1" x="81.99" y="24.6" width="4.1" height="4.1"/><rect class="cls-1" x="81.99" y="32.79" width="4.1" height="4.1"/><rect class="cls-1" x="81.99" y="36.89" width="4.1" height="4.1"/><rect class="cls-1" x="81.99" y="40.99" width="4.1" height="4.1"/><rect class="cls-1" x="81.99" y="45.09" width="4.1" height="4.1"/><rect class="cls-1" x="28.7" y="57.39" width="4.1" height="4.1"/><rect class="cls-1" x="32.79" y="57.39" width="4.1" height="4.1"/><rect class="cls-1" x="36.89" y="57.39" width="4.1" height="4.1"/><rect class="cls-1" x="40.99" y="57.39" width="4.1" height="4.1"/><rect class="cls-1" x="45.09" y="57.39" width="4.1" height="4.1"/><rect class="cls-1" y="53.29" width="4.1" height="4.1"/><rect class="cls-1" y="49.19" width="4.1" height="4.1"/><rect class="cls-1" y="45.09" width="4.1" height="4.1"/><rect class="cls-1" y="40.99" width="4.1" height="4.1"/><rect class="cls-1" y="36.89" width="4.1" height="4.1"/><rect class="cls-1" y="32.79" width="4.1" height="4.1"/><rect class="cls-1" x="4.1" y="57.39" width="4.1" height="4.1"/><rect class="cls-1" x="4.1" y="53.29" width="4.1" height="4.1"/><rect class="cls-1" x="8.2" y="57.39" width="4.1" height="4.1"/><rect class="cls-1" x="12.3" y="57.39" width="4.1" height="4.1"/><rect class="cls-1" x="16.4" y="57.39" width="4.1" height="4.1"/><rect class="cls-1" x="20.5" y="57.39" width="4.1" height="4.1"/><rect class="cls-1" x="24.6" y="57.39" width="4.1" height="4.1"/><rect class="cls-1" x="65.59" y="57.39" width="4.1" height="4.1"/><rect class="cls-1" x="69.69" y="57.39" width="4.1" height="4.1"/><rect class="cls-1" x="73.79" y="57.39" width="4.1" height="4.1"/><rect class="cls-1" x="77.89" y="57.39" width="4.1" height="4.1"/><rect class="cls-1" x="77.89" y="53.29" width="4.1" height="4.1"/><rect class="cls-1" x="81.99" y="53.29" width="4.1" height="4.1"/><rect class="cls-1" y="28.7" width="4.1" height="4.1"/><rect class="cls-1" x="4.1" width="4.1" height="4.1"/><rect class="cls-1" x="4.1" y="4.1" width="4.1" height="4.1"/><rect class="cls-1" x="8.2" width="4.1" height="4.1"/><rect class="cls-1" x="12.3" width="4.1" height="4.1"/><rect class="cls-1" x="49.19" y="57.39" width="4.1" height="4.1"/><rect class="cls-1" x="53.29" y="57.39" width="4.1" height="4.1"/><rect class="cls-1" x="57.39" y="57.39" width="4.1" height="4.1"/><rect class="cls-1" x="81.99" y="49.19" width="4.1" height="4.1"/><rect class="cls-1" x="81.99" y="28.7" width="4.1" height="4.1"/><rect class="cls-1" x="61.49" y="57.39" width="4.1" height="4.1"/><rect class="cls-1" x="24.6" width="4.1" height="4.1"/><rect class="cls-1" x="16.4" width="4.1" height="4.1"/><rect class="cls-1" y="16.4" width="4.1" height="4.1"/><rect class="cls-1" y="20.5" width="4.1" height="4.1"/><rect class="cls-1" y="24.6" width="4.1" height="4.1"/><rect class="cls-1" y="4.1" width="4.1" height="4.1"/><rect class="cls-1" y="8.2" width="4.1" height="4.1"/><rect class="cls-1" y="12.3" width="4.1" height="4.1"/><rect class="cls-1" x="37.42" y="45.09" width="4.1" height="4.1"/><rect class="cls-1" x="45.62" y="36.89" width="4.1" height="4.1"/><rect class="cls-1" x="41.52" y="36.89" width="4.1" height="4.1"/><rect class="cls-1" x="37.42" y="36.89" width="4.1" height="4.1"/><rect class="cls-1" x="49.72" y="32.79" width="4.1" height="4.1"/><rect class="cls-1" x="45.62" y="32.79" width="4.1" height="4.1"/><rect class="cls-1" x="41.52" y="32.79" width="4.1" height="4.1"/><rect class="cls-1" x="37.42" y="32.79" width="4.1" height="4.1"/><rect class="cls-1" x="53.82" y="28.7" width="4.1" height="4.1"/><rect class="cls-1" x="49.72" y="28.7" width="4.1" height="4.1"/><rect class="cls-1" x="45.62" y="28.7" width="4.1" height="4.1"/><rect class="cls-1" x="41.52" y="28.7" width="4.1" height="4.1"/><rect class="cls-1" x="49.72" y="24.6" width="4.1" height="4.1"/><rect class="cls-1" x="45.62" y="24.6" width="4.1" height="4.1"/><rect class="cls-1" x="41.52" y="24.6" width="4.1" height="4.1"/><rect class="cls-1" x="45.62" y="20.5" width="4.1" height="4.1"/><rect class="cls-1" x="41.52" y="20.5" width="4.1" height="4.1"/><rect class="cls-1" x="37.42" y="28.7" width="4.1" height="4.1"/><rect class="cls-1" x="41.52" y="16.4" width="4.1" height="4.1"/><rect class="cls-1" x="37.42" y="16.4" width="4.1" height="4.1"/><rect class="cls-1" x="37.42" y="12.3" width="4.1" height="4.1"/><rect class="cls-1" x="37.42" y="24.6" width="4.1" height="4.1"/><rect class="cls-1" x="37.42" y="20.5" width="4.1" height="4.1"/><rect class="cls-1" x="41.52" y="40.99" width="4.1" height="4.1"/><rect class="cls-1" x="37.42" y="40.99" width="4.1" height="4.1"/></g></g></svg>