<svg xmlns="http://www.w3.org/2000/svg" viewBox="0 0 86.09 61.49"><defs><style>.cls-1{fill:#fff;}</style></defs><title>video-2017</title><g id="Layer_2" data-name="Layer 2"><g id="Layer_1-2" data-name="Layer 1"><path class="cls-1" d="M82,4.1V0H4.1V4.1H0V57.39H4.1v4.1H82v-4.1h4.1V4.1Zm0,8.2v41h-4.1v4.1H8.2v-4.1H4.1V8.2H8.2V4.1H77.89V8.2H82Z"/><polygon class="cls-1" points="53.82 24.6 49.72 24.6 49.72 20.5 45.62 20.5 45.62 16.4 41.52 16.4 41.52 12.3 37.42 12.3 37.42 16.4 37.42 20.5 37.42 24.6 37.42 28.7 37.42 32.8 37.42 36.89 37.42 40.99 37.42 45.09 37.42 49.19 41.52 49.19 41.52 45.09 45.62 45.09 45.62 40.99 49.72 40.99 49.72 36.89 53.82 36.89 53.82 32.8 57.92 32.8 57.92 28.7 53.82 28.7 53.82 24.6"/></g></g></svg>