<?xml version="1.0" encoding="UTF-8" standalone="no"?>
<svg width="52px" height="40px" viewBox="0 0 52 40" version="1.1" xmlns="http://www.w3.org/2000/svg" xmlns:xlink="http://www.w3.org/1999/xlink">
    <!-- Generator: Sketch 41 (35326) - http://www.bohemiancoding.com/sketch -->
    <title>Slice 1</title>
    <desc>Created with Sketch.</desc>
    <defs>
        <linearGradient x1="66.1862448%" y1="65.4154525%" x2="17.6433107%" y2="15.9578231%" id="linearGradient-1">
            <stop stop-color="#000000" stop-opacity="0" offset="0%"></stop>
            <stop stop-color="#000000" stop-opacity="0.0553644955" offset="100%"></stop>
            <stop stop-color="#000000" stop-opacity="0.06" offset="100%"></stop>
        </linearGradient>
    </defs>
    <g id="Page-1" stroke="none" stroke-width="1" fill="none" fill-rule="evenodd">
        <g id="video">
            <rect id="Rectangle" x="0" y="0" width="50" height="37"></rect>
            <polygon id="Path-2" fill="url(#linearGradient-1)" points="29.8074156 6.35998235 33.7782593 10.330826 33.9898599 6.55270908 51.5968022 25.1680416 36.925224 39.1673819 16.3418147 17.8897909"></polygon>
            <path d="M30,10.5 L30,7 C30,6.45 29.55,6 29,6 L17,6 C16.45,6 16,6.45 16,7 L16,17 C16,17.55 16.45,18 17,18 L29,18 C29.55,18 30,17.55 30,17 L30,13.5 L34,17.5 L34,6.5 L30,10.5 Z" id="Shape" fill="#FFFFFF"></path>
        </g>
    </g>
</svg>