<svg xmlns="http://www.w3.org/2000/svg" viewBox="0 0 68.41 55.97"><defs><style>.cls-1{fill:#fff;}</style></defs><title>Asset 5</title><g id="Layer_2" data-name="Layer 2"><g id="Layer_1-2" data-name="Layer 1"><rect class="cls-1" x="15.55" y="6.22" width="3.11" height="3.11" transform="translate(34.2 15.55) rotate(180)"/><rect class="cls-1" x="31.09" y="3.11" width="3.11" height="3.11" transform="translate(65.3 9.33) rotate(180)"/><rect class="cls-1" x="27.98" y="3.11" width="3.11" height="3.11" transform="translate(59.08 9.33) rotate(180)"/><rect class="cls-1" x="24.88" y="3.11" width="3.11" height="3.11" transform="translate(52.86 9.33) rotate(180)"/><rect class="cls-1" x="21.77" y="3.11" width="3.11" height="3.11" transform="translate(46.64 9.33) rotate(180)"/><rect class="cls-1" x="31.09" width="3.11" height="3.11" transform="translate(65.3 3.11) rotate(180)"/><rect class="cls-1" x="27.98" width="3.11" height="3.11" transform="translate(59.08 3.11) rotate(180)"/><rect class="cls-1" x="24.88" width="3.11" height="3.11" transform="translate(52.86 3.11) rotate(180)"/><rect class="cls-1" x="21.77" width="3.11" height="3.11" transform="translate(46.64 3.11) rotate(180)"/><rect class="cls-1" x="18.66" y="3.11" width="3.11" height="3.11" transform="translate(40.42 9.33) rotate(180)"/><rect class="cls-1" x="15.55" y="3.11" width="3.11" height="3.11" transform="translate(34.2 9.33) rotate(180)"/><rect class="cls-1" x="12.44" y="6.22" width="3.11" height="3.11" transform="translate(27.98 15.55) rotate(180)"/><rect class="cls-1" x="9.33" y="6.22" width="3.11" height="3.11" transform="translate(21.77 15.55) rotate(180)"/><rect class="cls-1" x="12.44" y="3.11" width="3.11" height="3.11" transform="translate(27.98 9.33) rotate(180)"/><rect class="cls-1" x="15.55" width="3.11" height="3.11" transform="translate(34.2 3.11) rotate(180)"/><rect class="cls-1" x="18.66" width="3.11" height="3.11" transform="translate(40.42 3.11) rotate(180)"/><rect class="cls-1" x="31.09" y="21.77" width="3.11" height="3.11" transform="translate(65.3 46.64) rotate(180)"/><rect class="cls-1" x="27.98" y="21.77" width="3.11" height="3.11" transform="translate(59.08 46.64) rotate(180)"/><rect class="cls-1" x="24.88" y="21.77" width="3.11" height="3.11" transform="translate(52.86 46.64) rotate(180)"/><rect class="cls-1" x="21.77" y="21.77" width="3.11" height="3.11" transform="translate(46.64 46.64) rotate(180)"/><rect class="cls-1" x="18.66" y="21.77" width="3.11" height="3.11" transform="translate(40.42 46.64) rotate(180)"/><rect class="cls-1" x="15.55" y="21.77" width="3.11" height="3.11" transform="translate(34.2 46.64) rotate(180)"/><rect class="cls-1" x="31.09" y="18.66" width="3.11" height="3.11" transform="translate(65.3 40.42) rotate(180)"/><rect class="cls-1" x="27.98" y="18.66" width="3.11" height="3.11" transform="translate(59.08 40.42) rotate(180)"/><rect class="cls-1" x="24.88" y="18.66" width="3.11" height="3.11" transform="translate(52.86 40.42) rotate(180)"/><rect class="cls-1" x="21.77" y="18.66" width="3.11" height="3.11" transform="translate(46.64 40.42) rotate(180)"/><rect class="cls-1" x="18.66" y="18.66" width="3.11" height="3.11" transform="translate(40.42 40.42) rotate(180)"/><rect class="cls-1" x="15.55" y="18.66" width="3.11" height="3.11" transform="translate(34.2 40.42) rotate(180)"/><rect class="cls-1" x="12.44" y="21.77" width="3.11" height="3.11" transform="translate(27.98 46.64) rotate(180)"/><rect class="cls-1" x="3.11" y="21.77" width="3.11" height="3.11" transform="translate(9.33 46.64) rotate(180)"/><rect class="cls-1" x="6.22" y="21.77" width="3.11" height="3.11" transform="translate(15.55 46.64) rotate(180)"/><rect class="cls-1" x="9.33" y="21.77" width="3.11" height="3.11" transform="translate(21.77 46.64) rotate(180)"/><rect class="cls-1" y="21.77" width="3.11" height="3.11" transform="translate(3.11 46.64) rotate(180)"/><rect class="cls-1" x="3.11" y="18.66" width="3.11" height="3.11" transform="translate(9.33 40.42) rotate(180)"/><rect class="cls-1" x="6.22" y="18.66" width="3.11" height="3.11" transform="translate(15.55 40.42) rotate(180)"/><rect class="cls-1" x="9.33" y="18.66" width="3.11" height="3.11" transform="translate(21.77 40.42) rotate(180)"/><rect class="cls-1" x="12.44" y="18.66" width="3.11" height="3.11" transform="translate(27.98 40.42) rotate(180)"/><rect class="cls-1" x="6.22" y="15.55" width="3.11" height="3.11" transform="translate(15.55 34.2) rotate(180)"/><rect class="cls-1" x="9.33" y="15.55" width="3.11" height="3.11" transform="translate(21.77 34.2) rotate(180)"/><rect class="cls-1" x="6.22" y="12.44" width="3.11" height="3.11" transform="translate(15.55 27.98) rotate(180)"/><rect class="cls-1" x="9.33" y="12.44" width="3.11" height="3.11" transform="translate(21.77 27.98) rotate(180)"/><rect class="cls-1" x="9.33" y="9.33" width="3.11" height="3.11" transform="translate(21.77 21.77) rotate(180)"/><rect class="cls-1" x="12.44" y="12.44" width="3.11" height="3.11" transform="translate(27.98 27.98) rotate(180)"/><rect class="cls-1" x="12.44" y="9.33" width="3.11" height="3.11" transform="translate(27.98 21.77) rotate(180)"/><rect class="cls-1" x="31.09" y="37.31" width="3.11" height="3.11" transform="translate(65.3 77.73) rotate(180)"/><rect class="cls-1" x="27.98" y="37.31" width="3.11" height="3.11" transform="translate(59.08 77.73) rotate(180)"/><rect class="cls-1" x="24.88" y="37.31" width="3.11" height="3.11" transform="translate(52.86 77.73) rotate(180)"/><rect class="cls-1" x="21.77" y="37.31" width="3.11" height="3.11" transform="translate(46.64 77.73) rotate(180)"/><rect class="cls-1" x="18.66" y="37.31" width="3.11" height="3.11" transform="translate(40.42 77.73) rotate(180)"/><rect class="cls-1" x="15.55" y="37.31" width="3.11" height="3.11" transform="translate(34.2 77.73) rotate(180)"/><rect class="cls-1" x="31.09" y="34.2" width="3.11" height="3.11" transform="translate(65.3 71.52) rotate(180)"/><rect class="cls-1" x="27.98" y="34.2" width="3.11" height="3.11" transform="translate(59.08 71.52) rotate(180)"/><rect class="cls-1" x="24.88" y="34.2" width="3.11" height="3.11" transform="translate(52.86 71.52) rotate(180)"/><rect class="cls-1" x="21.77" y="34.2" width="3.11" height="3.11" transform="translate(46.64 71.52) rotate(180)"/><rect class="cls-1" x="31.09" y="31.09" width="3.11" height="3.11" transform="translate(65.3 65.3) rotate(180)"/><rect class="cls-1" x="27.98" y="31.09" width="3.11" height="3.11" transform="translate(59.08 65.3) rotate(180)"/><rect class="cls-1" x="24.88" y="31.09" width="3.11" height="3.11" transform="translate(52.86 65.3) rotate(180)"/><rect class="cls-1" x="31.09" y="27.98" width="3.11" height="3.11" transform="translate(65.3 59.08) rotate(180)"/><rect class="cls-1" x="27.98" y="27.98" width="3.11" height="3.11" transform="translate(59.08 59.08) rotate(180)"/><rect class="cls-1" x="31.09" y="24.88" width="3.11" height="3.11" transform="translate(65.3 52.86) rotate(180)"/><rect class="cls-1" x="27.98" y="24.88" width="3.11" height="3.11" transform="translate(59.08 52.86) rotate(180)"/><rect class="cls-1" x="24.88" y="27.98" width="3.11" height="3.11" transform="translate(52.86 59.08) rotate(180)"/><rect class="cls-1" x="21.77" y="31.09" width="3.11" height="3.11" transform="translate(46.64 65.3) rotate(180)"/><rect class="cls-1" x="18.66" y="34.2" width="3.11" height="3.11" transform="translate(40.42 71.52) rotate(180)"/><rect class="cls-1" x="15.55" y="34.2" width="3.11" height="3.11" transform="translate(34.2 71.52) rotate(180)"/><rect class="cls-1" x="12.44" y="37.31" width="3.11" height="3.11" transform="translate(27.98 77.73) rotate(180)"/><rect class="cls-1" x="3.11" y="37.31" width="3.11" height="3.11" transform="translate(9.33 77.73) rotate(180)"/><rect class="cls-1" x="6.22" y="37.31" width="3.11" height="3.11" transform="translate(15.55 77.73) rotate(180)"/><rect class="cls-1" x="9.33" y="37.31" width="3.11" height="3.11" transform="translate(21.77 77.73) rotate(180)"/><rect class="cls-1" y="37.31" width="3.11" height="3.11" transform="translate(3.11 77.73) rotate(180)"/><rect class="cls-1" x="3.11" y="34.2" width="3.11" height="3.11" transform="translate(9.33 71.52) rotate(180)"/><rect class="cls-1" y="34.2" width="3.11" height="3.11" transform="translate(3.11 71.52) rotate(180)"/><rect class="cls-1" x="3.11" y="31.09" width="3.11" height="3.11" transform="translate(9.33 65.3) rotate(180)"/><rect class="cls-1" x="15.55" y="31.09" width="3.11" height="3.11" transform="translate(34.2 65.3) rotate(180)"/><rect class="cls-1" x="18.66" y="31.09" width="3.11" height="3.11" transform="translate(40.42 65.3) rotate(180)"/><rect class="cls-1" x="18.66" y="27.98" width="3.11" height="3.11" transform="translate(40.42 59.08) rotate(180)"/><rect class="cls-1" x="21.77" y="27.98" width="3.11" height="3.11" transform="translate(46.64 59.08) rotate(180)"/><rect class="cls-1" x="21.77" y="24.88" width="3.11" height="3.11" transform="translate(46.64 52.86) rotate(180)"/><rect class="cls-1" x="24.88" y="24.88" width="3.11" height="3.11" transform="translate(52.86 52.86) rotate(180)"/><rect class="cls-1" x="18.66" y="24.88" width="3.11" height="3.11" transform="translate(40.42 52.86) rotate(180)"/><rect class="cls-1" y="31.09" width="3.11" height="3.11" transform="translate(3.11 65.3) rotate(180)"/><rect class="cls-1" x="3.11" y="27.98" width="3.11" height="3.11" transform="translate(9.33 59.08) rotate(180)"/><rect class="cls-1" y="27.98" width="3.11" height="3.11" transform="translate(3.11 59.08) rotate(180)"/><rect class="cls-1" x="3.11" y="24.88" width="3.11" height="3.11" transform="translate(9.33 52.86) rotate(180)"/><rect class="cls-1" x="6.22" y="24.88" width="3.11" height="3.11" transform="translate(15.55 52.86) rotate(180)"/><rect class="cls-1" x="9.33" y="24.88" width="3.11" height="3.11" transform="translate(21.77 52.86) rotate(180)"/><rect class="cls-1" x="12.44" y="24.88" width="3.11" height="3.11" transform="translate(27.98 52.86) rotate(180)"/><rect class="cls-1" x="15.55" y="27.98" width="3.11" height="3.11" transform="translate(34.2 59.08) rotate(180)"/><rect class="cls-1" x="15.55" y="24.88" width="3.11" height="3.11" transform="translate(34.2 52.86) rotate(180)"/><rect class="cls-1" y="24.88" width="3.11" height="3.11" transform="translate(3.11 52.86) rotate(180)"/><rect class="cls-1" x="31.09" y="43.53" width="3.11" height="3.11" transform="translate(65.3 90.17) rotate(180)"/><rect class="cls-1" x="27.98" y="43.53" width="3.11" height="3.11" transform="translate(59.08 90.17) rotate(180)"/><rect class="cls-1" x="31.09" y="40.42" width="3.11" height="3.11" transform="translate(65.3 83.95) rotate(180)"/><rect class="cls-1" x="27.98" y="40.42" width="3.11" height="3.11" transform="translate(59.08 83.95) rotate(180)"/><rect class="cls-1" x="24.88" y="43.53" width="3.11" height="3.11" transform="translate(52.86 90.17) rotate(180)"/><rect class="cls-1" x="12.44" y="52.86" width="3.11" height="3.11" transform="translate(27.98 108.83) rotate(180)"/><rect class="cls-1" x="6.22" y="52.86" width="3.11" height="3.11" transform="translate(15.55 108.83) rotate(180)"/><rect class="cls-1" x="9.33" y="52.86" width="3.11" height="3.11" transform="translate(21.77 108.83) rotate(180)"/><rect class="cls-1" x="6.22" y="49.75" width="3.11" height="3.11" transform="translate(15.55 102.61) rotate(180)"/><rect class="cls-1" x="9.33" y="49.75" width="3.11" height="3.11" transform="translate(21.77 102.61) rotate(180)"/><rect class="cls-1" x="12.44" y="49.75" width="3.11" height="3.11" transform="translate(27.98 102.61) rotate(180)"/><rect class="cls-1" x="6.22" y="46.64" width="3.11" height="3.11" transform="translate(15.55 96.39) rotate(180)"/><rect class="cls-1" x="9.33" y="46.64" width="3.11" height="3.11" transform="translate(21.77 96.39) rotate(180)"/><rect class="cls-1" x="18.66" y="43.53" width="3.11" height="3.11" transform="translate(40.42 90.17) rotate(180)"/><rect class="cls-1" x="21.77" y="43.53" width="3.11" height="3.11" transform="translate(46.64 90.17) rotate(180)"/><rect class="cls-1" x="21.77" y="40.42" width="3.11" height="3.11" transform="translate(46.64 83.95) rotate(180)"/><rect class="cls-1" x="24.88" y="40.42" width="3.11" height="3.11" transform="translate(52.86 83.95) rotate(180)"/><rect class="cls-1" x="18.66" y="40.42" width="3.11" height="3.11" transform="translate(40.42 83.95) rotate(180)"/><rect class="cls-1" x="3.11" y="43.53" width="3.11" height="3.11" transform="translate(9.33 90.17) rotate(180)"/><rect class="cls-1" x="6.22" y="43.53" width="3.11" height="3.11" transform="translate(15.55 90.17) rotate(180)"/><rect class="cls-1" x="9.33" y="43.53" width="3.11" height="3.11" transform="translate(21.77 90.17) rotate(180)"/><rect class="cls-1" y="43.53" width="3.11" height="3.11" transform="translate(3.11 90.17) rotate(180)"/><rect class="cls-1" x="3.11" y="40.42" width="3.11" height="3.11" transform="translate(9.33 83.95) rotate(180)"/><rect class="cls-1" x="6.22" y="40.42" width="3.11" height="3.11" transform="translate(15.55 83.95) rotate(180)"/><rect class="cls-1" x="9.33" y="40.42" width="3.11" height="3.11" transform="translate(21.77 83.95) rotate(180)"/><rect class="cls-1" x="12.44" y="46.64" width="3.11" height="3.11" transform="translate(27.98 96.39) rotate(180)"/><rect class="cls-1" x="12.44" y="43.53" width="3.11" height="3.11" transform="translate(27.98 90.17) rotate(180)"/><rect class="cls-1" x="12.44" y="40.42" width="3.11" height="3.11" transform="translate(27.98 83.95) rotate(180)"/><rect class="cls-1" x="15.55" y="43.53" width="3.11" height="3.11" transform="translate(34.2 90.17) rotate(180)"/><rect class="cls-1" x="15.55" y="40.42" width="3.11" height="3.11" transform="translate(34.2 83.95) rotate(180)"/><rect class="cls-1" y="40.42" width="3.11" height="3.11" transform="translate(3.11 83.95) rotate(180)"/><rect class="cls-1" x="55.97" y="6.22" width="3.11" height="3.11" transform="translate(115.05 15.55) rotate(180)"/><rect class="cls-1" x="52.86" y="6.22" width="3.11" height="3.11" transform="translate(108.83 15.55) rotate(180)"/><rect class="cls-1" x="49.75" y="6.22" width="3.11" height="3.11" transform="translate(102.61 15.55) rotate(180)"/><rect class="cls-1" x="52.86" y="3.11" width="3.11" height="3.11" transform="translate(108.83 9.33) rotate(180)"/><rect class="cls-1" x="49.75" y="3.11" width="3.11" height="3.11" transform="translate(102.61 9.33) rotate(180)"/><rect class="cls-1" x="37.31" y="3.11" width="3.11" height="3.11" transform="translate(77.73 9.33) rotate(180)"/><rect class="cls-1" x="40.42" y="3.11" width="3.11" height="3.11" transform="translate(83.95 9.33) rotate(180)"/><rect class="cls-1" x="43.53" y="3.11" width="3.11" height="3.11" transform="translate(90.17 9.33) rotate(180)"/><rect class="cls-1" x="46.64" y="3.11" width="3.11" height="3.11" transform="translate(96.39 9.33) rotate(180)"/><rect class="cls-1" x="34.2" y="3.11" width="3.11" height="3.11" transform="translate(71.52 9.33) rotate(180)"/><rect class="cls-1" x="37.31" width="3.11" height="3.11" transform="translate(77.73 3.11) rotate(180)"/><rect class="cls-1" x="40.42" width="3.11" height="3.11" transform="translate(83.95 3.11) rotate(180)"/><rect class="cls-1" x="43.53" width="3.11" height="3.11" transform="translate(90.17 3.11) rotate(180)"/><rect class="cls-1" x="49.75" width="3.11" height="3.11" transform="translate(102.61 3.11) rotate(180)"/><rect class="cls-1" x="34.2" width="3.11" height="3.11" transform="translate(71.52 3.11) rotate(180)"/><rect class="cls-1" x="46.64" width="3.11" height="3.11" transform="translate(96.39 3.11) rotate(180)"/><rect class="cls-1" x="65.3" y="21.77" width="3.11" height="3.11" transform="translate(133.7 46.64) rotate(180)"/><rect class="cls-1" x="62.19" y="21.77" width="3.11" height="3.11" transform="translate(127.48 46.64) rotate(180)"/><rect class="cls-1" x="59.08" y="21.77" width="3.11" height="3.11" transform="translate(121.27 46.64) rotate(180)"/><rect class="cls-1" x="55.97" y="21.77" width="3.11" height="3.11" transform="translate(115.05 46.64) rotate(180)"/><rect class="cls-1" x="52.86" y="21.77" width="3.11" height="3.11" transform="translate(108.83 46.64) rotate(180)"/><rect class="cls-1" x="49.75" y="21.77" width="3.11" height="3.11" transform="translate(102.61 46.64) rotate(180)"/><rect class="cls-1" x="62.19" y="18.66" width="3.11" height="3.11" transform="translate(127.48 40.42) rotate(180)"/><rect class="cls-1" x="59.08" y="18.66" width="3.11" height="3.11" transform="translate(121.27 40.42) rotate(180)"/><rect class="cls-1" x="55.97" y="18.66" width="3.11" height="3.11" transform="translate(115.05 40.42) rotate(180)"/><rect class="cls-1" x="59.08" y="15.55" width="3.11" height="3.11" transform="translate(121.27 34.2) rotate(180)"/><rect class="cls-1" x="59.08" y="12.44" width="3.11" height="3.11" transform="translate(121.27 27.98) rotate(180)"/><rect class="cls-1" x="55.97" y="15.55" width="3.11" height="3.11" transform="translate(115.05 34.2) rotate(180)"/><rect class="cls-1" x="52.86" y="18.66" width="3.11" height="3.11" transform="translate(108.83 40.42) rotate(180)"/><rect class="cls-1" x="49.75" y="18.66" width="3.11" height="3.11" transform="translate(102.61 40.42) rotate(180)"/><rect class="cls-1" x="46.64" y="21.77" width="3.11" height="3.11" transform="translate(96.39 46.64) rotate(180)"/><rect class="cls-1" x="37.31" y="21.77" width="3.11" height="3.11" transform="translate(77.73 46.64) rotate(180)"/><rect class="cls-1" x="40.42" y="21.77" width="3.11" height="3.11" transform="translate(83.95 46.64) rotate(180)"/><rect class="cls-1" x="43.53" y="21.77" width="3.11" height="3.11" transform="translate(90.17 46.64) rotate(180)"/><rect class="cls-1" x="34.2" y="21.77" width="3.11" height="3.11" transform="translate(71.52 46.64) rotate(180)"/><rect class="cls-1" x="37.31" y="18.66" width="3.11" height="3.11" transform="translate(77.73 40.42) rotate(180)"/><rect class="cls-1" x="40.42" y="18.66" width="3.11" height="3.11" transform="translate(83.95 40.42) rotate(180)"/><rect class="cls-1" x="43.53" y="18.66" width="3.11" height="3.11" transform="translate(90.17 40.42) rotate(180)"/><rect class="cls-1" x="46.64" y="18.66" width="3.11" height="3.11" transform="translate(96.39 40.42) rotate(180)"/><rect class="cls-1" x="34.2" y="18.66" width="3.11" height="3.11" transform="translate(71.52 40.42) rotate(180)"/><rect class="cls-1" x="52.86" y="12.44" width="3.11" height="3.11" transform="translate(108.83 27.98) rotate(180)"/><rect class="cls-1" x="55.97" y="12.44" width="3.11" height="3.11" transform="translate(115.05 27.98) rotate(180)"/><rect class="cls-1" x="55.97" y="9.33" width="3.11" height="3.11" transform="translate(115.05 21.77) rotate(180)"/><rect class="cls-1" x="52.86" y="9.33" width="3.11" height="3.11" transform="translate(108.83 21.77) rotate(180)"/><rect class="cls-1" x="65.3" y="37.31" width="3.11" height="3.11" transform="translate(133.7 77.73) rotate(180)"/><rect class="cls-1" x="62.19" y="37.31" width="3.11" height="3.11" transform="translate(127.48 77.73) rotate(180)"/><rect class="cls-1" x="59.08" y="37.31" width="3.11" height="3.11" transform="translate(121.27 77.73) rotate(180)"/><rect class="cls-1" x="55.97" y="37.31" width="3.11" height="3.11" transform="translate(115.05 77.73) rotate(180)"/><rect class="cls-1" x="52.86" y="37.31" width="3.11" height="3.11" transform="translate(108.83 77.73) rotate(180)"/><rect class="cls-1" x="49.75" y="37.31" width="3.11" height="3.11" transform="translate(102.61 77.73) rotate(180)"/><rect class="cls-1" x="65.3" y="34.2" width="3.11" height="3.11" transform="translate(133.7 71.52) rotate(180)"/><rect class="cls-1" x="62.19" y="34.2" width="3.11" height="3.11" transform="translate(127.48 71.52) rotate(180)"/><rect class="cls-1" x="65.3" y="31.09" width="3.11" height="3.11" transform="translate(133.7 65.3) rotate(180)"/><rect class="cls-1" x="62.19" y="31.09" width="3.11" height="3.11" transform="translate(127.48 65.3) rotate(180)"/><rect class="cls-1" x="65.3" y="27.98" width="3.11" height="3.11" transform="translate(133.7 59.08) rotate(180)"/><rect class="cls-1" x="62.19" y="27.98" width="3.11" height="3.11" transform="translate(127.48 59.08) rotate(180)"/><rect class="cls-1" x="65.3" y="24.88" width="3.11" height="3.11" transform="translate(133.7 52.86) rotate(180)"/><rect class="cls-1" x="62.19" y="24.88" width="3.11" height="3.11" transform="translate(127.48 52.86) rotate(180)"/><rect class="cls-1" x="49.75" y="34.2" width="3.11" height="3.11" transform="translate(102.61 71.52) rotate(180)"/><rect class="cls-1" x="46.64" y="37.31" width="3.11" height="3.11" transform="translate(96.39 77.73) rotate(180)"/><rect class="cls-1" x="37.31" y="37.31" width="3.11" height="3.11" transform="translate(77.73 77.73) rotate(180)"/><rect class="cls-1" x="40.42" y="37.31" width="3.11" height="3.11" transform="translate(83.95 77.73) rotate(180)"/><rect class="cls-1" x="43.53" y="37.31" width="3.11" height="3.11" transform="translate(90.17 77.73) rotate(180)"/><rect class="cls-1" x="34.2" y="37.31" width="3.11" height="3.11" transform="translate(71.52 77.73) rotate(180)"/><rect class="cls-1" x="37.31" y="34.2" width="3.11" height="3.11" transform="translate(77.73 71.52) rotate(180)"/><rect class="cls-1" x="40.42" y="34.2" width="3.11" height="3.11" transform="translate(83.95 71.52) rotate(180)"/><rect class="cls-1" x="43.53" y="34.2" width="3.11" height="3.11" transform="translate(90.17 71.52) rotate(180)"/><rect class="cls-1" x="46.64" y="34.2" width="3.11" height="3.11" transform="translate(96.39 71.52) rotate(180)"/><rect class="cls-1" x="34.2" y="34.2" width="3.11" height="3.11" transform="translate(71.52 71.52) rotate(180)"/><rect class="cls-1" x="37.31" y="31.09" width="3.11" height="3.11" transform="translate(77.73 65.3) rotate(180)"/><rect class="cls-1" x="40.42" y="31.09" width="3.11" height="3.11" transform="translate(83.95 65.3) rotate(180)"/><rect class="cls-1" x="43.53" y="31.09" width="3.11" height="3.11" transform="translate(90.17 65.3) rotate(180)"/><rect class="cls-1" x="49.75" y="31.09" width="3.11" height="3.11" transform="translate(102.61 65.3) rotate(180)"/><rect class="cls-1" x="55.97" y="24.88" width="3.11" height="3.11" transform="translate(115.05 52.86) rotate(180)"/><rect class="cls-1" x="59.08" y="24.88" width="3.11" height="3.11" transform="translate(121.27 52.86) rotate(180)"/><rect class="cls-1" x="52.86" y="24.88" width="3.11" height="3.11" transform="translate(108.83 52.86) rotate(180)"/><rect class="cls-1" x="34.2" y="31.09" width="3.11" height="3.11" transform="translate(71.52 65.3) rotate(180)"/><rect class="cls-1" x="37.31" y="27.98" width="3.11" height="3.11" transform="translate(77.73 59.08) rotate(180)"/><rect class="cls-1" x="40.42" y="27.98" width="3.11" height="3.11" transform="translate(83.95 59.08) rotate(180)"/><rect class="cls-1" x="43.53" y="27.98" width="3.11" height="3.11" transform="translate(90.17 59.08) rotate(180)"/><rect class="cls-1" x="34.2" y="27.98" width="3.11" height="3.11" transform="translate(71.52 59.08) rotate(180)"/><rect class="cls-1" x="37.31" y="24.88" width="3.11" height="3.11" transform="translate(77.73 52.86) rotate(180)"/><rect class="cls-1" x="40.42" y="24.88" width="3.11" height="3.11" transform="translate(83.95 52.86) rotate(180)"/><rect class="cls-1" x="43.53" y="24.88" width="3.11" height="3.11" transform="translate(90.17 52.86) rotate(180)"/><rect class="cls-1" x="46.64" y="31.09" width="3.11" height="3.11" transform="translate(96.39 65.3) rotate(180)"/><rect class="cls-1" x="46.64" y="27.98" width="3.11" height="3.11" transform="translate(96.39 59.08) rotate(180)"/><rect class="cls-1" x="46.64" y="24.88" width="3.11" height="3.11" transform="translate(96.39 52.86) rotate(180)"/><rect class="cls-1" x="49.75" y="27.98" width="3.11" height="3.11" transform="translate(102.61 59.08) rotate(180)"/><rect class="cls-1" x="49.75" y="24.88" width="3.11" height="3.11" transform="translate(102.61 52.86) rotate(180)"/><rect class="cls-1" x="34.2" y="24.88" width="3.11" height="3.11" transform="translate(71.52 52.86) rotate(180)"/><rect class="cls-1" x="59.08" y="52.86" width="3.11" height="3.11" transform="translate(121.27 108.83) rotate(180)"/><rect class="cls-1" x="55.97" y="52.86" width="3.11" height="3.11" transform="translate(115.05 108.83) rotate(180)"/><rect class="cls-1" x="52.86" y="52.86" width="3.11" height="3.11" transform="translate(108.83 108.83) rotate(180)"/><rect class="cls-1" x="59.08" y="49.75" width="3.11" height="3.11" transform="translate(121.27 102.61) rotate(180)"/><rect class="cls-1" x="55.97" y="49.75" width="3.11" height="3.11" transform="translate(115.05 102.61) rotate(180)"/><rect class="cls-1" x="59.08" y="46.64" width="3.11" height="3.11" transform="translate(121.27 96.39) rotate(180)"/><rect class="cls-1" x="65.3" y="43.53" width="3.11" height="3.11" transform="translate(133.7 90.17) rotate(180)"/><rect class="cls-1" x="62.19" y="43.53" width="3.11" height="3.11" transform="translate(127.48 90.17) rotate(180)"/><rect class="cls-1" x="65.3" y="40.42" width="3.11" height="3.11" transform="translate(133.7 83.95) rotate(180)"/><rect class="cls-1" x="62.19" y="40.42" width="3.11" height="3.11" transform="translate(127.48 83.95) rotate(180)"/><rect class="cls-1" x="59.08" y="43.53" width="3.11" height="3.11" transform="translate(121.27 90.17) rotate(180)"/><rect class="cls-1" x="55.97" y="46.64" width="3.11" height="3.11" transform="translate(115.05 96.39) rotate(180)"/><rect class="cls-1" x="52.86" y="49.75" width="3.11" height="3.11" transform="translate(108.83 102.61) rotate(180)"/><rect class="cls-1" x="52.86" y="46.64" width="3.11" height="3.11" transform="translate(108.83 96.39) rotate(180)"/><rect class="cls-1" x="52.86" y="43.53" width="3.11" height="3.11" transform="translate(108.83 90.17) rotate(180)"/><rect class="cls-1" x="55.97" y="43.53" width="3.11" height="3.11" transform="translate(115.05 90.17) rotate(180)"/><rect class="cls-1" x="55.97" y="40.42" width="3.11" height="3.11" transform="translate(115.05 83.95) rotate(180)"/><rect class="cls-1" x="59.08" y="40.42" width="3.11" height="3.11" transform="translate(121.27 83.95) rotate(180)"/><rect class="cls-1" x="52.86" y="40.42" width="3.11" height="3.11" transform="translate(108.83 83.95) rotate(180)"/><rect class="cls-1" x="37.31" y="43.53" width="3.11" height="3.11" transform="translate(77.73 90.17) rotate(180)"/><rect class="cls-1" x="40.42" y="43.53" width="3.11" height="3.11" transform="translate(83.95 90.17) rotate(180)"/><rect class="cls-1" x="43.53" y="43.53" width="3.11" height="3.11" transform="translate(90.17 90.17) rotate(180)"/><rect class="cls-1" x="34.2" y="43.53" width="3.11" height="3.11" transform="translate(71.52 90.17) rotate(180)"/><rect class="cls-1" x="37.31" y="40.42" width="3.11" height="3.11" transform="translate(77.73 83.95) rotate(180)"/><rect class="cls-1" x="40.42" y="40.42" width="3.11" height="3.11" transform="translate(83.95 83.95) rotate(180)"/><rect class="cls-1" x="43.53" y="40.42" width="3.11" height="3.11" transform="translate(90.17 83.95) rotate(180)"/><rect class="cls-1" x="46.64" y="43.53" width="3.11" height="3.11" transform="translate(96.39 90.17) rotate(180)"/><rect class="cls-1" x="46.64" y="40.42" width="3.11" height="3.11" transform="translate(96.39 83.95) rotate(180)"/><rect class="cls-1" x="49.75" y="43.53" width="3.11" height="3.11" transform="translate(102.61 90.17) rotate(180)"/><rect class="cls-1" x="49.75" y="40.42" width="3.11" height="3.11" transform="translate(102.61 83.95) rotate(180)"/><rect class="cls-1" x="34.2" y="40.42" width="3.11" height="3.11" transform="translate(71.52 83.95) rotate(180)"/></g></g></svg>