<svg xmlns="http://www.w3.org/2000/svg" viewBox="0 0 67.96 67.96"><defs><style>.cls-1{fill:#fff;}</style></defs><title>Asset 7</title><g id="Layer_2" data-name="Layer 2"><g id="Layer_1-2" data-name="Layer 1"><rect class="cls-1" x="21.62" y="12.36" width="3.09" height="3.09" transform="translate(46.34 27.8) rotate(180)"/><rect class="cls-1" x="18.54" y="12.36" width="3.09" height="3.09" transform="translate(40.16 27.8) rotate(180)"/><rect class="cls-1" x="15.45" y="12.36" width="3.09" height="3.09" transform="translate(33.98 27.8) rotate(180)"/><rect class="cls-1" x="18.54" y="9.27" width="3.09" height="3.09" transform="translate(40.16 21.62) rotate(180)"/><rect class="cls-1" x="15.45" y="9.27" width="3.09" height="3.09" transform="translate(33.98 21.62) rotate(180)"/><rect class="cls-1" x="12.36" y="12.36" width="3.09" height="3.09" transform="translate(27.8 27.8) rotate(180)"/><rect class="cls-1" x="3.09" y="12.36" width="3.09" height="3.09" transform="translate(9.27 27.8) rotate(180)"/><rect class="cls-1" x="6.18" y="12.36" width="3.09" height="3.09" transform="translate(15.45 27.8) rotate(180)"/><rect class="cls-1" x="9.27" y="12.36" width="3.09" height="3.09" transform="translate(21.62 27.8) rotate(180)"/><rect class="cls-1" x="3.09" y="9.27" width="3.09" height="3.09" transform="translate(9.27 21.62) rotate(180)"/><rect class="cls-1" x="6.18" y="9.27" width="3.09" height="3.09" transform="translate(15.45 21.62) rotate(180)"/><rect class="cls-1" x="9.27" y="9.27" width="3.09" height="3.09" transform="translate(21.62 21.62) rotate(180)"/><rect class="cls-1" x="12.36" y="9.27" width="3.09" height="3.09" transform="translate(27.8 21.62) rotate(180)"/><rect class="cls-1" y="9.27" width="3.09" height="3.09" transform="translate(3.09 21.62) rotate(180)"/><rect class="cls-1" x="3.09" y="6.18" width="3.09" height="3.09" transform="translate(9.27 15.45) rotate(180)"/><rect class="cls-1" x="6.18" y="6.18" width="3.09" height="3.09" transform="translate(15.45 15.45) rotate(180)"/><rect class="cls-1" x="9.27" y="6.18" width="3.09" height="3.09" transform="translate(21.62 15.45) rotate(180)"/><rect class="cls-1" x="15.45" y="6.18" width="3.09" height="3.09" transform="translate(33.98 15.45) rotate(180)"/><rect class="cls-1" y="6.18" width="3.09" height="3.09" transform="translate(3.09 15.45) rotate(180)"/><rect class="cls-1" x="3.09" y="3.09" width="3.09" height="3.09" transform="translate(9.27 9.27) rotate(180)"/><rect class="cls-1" x="6.18" y="3.09" width="3.09" height="3.09" transform="translate(15.45 9.27) rotate(180)"/><rect class="cls-1" x="9.27" y="3.09" width="3.09" height="3.09" transform="translate(21.62 9.27) rotate(180)"/><rect class="cls-1" y="3.09" width="3.09" height="3.09" transform="translate(3.09 9.27) rotate(180)"/><rect class="cls-1" x="3.09" width="3.09" height="3.09" transform="translate(9.27 3.09) rotate(180)"/><rect class="cls-1" x="6.18" width="3.09" height="3.09" transform="translate(15.45 3.09) rotate(180)"/><rect class="cls-1" x="9.27" width="3.09" height="3.09" transform="translate(21.62 3.09) rotate(180)"/><rect class="cls-1" x="12.36" y="6.18" width="3.09" height="3.09" transform="translate(27.8 15.45) rotate(180)"/><rect class="cls-1" x="12.36" y="3.09" width="3.09" height="3.09" transform="translate(27.8 9.27) rotate(180)"/><rect class="cls-1" x="30.89" y="27.8" width="3.09" height="3.09" transform="translate(64.87 58.69) rotate(180)"/><rect class="cls-1" x="27.8" y="27.8" width="3.09" height="3.09" transform="translate(58.69 58.69) rotate(180)"/><rect class="cls-1" x="24.71" y="27.8" width="3.09" height="3.09" transform="translate(52.52 58.69) rotate(180)"/><rect class="cls-1" x="21.62" y="27.8" width="3.09" height="3.09" transform="translate(46.34 58.69) rotate(180)"/><rect class="cls-1" x="18.54" y="27.8" width="3.09" height="3.09" transform="translate(40.16 58.69) rotate(180)"/><rect class="cls-1" x="15.45" y="27.8" width="3.09" height="3.09" transform="translate(33.98 58.69) rotate(180)"/><rect class="cls-1" x="30.89" y="24.71" width="3.09" height="3.09" transform="translate(64.87 52.52) rotate(180)"/><rect class="cls-1" x="27.8" y="24.71" width="3.09" height="3.09" transform="translate(58.69 52.52) rotate(180)"/><rect class="cls-1" x="24.71" y="24.71" width="3.09" height="3.09" transform="translate(52.52 52.52) rotate(180)"/><rect class="cls-1" x="21.62" y="24.71" width="3.09" height="3.09" transform="translate(46.34 52.52) rotate(180)"/><rect class="cls-1" x="30.89" y="21.62" width="3.09" height="3.09" transform="translate(64.87 46.34) rotate(180)"/><rect class="cls-1" x="27.8" y="21.62" width="3.09" height="3.09" transform="translate(58.69 46.34) rotate(180)"/><rect class="cls-1" x="24.71" y="21.62" width="3.09" height="3.09" transform="translate(52.52 46.34) rotate(180)"/><rect class="cls-1" x="30.89" y="18.54" width="3.09" height="3.09" transform="translate(64.87 40.16) rotate(180)"/><rect class="cls-1" x="27.8" y="18.54" width="3.09" height="3.09" transform="translate(58.69 40.16) rotate(180)"/><rect class="cls-1" x="30.89" y="15.45" width="3.09" height="3.09" transform="translate(64.87 33.98) rotate(180)"/><rect class="cls-1" x="27.8" y="15.45" width="3.09" height="3.09" transform="translate(58.69 33.98) rotate(180)"/><rect class="cls-1" x="24.71" y="18.54" width="3.09" height="3.09" transform="translate(52.52 40.16) rotate(180)"/><rect class="cls-1" x="21.62" y="21.62" width="3.09" height="3.09" transform="translate(46.34 46.34) rotate(180)"/><rect class="cls-1" x="18.54" y="24.71" width="3.09" height="3.09" transform="translate(40.16 52.52) rotate(180)"/><rect class="cls-1" x="15.45" y="24.71" width="3.09" height="3.09" transform="translate(33.98 52.52) rotate(180)"/><rect class="cls-1" x="15.45" y="21.62" width="3.09" height="3.09" transform="translate(33.98 46.34) rotate(180)"/><rect class="cls-1" x="18.54" y="21.62" width="3.09" height="3.09" transform="translate(40.16 46.34) rotate(180)"/><rect class="cls-1" x="18.54" y="18.54" width="3.09" height="3.09" transform="translate(40.16 40.16) rotate(180)"/><rect class="cls-1" x="21.62" y="18.54" width="3.09" height="3.09" transform="translate(46.34 40.16) rotate(180)"/><rect class="cls-1" x="21.62" y="15.45" width="3.09" height="3.09" transform="translate(46.34 33.98) rotate(180)"/><rect class="cls-1" x="24.71" y="15.45" width="3.09" height="3.09" transform="translate(52.52 33.98) rotate(180)"/><rect class="cls-1" x="18.54" y="15.45" width="3.09" height="3.09" transform="translate(40.16 33.98) rotate(180)"/><rect class="cls-1" x="9.27" y="18.54" width="3.09" height="3.09" transform="translate(21.62 40.16) rotate(180)"/><rect class="cls-1" x="6.18" y="15.45" width="3.09" height="3.09" transform="translate(15.45 33.98) rotate(180)"/><rect class="cls-1" x="9.27" y="15.45" width="3.09" height="3.09" transform="translate(21.62 33.98) rotate(180)"/><rect class="cls-1" x="12.36" y="21.62" width="3.09" height="3.09" transform="translate(27.8 46.34) rotate(180)"/><rect class="cls-1" x="12.36" y="18.54" width="3.09" height="3.09" transform="translate(27.8 40.16) rotate(180)"/><rect class="cls-1" x="12.36" y="15.45" width="3.09" height="3.09" transform="translate(27.8 33.98) rotate(180)"/><rect class="cls-1" x="15.45" y="18.54" width="3.09" height="3.09" transform="translate(33.98 40.16) rotate(180)"/><rect class="cls-1" x="15.45" y="15.45" width="3.09" height="3.09" transform="translate(33.98 33.98) rotate(180)"/><rect class="cls-1" x="27.8" y="43.25" width="3.09" height="3.09" transform="translate(58.69 89.59) rotate(180)"/><rect class="cls-1" x="24.71" y="43.25" width="3.09" height="3.09" transform="translate(52.52 89.59) rotate(180)"/><rect class="cls-1" x="21.62" y="43.25" width="3.09" height="3.09" transform="translate(46.34 89.59) rotate(180)"/><rect class="cls-1" x="18.54" y="43.25" width="3.09" height="3.09" transform="translate(40.16 89.59) rotate(180)"/><rect class="cls-1" x="15.45" y="43.25" width="3.09" height="3.09" transform="translate(33.98 89.59) rotate(180)"/><rect class="cls-1" x="30.89" y="40.16" width="3.09" height="3.09" transform="translate(64.87 83.41) rotate(180)"/><rect class="cls-1" x="27.8" y="40.16" width="3.09" height="3.09" transform="translate(58.69 83.41) rotate(180)"/><rect class="cls-1" x="24.71" y="40.16" width="3.09" height="3.09" transform="translate(52.52 83.41) rotate(180)"/><rect class="cls-1" x="21.62" y="40.16" width="3.09" height="3.09" transform="translate(46.34 83.41) rotate(180)"/><rect class="cls-1" x="30.89" y="37.07" width="3.09" height="3.09" transform="translate(64.87 77.23) rotate(180)"/><rect class="cls-1" x="27.8" y="37.07" width="3.09" height="3.09" transform="translate(58.69 77.23) rotate(180)"/><rect class="cls-1" x="24.71" y="37.07" width="3.09" height="3.09" transform="translate(52.52 77.23) rotate(180)"/><rect class="cls-1" x="30.89" y="33.98" width="3.09" height="3.09" transform="translate(64.87 71.05) rotate(180)"/><rect class="cls-1" x="27.8" y="33.98" width="3.09" height="3.09" transform="translate(58.69 71.05) rotate(180)"/><rect class="cls-1" x="30.89" y="30.89" width="3.09" height="3.09" transform="translate(64.87 64.87) rotate(180)"/><rect class="cls-1" x="27.8" y="30.89" width="3.09" height="3.09" transform="translate(58.69 64.87) rotate(180)"/><rect class="cls-1" x="24.71" y="33.98" width="3.09" height="3.09" transform="translate(52.52 71.05) rotate(180)"/><rect class="cls-1" x="21.62" y="37.07" width="3.09" height="3.09" transform="translate(46.34 77.23) rotate(180)"/><rect class="cls-1" x="18.54" y="40.16" width="3.09" height="3.09" transform="translate(40.16 83.41) rotate(180)"/><rect class="cls-1" x="15.45" y="40.16" width="3.09" height="3.09" transform="translate(33.98 83.41) rotate(180)"/><rect class="cls-1" x="15.45" y="37.07" width="3.09" height="3.09" transform="translate(33.98 77.23) rotate(180)"/><rect class="cls-1" x="18.54" y="37.07" width="3.09" height="3.09" transform="translate(40.16 77.23) rotate(180)"/><rect class="cls-1" x="18.54" y="33.98" width="3.09" height="3.09" transform="translate(40.16 71.05) rotate(180)"/><rect class="cls-1" x="21.62" y="33.98" width="3.09" height="3.09" transform="translate(46.34 71.05) rotate(180)"/><rect class="cls-1" x="21.62" y="30.89" width="3.09" height="3.09" transform="translate(46.34 64.87) rotate(180)"/><rect class="cls-1" x="24.71" y="30.89" width="3.09" height="3.09" transform="translate(52.52 64.87) rotate(180)"/><rect class="cls-1" x="18.54" y="30.89" width="3.09" height="3.09" transform="translate(40.16 64.87) rotate(180)"/><rect class="cls-1" x="15.45" y="33.98" width="3.09" height="3.09" transform="translate(33.98 71.05) rotate(180)"/><rect class="cls-1" x="15.45" y="30.89" width="3.09" height="3.09" transform="translate(33.98 64.87) rotate(180)"/><rect class="cls-1" x="18.54" y="58.69" width="3.09" height="3.09" transform="translate(40.16 120.48) rotate(180)"/><rect class="cls-1" x="15.45" y="58.69" width="3.09" height="3.09" transform="translate(33.98 120.48) rotate(180)"/><rect class="cls-1" x="21.62" y="55.61" width="3.09" height="3.09" transform="translate(46.34 114.3) rotate(180)"/><rect class="cls-1" x="24.71" y="49.43" width="3.09" height="3.09" transform="translate(52.52 101.94) rotate(180)"/><rect class="cls-1" x="21.62" y="52.52" width="3.09" height="3.09" transform="translate(46.34 108.12) rotate(180)"/><rect class="cls-1" x="18.54" y="55.61" width="3.09" height="3.09" transform="translate(40.16 114.3) rotate(180)"/><rect class="cls-1" x="15.45" y="55.61" width="3.09" height="3.09" transform="translate(33.98 114.3) rotate(180)"/><rect class="cls-1" x="12.36" y="58.69" width="3.09" height="3.09" transform="translate(27.8 120.48) rotate(180)"/><rect class="cls-1" x="12.36" y="55.61" width="3.09" height="3.09" transform="translate(27.8 114.3) rotate(180)"/><rect class="cls-1" x="15.45" y="52.52" width="3.09" height="3.09" transform="translate(33.98 108.12) rotate(180)"/><rect class="cls-1" x="18.54" y="52.52" width="3.09" height="3.09" transform="translate(40.16 108.12) rotate(180)"/><rect class="cls-1" x="18.54" y="49.43" width="3.09" height="3.09" transform="translate(40.16 101.94) rotate(180)"/><rect class="cls-1" x="21.62" y="49.43" width="3.09" height="3.09" transform="translate(46.34 101.94) rotate(180)"/><rect class="cls-1" x="21.62" y="46.34" width="3.09" height="3.09" transform="translate(46.34 95.77) rotate(180)"/><rect class="cls-1" x="24.71" y="46.34" width="3.09" height="3.09" transform="translate(52.52 95.77) rotate(180)"/><rect class="cls-1" x="18.54" y="46.34" width="3.09" height="3.09" transform="translate(40.16 95.77) rotate(180)"/><rect class="cls-1" x="12.36" y="52.52" width="3.09" height="3.09" transform="translate(27.8 108.12) rotate(180)"/><rect class="cls-1" x="12.36" y="49.43" width="3.09" height="3.09" transform="translate(27.8 101.94) rotate(180)"/><rect class="cls-1" x="12.36" y="46.34" width="3.09" height="3.09" transform="translate(27.8 95.77) rotate(180)"/><rect class="cls-1" x="15.45" y="49.43" width="3.09" height="3.09" transform="translate(33.98 101.94) rotate(180)"/><rect class="cls-1" x="15.45" y="46.34" width="3.09" height="3.09" transform="translate(33.98 95.77) rotate(180)"/><rect class="cls-1" x="15.45" y="61.78" width="3.09" height="3.09" transform="translate(33.98 126.66) rotate(180)"/><rect class="cls-1" x="58.69" y="12.36" width="3.09" height="3.09" transform="translate(120.48 27.8) rotate(180)"/><rect class="cls-1" x="55.61" y="12.36" width="3.09" height="3.09" transform="translate(114.3 27.8) rotate(180)"/><rect class="cls-1" x="52.52" y="12.36" width="3.09" height="3.09" transform="translate(108.12 27.8) rotate(180)"/><rect class="cls-1" x="49.43" y="12.36" width="3.09" height="3.09" transform="translate(101.94 27.8) rotate(180)"/><rect class="cls-1" x="46.34" y="12.36" width="3.09" height="3.09" transform="translate(95.77 27.8) rotate(180)"/><rect class="cls-1" x="61.78" y="18.54" width="3.09" height="3.09" transform="translate(126.66 40.16) rotate(180)"/><rect class="cls-1" x="61.78" y="15.45" width="3.09" height="3.09" transform="translate(126.66 33.98) rotate(180)"/><rect class="cls-1" x="58.69" y="18.54" width="3.09" height="3.09" transform="translate(120.48 40.16) rotate(180)"/><rect class="cls-1" x="55.61" y="21.62" width="3.09" height="3.09" transform="translate(114.3 46.34) rotate(180)"/><rect class="cls-1" x="49.43" y="24.71" width="3.09" height="3.09" transform="translate(101.94 52.52) rotate(180)"/><rect class="cls-1" x="37.07" y="27.8" width="3.09" height="3.09" transform="translate(77.23 58.69) rotate(180)"/><rect class="cls-1" x="40.16" y="27.8" width="3.09" height="3.09" transform="translate(83.41 58.69) rotate(180)"/><rect class="cls-1" x="43.25" y="27.8" width="3.09" height="3.09" transform="translate(89.59 58.69) rotate(180)"/><rect class="cls-1" x="33.98" y="27.8" width="3.09" height="3.09" transform="translate(71.05 58.69) rotate(180)"/><rect class="cls-1" x="37.07" y="24.71" width="3.09" height="3.09" transform="translate(77.23 52.52) rotate(180)"/><rect class="cls-1" x="40.16" y="24.71" width="3.09" height="3.09" transform="translate(83.41 52.52) rotate(180)"/><rect class="cls-1" x="43.25" y="24.71" width="3.09" height="3.09" transform="translate(89.59 52.52) rotate(180)"/><rect class="cls-1" x="46.34" y="24.71" width="3.09" height="3.09" transform="translate(95.77 52.52) rotate(180)"/><rect class="cls-1" x="33.98" y="24.71" width="3.09" height="3.09" transform="translate(71.05 52.52) rotate(180)"/><rect class="cls-1" x="37.07" y="21.62" width="3.09" height="3.09" transform="translate(77.23 46.34) rotate(180)"/><rect class="cls-1" x="40.16" y="21.62" width="3.09" height="3.09" transform="translate(83.41 46.34) rotate(180)"/><rect class="cls-1" x="43.25" y="21.62" width="3.09" height="3.09" transform="translate(89.59 46.34) rotate(180)"/><rect class="cls-1" x="49.43" y="21.62" width="3.09" height="3.09" transform="translate(101.94 46.34) rotate(180)"/><rect class="cls-1" x="52.52" y="21.62" width="3.09" height="3.09" transform="translate(108.12 46.34) rotate(180)"/><rect class="cls-1" x="52.52" y="18.54" width="3.09" height="3.09" transform="translate(108.12 40.16) rotate(180)"/><rect class="cls-1" x="55.61" y="18.54" width="3.09" height="3.09" transform="translate(114.3 40.16) rotate(180)"/><rect class="cls-1" x="55.61" y="15.45" width="3.09" height="3.09" transform="translate(114.3 33.98) rotate(180)"/><rect class="cls-1" x="58.69" y="15.45" width="3.09" height="3.09" transform="translate(120.48 33.98) rotate(180)"/><rect class="cls-1" x="52.52" y="15.45" width="3.09" height="3.09" transform="translate(108.12 33.98) rotate(180)"/><rect class="cls-1" x="33.98" y="21.62" width="3.09" height="3.09" transform="translate(71.05 46.34) rotate(180)"/><rect class="cls-1" x="37.07" y="18.54" width="3.09" height="3.09" transform="translate(77.23 40.16) rotate(180)"/><rect class="cls-1" x="40.16" y="18.54" width="3.09" height="3.09" transform="translate(83.41 40.16) rotate(180)"/><rect class="cls-1" x="43.25" y="18.54" width="3.09" height="3.09" transform="translate(89.59 40.16) rotate(180)"/><rect class="cls-1" x="33.98" y="18.54" width="3.09" height="3.09" transform="translate(71.05 40.16) rotate(180)"/><rect class="cls-1" x="37.07" y="15.45" width="3.09" height="3.09" transform="translate(77.23 33.98) rotate(180)"/><rect class="cls-1" x="40.16" y="15.45" width="3.09" height="3.09" transform="translate(83.41 33.98) rotate(180)"/><rect class="cls-1" x="43.25" y="15.45" width="3.09" height="3.09" transform="translate(89.59 33.98) rotate(180)"/><rect class="cls-1" x="46.34" y="21.62" width="3.09" height="3.09" transform="translate(95.77 46.34) rotate(180)"/><rect class="cls-1" x="46.34" y="18.54" width="3.09" height="3.09" transform="translate(95.77 40.16) rotate(180)"/><rect class="cls-1" x="46.34" y="15.45" width="3.09" height="3.09" transform="translate(95.77 33.98) rotate(180)"/><rect class="cls-1" x="49.43" y="18.54" width="3.09" height="3.09" transform="translate(101.94 40.16) rotate(180)"/><rect class="cls-1" x="49.43" y="15.45" width="3.09" height="3.09" transform="translate(101.94 33.98) rotate(180)"/><rect class="cls-1" x="33.98" y="15.45" width="3.09" height="3.09" transform="translate(71.05 33.98) rotate(180)"/><rect class="cls-1" x="64.87" y="43.25" width="3.09" height="3.09" transform="translate(132.84 89.59) rotate(180)"/><rect class="cls-1" x="61.78" y="43.25" width="3.09" height="3.09" transform="translate(126.66 89.59) rotate(180)"/><rect class="cls-1" x="58.69" y="43.25" width="3.09" height="3.09" transform="translate(120.48 89.59) rotate(180)"/><rect class="cls-1" x="55.61" y="43.25" width="3.09" height="3.09" transform="translate(114.3 89.59) rotate(180)"/><rect class="cls-1" x="52.52" y="43.25" width="3.09" height="3.09" transform="translate(108.12 89.59) rotate(180)"/><rect class="cls-1" x="49.43" y="43.25" width="3.09" height="3.09" transform="translate(101.94 89.59) rotate(180)"/><rect class="cls-1" x="61.78" y="40.16" width="3.09" height="3.09" transform="translate(126.66 83.41) rotate(180)"/><rect class="cls-1" x="58.69" y="40.16" width="3.09" height="3.09" transform="translate(120.48 83.41) rotate(180)"/><rect class="cls-1" x="55.61" y="40.16" width="3.09" height="3.09" transform="translate(114.3 83.41) rotate(180)"/><rect class="cls-1" x="52.52" y="40.16" width="3.09" height="3.09" transform="translate(108.12 83.41) rotate(180)"/><rect class="cls-1" x="49.43" y="40.16" width="3.09" height="3.09" transform="translate(101.94 83.41) rotate(180)"/><rect class="cls-1" x="46.34" y="43.25" width="3.09" height="3.09" transform="translate(95.77 89.59) rotate(180)"/><rect class="cls-1" x="37.07" y="43.25" width="3.09" height="3.09" transform="translate(77.23 89.59) rotate(180)"/><rect class="cls-1" x="40.16" y="43.25" width="3.09" height="3.09" transform="translate(83.41 89.59) rotate(180)"/><rect class="cls-1" x="43.25" y="43.25" width="3.09" height="3.09" transform="translate(89.59 89.59) rotate(180)"/><rect class="cls-1" x="33.98" y="43.25" width="3.09" height="3.09" transform="translate(71.05 89.59) rotate(180)"/><rect class="cls-1" x="37.07" y="40.16" width="3.09" height="3.09" transform="translate(77.23 83.41) rotate(180)"/><rect class="cls-1" x="40.16" y="40.16" width="3.09" height="3.09" transform="translate(83.41 83.41) rotate(180)"/><rect class="cls-1" x="43.25" y="40.16" width="3.09" height="3.09" transform="translate(89.59 83.41) rotate(180)"/><rect class="cls-1" x="46.34" y="40.16" width="3.09" height="3.09" transform="translate(95.77 83.41) rotate(180)"/><rect class="cls-1" x="33.98" y="40.16" width="3.09" height="3.09" transform="translate(71.05 83.41) rotate(180)"/><rect class="cls-1" x="37.07" y="37.07" width="3.09" height="3.09" transform="translate(77.23 77.23) rotate(180)"/><rect class="cls-1" x="40.16" y="37.07" width="3.09" height="3.09" transform="translate(83.41 77.23) rotate(180)"/><rect class="cls-1" x="43.25" y="37.07" width="3.09" height="3.09" transform="translate(89.59 77.23) rotate(180)"/><rect class="cls-1" x="33.98" y="37.07" width="3.09" height="3.09" transform="translate(71.05 77.23) rotate(180)"/><rect class="cls-1" x="37.07" y="33.98" width="3.09" height="3.09" transform="translate(77.23 71.05) rotate(180)"/><rect class="cls-1" x="40.16" y="33.98" width="3.09" height="3.09" transform="translate(83.41 71.05) rotate(180)"/><rect class="cls-1" x="43.25" y="33.98" width="3.09" height="3.09" transform="translate(89.59 71.05) rotate(180)"/><rect class="cls-1" x="33.98" y="33.98" width="3.09" height="3.09" transform="translate(71.05 71.05) rotate(180)"/><rect class="cls-1" x="37.07" y="30.89" width="3.09" height="3.09" transform="translate(77.23 64.87) rotate(180)"/><rect class="cls-1" x="40.16" y="30.89" width="3.09" height="3.09" transform="translate(83.41 64.87) rotate(180)"/><rect class="cls-1" x="46.34" y="37.07" width="3.09" height="3.09" transform="translate(95.77 77.23) rotate(180)"/><rect class="cls-1" x="33.98" y="30.89" width="3.09" height="3.09" transform="translate(71.05 64.87) rotate(180)"/><rect class="cls-1" x="61.78" y="46.34" width="3.09" height="3.09" transform="translate(126.66 95.77) rotate(180)"/><rect class="cls-1" x="49.43" y="55.61" width="3.09" height="3.09" transform="translate(101.94 114.3) rotate(180)"/><rect class="cls-1" x="46.34" y="58.69" width="3.09" height="3.09" transform="translate(95.77 120.48) rotate(180)"/><rect class="cls-1" x="40.16" y="58.69" width="3.09" height="3.09" transform="translate(83.41 120.48) rotate(180)"/><rect class="cls-1" x="43.25" y="58.69" width="3.09" height="3.09" transform="translate(89.59 120.48) rotate(180)"/><rect class="cls-1" x="40.16" y="55.61" width="3.09" height="3.09" transform="translate(83.41 114.3) rotate(180)"/><rect class="cls-1" x="43.25" y="55.61" width="3.09" height="3.09" transform="translate(89.59 114.3) rotate(180)"/><rect class="cls-1" x="46.34" y="55.61" width="3.09" height="3.09" transform="translate(95.77 114.3) rotate(180)"/><rect class="cls-1" x="40.16" y="52.52" width="3.09" height="3.09" transform="translate(83.41 108.12) rotate(180)"/><rect class="cls-1" x="43.25" y="52.52" width="3.09" height="3.09" transform="translate(89.59 108.12) rotate(180)"/><rect class="cls-1" x="49.43" y="52.52" width="3.09" height="3.09" transform="translate(101.94 108.12) rotate(180)"/><rect class="cls-1" x="52.52" y="49.43" width="3.09" height="3.09" transform="translate(108.12 101.94) rotate(180)"/><rect class="cls-1" x="55.61" y="46.34" width="3.09" height="3.09" transform="translate(114.3 95.77) rotate(180)"/><rect class="cls-1" x="58.69" y="46.34" width="3.09" height="3.09" transform="translate(120.48 95.77) rotate(180)"/><rect class="cls-1" x="52.52" y="46.34" width="3.09" height="3.09" transform="translate(108.12 95.77) rotate(180)"/><rect class="cls-1" x="40.16" y="49.43" width="3.09" height="3.09" transform="translate(83.41 101.94) rotate(180)"/><rect class="cls-1" x="43.25" y="49.43" width="3.09" height="3.09" transform="translate(89.59 101.94) rotate(180)"/><rect class="cls-1" x="37.07" y="46.34" width="3.09" height="3.09" transform="translate(77.23 95.77) rotate(180)"/><rect class="cls-1" x="40.16" y="46.34" width="3.09" height="3.09" transform="translate(83.41 95.77) rotate(180)"/><rect class="cls-1" x="43.25" y="46.34" width="3.09" height="3.09" transform="translate(89.59 95.77) rotate(180)"/><rect class="cls-1" x="46.34" y="52.52" width="3.09" height="3.09" transform="translate(95.77 108.12) rotate(180)"/><rect class="cls-1" x="46.34" y="49.43" width="3.09" height="3.09" transform="translate(95.77 101.94) rotate(180)"/><rect class="cls-1" x="46.34" y="46.34" width="3.09" height="3.09" transform="translate(95.77 95.77) rotate(180)"/><rect class="cls-1" x="49.43" y="49.43" width="3.09" height="3.09" transform="translate(101.94 101.94) rotate(180)"/><rect class="cls-1" x="49.43" y="46.34" width="3.09" height="3.09" transform="translate(101.94 95.77) rotate(180)"/><rect class="cls-1" x="43.25" y="64.87" width="3.09" height="3.09" transform="translate(89.59 132.84) rotate(180)"/><rect class="cls-1" x="40.16" y="61.78" width="3.09" height="3.09" transform="translate(83.41 126.66) rotate(180)"/><rect class="cls-1" x="43.25" y="61.78" width="3.09" height="3.09" transform="translate(89.59 126.66) rotate(180)"/><rect class="cls-1" x="46.34" y="61.78" width="3.09" height="3.09" transform="translate(95.77 126.66) rotate(180)"/></g></g></svg>