<svg xmlns="http://www.w3.org/2000/svg" viewBox="0 0 67.96 67.96"><defs><style>.cls-1{fill:#fff;}</style></defs><title>plane</title><g id="Layer_2" data-name="Layer 2"><g id="Layer_1-2" data-name="Layer 1"><polygon class="cls-1" points="64.87 43.25 64.87 40.16 61.78 40.16 58.7 40.16 55.61 40.16 52.52 40.16 49.43 40.16 49.43 37.07 46.34 37.07 46.34 33.98 43.25 33.98 43.25 30.89 46.34 30.89 46.34 27.8 49.43 27.8 52.52 27.8 52.52 24.71 55.61 24.71 58.7 24.71 58.7 21.62 61.78 21.62 64.87 21.62 64.87 18.54 64.87 15.45 61.78 15.45 61.78 12.36 58.7 12.36 55.61 12.36 52.52 12.36 49.43 12.36 46.34 12.36 46.34 15.45 43.25 15.45 40.16 15.45 37.07 15.45 33.98 15.45 30.89 15.45 27.8 15.45 24.71 15.45 24.71 12.36 21.63 12.36 21.63 9.27 18.54 9.27 18.54 6.18 15.45 6.18 15.45 3.09 12.36 3.09 12.36 0 9.27 0 6.18 0 3.09 0 3.09 3.09 0 3.09 0 6.18 0 9.27 0 12.36 3.09 12.36 3.09 15.45 6.18 15.45 6.18 18.54 9.27 18.54 9.27 21.62 12.36 21.62 12.36 24.71 15.45 24.71 15.45 27.8 15.45 30.89 15.45 33.98 15.45 37.07 15.45 40.16 15.45 43.25 15.45 46.34 12.36 46.34 12.36 49.43 12.36 52.52 12.36 55.6 12.36 58.7 12.36 61.78 15.45 61.78 15.45 64.87 18.54 64.87 18.54 61.78 21.63 61.78 21.63 58.7 24.71 58.7 24.71 55.6 24.71 52.52 27.8 52.52 27.8 49.43 27.8 46.34 30.89 46.34 30.89 43.25 33.98 43.25 33.98 46.34 37.07 46.34 37.07 49.43 40.16 49.43 40.16 52.52 40.16 55.6 40.16 58.7 40.16 61.78 40.16 64.87 43.25 64.87 43.25 67.96 46.34 67.96 46.34 64.87 49.43 64.87 49.43 61.78 49.43 58.7 52.52 58.7 52.52 55.6 52.52 52.52 55.61 52.52 55.61 49.43 58.7 49.43 61.78 49.43 64.87 49.43 64.87 46.34 67.96 46.34 67.96 43.25 64.87 43.25"/></g></g></svg>