<svg xmlns="http://www.w3.org/2000/svg" viewBox="0 0 74.02 88.83"><defs><style>.cls-1{fill:#fff;}</style></defs><title>Asset 6</title><g id="Layer_2" data-name="Layer 2"><g id="Layer_1-2" data-name="Layer 1"><path class="cls-1" d="M82.32,67.15"/><rect class="cls-1" x="11.1" y="14.8" width="3.7" height="3.7" transform="translate(25.91 33.31) rotate(180)"/><rect class="cls-1" x="29.61" y="11.1" width="3.7" height="3.7" transform="translate(62.92 25.91) rotate(180)"/><rect class="cls-1" x="25.91" y="11.1" width="3.7" height="3.7" transform="translate(55.52 25.91) rotate(180)"/><rect class="cls-1" x="22.21" y="11.1" width="3.7" height="3.7" transform="translate(48.11 25.91) rotate(180)"/><rect class="cls-1" x="18.51" y="11.1" width="3.7" height="3.7" transform="translate(40.71 25.91) rotate(180)"/><rect class="cls-1" x="22.21" y="7.4" width="3.7" height="3.7" transform="translate(48.11 18.51) rotate(180)"/><rect class="cls-1" x="29.61" y="3.7" width="3.7" height="3.7" transform="translate(62.92 11.1) rotate(180)"/><rect class="cls-1" x="25.91" y="3.7" width="3.7" height="3.7" transform="translate(55.52 11.1) rotate(180)"/><rect class="cls-1" x="29.61" width="3.7" height="3.7" transform="translate(62.92 3.7) rotate(180)"/><rect class="cls-1" x="25.91" width="3.7" height="3.7" transform="translate(55.52 3.7) rotate(180)"/><rect class="cls-1" x="22.21" y="3.7" width="3.7" height="3.7" transform="translate(48.11 11.1) rotate(180)"/><rect class="cls-1" x="18.51" y="7.4" width="3.7" height="3.7" transform="translate(40.71 18.51) rotate(180)"/><rect class="cls-1" x="14.8" y="11.1" width="3.7" height="3.7" transform="translate(33.31 25.91) rotate(180)"/><rect class="cls-1" x="11.1" y="11.1" width="3.7" height="3.7" transform="translate(25.91 25.91) rotate(180)"/><rect class="cls-1" x="7.4" y="14.8" width="3.7" height="3.7" transform="translate(18.51 33.31) rotate(180)"/><rect class="cls-1" x="3.7" y="14.8" width="3.7" height="3.7" transform="translate(11.1 33.31) rotate(180)"/><rect class="cls-1" x="3.7" y="11.1" width="3.7" height="3.7" transform="translate(11.1 25.91) rotate(180)"/><rect class="cls-1" x="7.4" y="11.1" width="3.7" height="3.7" transform="translate(18.51 25.91) rotate(180)"/><rect class="cls-1" x="3.7" y="7.4" width="3.7" height="3.7" transform="translate(11.1 18.51) rotate(180)"/><rect class="cls-1" x="11.1" y="7.4" width="3.7" height="3.7" transform="translate(25.91 18.51) rotate(180)"/><rect class="cls-1" x="14.8" y="7.4" width="3.7" height="3.7" transform="translate(33.31 18.51) rotate(180)"/><rect class="cls-1" x="14.8" y="3.7" width="3.7" height="3.7" transform="translate(33.31 11.1) rotate(180)"/><rect class="cls-1" x="18.51" y="3.7" width="3.7" height="3.7" transform="translate(40.71 11.1) rotate(180)"/><rect class="cls-1" x="18.51" width="3.7" height="3.7" transform="translate(40.71 3.7) rotate(180)"/><rect class="cls-1" x="22.21" width="3.7" height="3.7" transform="translate(48.11 3.7) rotate(180)"/><rect class="cls-1" x="14.8" width="3.7" height="3.7" transform="translate(33.31 3.7) rotate(180)"/><rect class="cls-1" x="7.4" y="7.4" width="3.7" height="3.7" transform="translate(18.51 18.51) rotate(180)"/><rect class="cls-1" x="7.4" y="3.7" width="3.7" height="3.7" transform="translate(18.51 11.1) rotate(180)"/><rect class="cls-1" x="11.1" y="3.7" width="3.7" height="3.7" transform="translate(25.91 11.1) rotate(180)"/><rect class="cls-1" x="11.1" width="3.7" height="3.7" transform="translate(25.91 3.7) rotate(180)"/><rect class="cls-1" x="7.4" y="33.31" width="3.7" height="3.7" transform="translate(18.51 70.32) rotate(180)"/><rect class="cls-1" x="3.7" y="33.31" width="3.7" height="3.7" transform="translate(11.1 70.32) rotate(180)"/><rect class="cls-1" x="3.7" y="29.61" width="3.7" height="3.7" transform="translate(11.1 62.92) rotate(180)"/><rect class="cls-1" x="7.4" y="29.61" width="3.7" height="3.7" transform="translate(18.51 62.92) rotate(180)"/><rect class="cls-1" x="3.7" y="25.91" width="3.7" height="3.7" transform="translate(11.1 55.52) rotate(180)"/><rect class="cls-1" x="3.7" y="22.21" width="3.7" height="3.7" transform="translate(11.1 48.11) rotate(180)"/><rect class="cls-1" x="3.7" y="18.51" width="3.7" height="3.7" transform="translate(11.1 40.71) rotate(180)"/><rect class="cls-1" x="7.4" y="25.91" width="3.7" height="3.7" transform="translate(18.51 55.52) rotate(180)"/><rect class="cls-1" x="7.4" y="22.21" width="3.7" height="3.7" transform="translate(18.51 48.11) rotate(180)"/><rect class="cls-1" x="7.4" y="18.51" width="3.7" height="3.7" transform="translate(18.51 40.71) rotate(180)"/><rect class="cls-1" x="29.61" y="51.82" width="3.7" height="3.7" transform="translate(62.92 107.33) rotate(180)"/><rect class="cls-1" x="25.91" y="51.82" width="3.7" height="3.7" transform="translate(55.52 107.33) rotate(180)"/><rect class="cls-1" x="22.21" y="51.82" width="3.7" height="3.7" transform="translate(48.11 107.33) rotate(180)"/><rect class="cls-1" x="29.61" y="48.11" width="3.7" height="3.7" transform="translate(62.92 99.93) rotate(180)"/><rect class="cls-1" x="25.91" y="48.11" width="3.7" height="3.7" transform="translate(55.52 99.93) rotate(180)"/><rect class="cls-1" x="22.21" y="48.11" width="3.7" height="3.7" transform="translate(48.11 99.93) rotate(180)"/><rect class="cls-1" x="18.51" y="48.11" width="3.7" height="3.7" transform="translate(40.71 99.93) rotate(180)"/><rect class="cls-1" x="29.61" y="44.41" width="3.7" height="3.7" transform="translate(62.92 92.53) rotate(180)"/><rect class="cls-1" x="25.91" y="44.41" width="3.7" height="3.7" transform="translate(55.52 92.53) rotate(180)"/><rect class="cls-1" x="22.21" y="44.41" width="3.7" height="3.7" transform="translate(48.11 92.53) rotate(180)"/><rect class="cls-1" x="18.51" y="44.41" width="3.7" height="3.7" transform="translate(40.71 92.53) rotate(180)"/><rect class="cls-1" x="11.1" y="48.11" width="3.7" height="3.7" transform="translate(25.91 99.93) rotate(180)"/><rect class="cls-1" x="7.4" y="51.82" width="3.7" height="3.7" transform="translate(18.51 107.33) rotate(180)"/><rect class="cls-1" x="3.7" y="51.82" width="3.7" height="3.7" transform="translate(11.1 107.33) rotate(180)"/><rect class="cls-1" x="3.7" y="48.11" width="3.7" height="3.7" transform="translate(11.1 99.93) rotate(180)"/><rect class="cls-1" x="7.4" y="48.11" width="3.7" height="3.7" transform="translate(18.51 99.93) rotate(180)"/><rect class="cls-1" x="3.7" y="44.41" width="3.7" height="3.7" transform="translate(11.1 92.53) rotate(180)"/><rect class="cls-1" x="11.1" y="44.41" width="3.7" height="3.7" transform="translate(25.91 92.53) rotate(180)"/><rect class="cls-1" x="14.8" y="44.41" width="3.7" height="3.7" transform="translate(33.31 92.53) rotate(180)"/><rect class="cls-1" x="3.7" y="40.71" width="3.7" height="3.7" transform="translate(11.1 85.13) rotate(180)"/><rect class="cls-1" x="3.7" y="37.01" width="3.7" height="3.7" transform="translate(11.1 77.72) rotate(180)"/><rect class="cls-1" x="7.4" y="44.41" width="3.7" height="3.7" transform="translate(18.51 92.53) rotate(180)"/><rect class="cls-1" x="7.4" y="40.71" width="3.7" height="3.7" transform="translate(18.51 85.13) rotate(180)"/><rect class="cls-1" x="7.4" y="37.01" width="3.7" height="3.7" transform="translate(18.51 77.72) rotate(180)"/><rect class="cls-1" x="11.1" y="40.71" width="3.7" height="3.7" transform="translate(25.91 85.13) rotate(180)"/><rect class="cls-1" x="29.61" y="62.92" width="3.7" height="3.7" transform="translate(62.92 129.54) rotate(180)"/><rect class="cls-1" x="25.91" y="62.92" width="3.7" height="3.7" transform="translate(55.52 129.54) rotate(180)"/><rect class="cls-1" x="22.21" y="62.92" width="3.7" height="3.7" transform="translate(48.11 129.54) rotate(180)"/><rect class="cls-1" x="29.61" y="59.22" width="3.7" height="3.7" transform="translate(62.92 122.14) rotate(180)"/><rect class="cls-1" x="25.91" y="59.22" width="3.7" height="3.7" transform="translate(55.52 122.14) rotate(180)"/><rect class="cls-1" x="29.61" y="55.52" width="3.7" height="3.7" transform="translate(62.92 114.73) rotate(180)"/><rect class="cls-1" x="25.91" y="55.52" width="3.7" height="3.7" transform="translate(55.52 114.73) rotate(180)"/><rect class="cls-1" x="22.21" y="59.22" width="3.7" height="3.7" transform="translate(48.11 122.14) rotate(180)"/><rect class="cls-1" x="18.51" y="62.92" width="3.7" height="3.7" transform="translate(40.71 129.54) rotate(180)"/><rect class="cls-1" x="11.1" y="62.92" width="3.7" height="3.7" transform="translate(25.91 129.54) rotate(180)"/><rect class="cls-1" x="14.8" y="62.92" width="3.7" height="3.7" transform="translate(33.31 129.54) rotate(180)"/><rect class="cls-1" x="14.8" y="59.22" width="3.7" height="3.7" transform="translate(33.31 122.14) rotate(180)"/><rect class="cls-1" x="18.51" y="59.22" width="3.7" height="3.7" transform="translate(40.71 122.14) rotate(180)"/><rect class="cls-1" x="18.51" y="55.52" width="3.7" height="3.7" transform="translate(40.71 114.73) rotate(180)"/><rect class="cls-1" x="22.21" y="55.52" width="3.7" height="3.7" transform="translate(48.11 114.73) rotate(180)"/><rect class="cls-1" x="3.7" y="55.52" width="3.7" height="3.7" transform="translate(11.1 114.73) rotate(180)"/><rect class="cls-1" x="7.4" y="59.22" width="3.7" height="3.7" transform="translate(18.51 122.14) rotate(180)"/><rect class="cls-1" x="7.4" y="55.52" width="3.7" height="3.7" transform="translate(18.51 114.73) rotate(180)"/><rect class="cls-1" x="11.1" y="59.22" width="3.7" height="3.7" transform="translate(25.91 122.14) rotate(180)"/><rect class="cls-1" x="11.1" y="55.52" width="3.7" height="3.7" transform="translate(25.91 114.73) rotate(180)"/><rect class="cls-1" x="29.61" y="85.13" width="3.7" height="3.7" transform="translate(62.92 173.95) rotate(180)"/><rect class="cls-1" x="25.91" y="85.13" width="3.7" height="3.7" transform="translate(55.52 173.95) rotate(180)"/><rect class="cls-1" x="22.21" y="85.13" width="3.7" height="3.7" transform="translate(48.11 173.95) rotate(180)"/><rect class="cls-1" x="18.51" y="85.13" width="3.7" height="3.7" transform="translate(40.71 173.95) rotate(180)"/><rect class="cls-1" x="14.8" y="85.13" width="3.7" height="3.7" transform="translate(33.31 173.95) rotate(180)"/><rect class="cls-1" x="11.1" y="85.13" width="3.7" height="3.7" transform="translate(25.91 173.95) rotate(180)"/><rect class="cls-1" x="29.61" y="74.02" width="3.7" height="3.7" transform="translate(62.92 151.75) rotate(180)"/><rect class="cls-1" x="25.91" y="74.02" width="3.7" height="3.7" transform="translate(55.52 151.75) rotate(180)"/><rect class="cls-1" x="22.21" y="74.02" width="3.7" height="3.7" transform="translate(48.11 151.75) rotate(180)"/><rect class="cls-1" x="7.4" y="85.13" width="3.7" height="3.7" transform="translate(18.51 173.95) rotate(180)"/><rect class="cls-1" y="85.13" width="3.7" height="3.7" transform="translate(3.7 173.95) rotate(180)"/><rect class="cls-1" x="3.7" y="85.13" width="3.7" height="3.7" transform="translate(11.1 173.95) rotate(180)"/><rect class="cls-1" x="14.8" y="74.02" width="3.7" height="3.7" transform="translate(33.31 151.75) rotate(180)"/><rect class="cls-1" x="18.51" y="74.02" width="3.7" height="3.7" transform="translate(40.71 151.75) rotate(180)"/><rect class="cls-1" x="7.4" y="74.02" width="3.7" height="3.7" transform="translate(18.51 151.75) rotate(180)"/><rect class="cls-1" x="11.1" y="74.02" width="3.7" height="3.7" transform="translate(25.91 151.75) rotate(180)"/><rect class="cls-1" x="66.62" y="14.8" width="3.7" height="3.7" transform="translate(136.94 33.31) rotate(180)"/><rect class="cls-1" x="62.92" y="14.8" width="3.7" height="3.7" transform="translate(129.54 33.31) rotate(180)"/><rect class="cls-1" x="59.22" y="14.8" width="3.7" height="3.7" transform="translate(122.14 33.31) rotate(180)"/><rect class="cls-1" x="66.62" y="11.1" width="3.7" height="3.7" transform="translate(136.94 25.91) rotate(180)"/><rect class="cls-1" x="62.92" y="11.1" width="3.7" height="3.7" transform="translate(129.54 25.91) rotate(180)"/><rect class="cls-1" x="59.22" y="11.1" width="3.7" height="3.7" transform="translate(122.14 25.91) rotate(180)"/><rect class="cls-1" x="66.62" y="7.4" width="3.7" height="3.7" transform="translate(136.94 18.51) rotate(180)"/><rect class="cls-1" x="62.92" y="7.4" width="3.7" height="3.7" transform="translate(129.54 18.51) rotate(180)"/><rect class="cls-1" x="62.92" y="3.7" width="3.7" height="3.7" transform="translate(129.54 11.1) rotate(180)"/><rect class="cls-1" x="59.22" y="7.4" width="3.7" height="3.7" transform="translate(122.14 18.51) rotate(180)"/><rect class="cls-1" x="55.52" y="11.1" width="3.7" height="3.7" transform="translate(114.73 25.91) rotate(180)"/><rect class="cls-1" x="51.82" y="11.1" width="3.7" height="3.7" transform="translate(107.33 25.91) rotate(180)"/><rect class="cls-1" x="37.01" y="11.1" width="3.7" height="3.7" transform="translate(77.72 25.91) rotate(180)"/><rect class="cls-1" x="40.71" y="11.1" width="3.7" height="3.7" transform="translate(85.13 25.91) rotate(180)"/><rect class="cls-1" x="44.41" y="11.1" width="3.7" height="3.7" transform="translate(92.53 25.91) rotate(180)"/><rect class="cls-1" x="48.11" y="11.1" width="3.7" height="3.7" transform="translate(99.93 25.91) rotate(180)"/><rect class="cls-1" x="33.31" y="11.1" width="3.7" height="3.7" transform="translate(70.32 25.91) rotate(180)"/><rect class="cls-1" x="51.82" y="7.4" width="3.7" height="3.7" transform="translate(107.33 18.51) rotate(180)"/><rect class="cls-1" x="55.52" y="7.4" width="3.7" height="3.7" transform="translate(114.73 18.51) rotate(180)"/><rect class="cls-1" x="55.52" y="3.7" width="3.7" height="3.7" transform="translate(114.73 11.1) rotate(180)"/><rect class="cls-1" x="59.22" y="3.7" width="3.7" height="3.7" transform="translate(122.14 11.1) rotate(180)"/><rect class="cls-1" x="59.22" width="3.7" height="3.7" transform="translate(122.14 3.7) rotate(180)"/><rect class="cls-1" x="55.52" width="3.7" height="3.7" transform="translate(114.73 3.7) rotate(180)"/><rect class="cls-1" x="37.01" y="3.7" width="3.7" height="3.7" transform="translate(77.72 11.1) rotate(180)"/><rect class="cls-1" x="40.71" y="3.7" width="3.7" height="3.7" transform="translate(85.13 11.1) rotate(180)"/><rect class="cls-1" x="44.41" y="3.7" width="3.7" height="3.7" transform="translate(92.53 11.1) rotate(180)"/><rect class="cls-1" x="33.31" y="3.7" width="3.7" height="3.7" transform="translate(70.32 11.1) rotate(180)"/><rect class="cls-1" x="37.01" width="3.7" height="3.7" transform="translate(77.72 3.7) rotate(180)"/><rect class="cls-1" x="40.71" width="3.7" height="3.7" transform="translate(85.13 3.7) rotate(180)"/><rect class="cls-1" x="44.41" width="3.7" height="3.7" transform="translate(92.53 3.7) rotate(180)"/><rect class="cls-1" x="48.11" y="7.4" width="3.7" height="3.7" transform="translate(99.93 18.51) rotate(180)"/><rect class="cls-1" x="48.11" y="3.7" width="3.7" height="3.7" transform="translate(99.93 11.1) rotate(180)"/><rect class="cls-1" x="48.11" width="3.7" height="3.7" transform="translate(99.93 3.7) rotate(180)"/><rect class="cls-1" x="51.82" y="3.7" width="3.7" height="3.7" transform="translate(107.33 11.1) rotate(180)"/><rect class="cls-1" x="51.82" width="3.7" height="3.7" transform="translate(107.33 3.7) rotate(180)"/><rect class="cls-1" x="33.31" width="3.7" height="3.7" transform="translate(70.32 3.7) rotate(180)"/><rect class="cls-1" x="66.62" y="33.31" width="3.7" height="3.7" transform="translate(136.94 70.32) rotate(180)"/><rect class="cls-1" x="62.92" y="33.31" width="3.7" height="3.7" transform="translate(129.54 70.32) rotate(180)"/><rect class="cls-1" x="66.62" y="29.61" width="3.7" height="3.7" transform="translate(136.94 62.92) rotate(180)"/><rect class="cls-1" x="62.92" y="29.61" width="3.7" height="3.7" transform="translate(129.54 62.92) rotate(180)"/><rect class="cls-1" x="66.62" y="25.91" width="3.7" height="3.7" transform="translate(136.94 55.52) rotate(180)"/><rect class="cls-1" x="62.92" y="25.91" width="3.7" height="3.7" transform="translate(129.54 55.52) rotate(180)"/><rect class="cls-1" x="66.62" y="22.21" width="3.7" height="3.7" transform="translate(136.94 48.11) rotate(180)"/><rect class="cls-1" x="66.62" y="18.51" width="3.7" height="3.7" transform="translate(136.94 40.71) rotate(180)"/><rect class="cls-1" x="62.92" y="22.21" width="3.7" height="3.7" transform="translate(129.54 48.11) rotate(180)"/><rect class="cls-1" x="62.92" y="18.51" width="3.7" height="3.7" transform="translate(129.54 40.71) rotate(180)"/><rect class="cls-1" x="66.62" y="51.82" width="3.7" height="3.7" transform="translate(136.94 107.33) rotate(180)"/><rect class="cls-1" x="62.92" y="51.82" width="3.7" height="3.7" transform="translate(129.54 107.33) rotate(180)"/><rect class="cls-1" x="66.62" y="48.11" width="3.7" height="3.7" transform="translate(136.94 99.93) rotate(180)"/><rect class="cls-1" x="62.92" y="48.11" width="3.7" height="3.7" transform="translate(129.54 99.93) rotate(180)"/><rect class="cls-1" x="59.22" y="48.11" width="3.7" height="3.7" transform="translate(122.14 99.93) rotate(180)"/><rect class="cls-1" x="66.62" y="44.41" width="3.7" height="3.7" transform="translate(136.94 92.53) rotate(180)"/><rect class="cls-1" x="62.92" y="44.41" width="3.7" height="3.7" transform="translate(129.54 92.53) rotate(180)"/><rect class="cls-1" x="66.62" y="40.71" width="3.7" height="3.7" transform="translate(136.94 85.13) rotate(180)"/><rect class="cls-1" x="66.62" y="37.01" width="3.7" height="3.7" transform="translate(136.94 77.72) rotate(180)"/><rect class="cls-1" x="62.92" y="40.71" width="3.7" height="3.7" transform="translate(129.54 85.13) rotate(180)"/><rect class="cls-1" x="59.22" y="44.41" width="3.7" height="3.7" transform="translate(122.14 92.53) rotate(180)"/><rect class="cls-1" x="51.82" y="48.11" width="3.7" height="3.7" transform="translate(107.33 99.93) rotate(180)"/><rect class="cls-1" x="48.11" y="51.82" width="3.7" height="3.7" transform="translate(99.93 107.33) rotate(180)"/><rect class="cls-1" x="37.01" y="51.82" width="3.7" height="3.7" transform="translate(77.72 107.33) rotate(180)"/><rect class="cls-1" x="40.71" y="51.82" width="3.7" height="3.7" transform="translate(85.13 107.33) rotate(180)"/><rect class="cls-1" x="44.41" y="51.82" width="3.7" height="3.7" transform="translate(92.53 107.33) rotate(180)"/><rect class="cls-1" x="33.31" y="51.82" width="3.7" height="3.7" transform="translate(70.32 107.33) rotate(180)"/><rect class="cls-1" x="37.01" y="48.11" width="3.7" height="3.7" transform="translate(77.72 99.93) rotate(180)"/><rect class="cls-1" x="40.71" y="48.11" width="3.7" height="3.7" transform="translate(85.13 99.93) rotate(180)"/><rect class="cls-1" x="44.41" y="48.11" width="3.7" height="3.7" transform="translate(92.53 99.93) rotate(180)"/><rect class="cls-1" x="48.11" y="48.11" width="3.7" height="3.7" transform="translate(99.93 99.93) rotate(180)"/><rect class="cls-1" x="33.31" y="48.11" width="3.7" height="3.7" transform="translate(70.32 99.93) rotate(180)"/><rect class="cls-1" x="37.01" y="44.41" width="3.7" height="3.7" transform="translate(77.72 92.53) rotate(180)"/><rect class="cls-1" x="40.71" y="44.41" width="3.7" height="3.7" transform="translate(85.13 92.53) rotate(180)"/><rect class="cls-1" x="44.41" y="44.41" width="3.7" height="3.7" transform="translate(92.53 92.53) rotate(180)"/><rect class="cls-1" x="51.82" y="44.41" width="3.7" height="3.7" transform="translate(107.33 92.53) rotate(180)"/><rect class="cls-1" x="55.52" y="44.41" width="3.7" height="3.7" transform="translate(114.73 92.53) rotate(180)"/><rect class="cls-1" x="59.22" y="40.71" width="3.7" height="3.7" transform="translate(122.14 85.13) rotate(180)"/><rect class="cls-1" x="62.92" y="37.01" width="3.7" height="3.7" transform="translate(129.54 77.72) rotate(180)"/><rect class="cls-1" x="33.31" y="44.41" width="3.7" height="3.7" transform="translate(70.32 92.53) rotate(180)"/><rect class="cls-1" x="48.11" y="44.41" width="3.7" height="3.7" transform="translate(99.93 92.53) rotate(180)"/><rect class="cls-1" x="66.62" y="55.52" width="3.7" height="3.7" transform="translate(136.94 114.73) rotate(180)"/><rect class="cls-1" x="62.92" y="59.22" width="3.7" height="3.7" transform="translate(129.54 122.14) rotate(180)"/><rect class="cls-1" x="59.22" y="62.92" width="3.7" height="3.7" transform="translate(122.14 129.54) rotate(180)"/><rect class="cls-1" x="37.01" y="62.92" width="3.7" height="3.7" transform="translate(77.72 129.54) rotate(180)"/><rect class="cls-1" x="40.71" y="62.92" width="3.7" height="3.7" transform="translate(85.13 129.54) rotate(180)"/><rect class="cls-1" x="44.41" y="62.92" width="3.7" height="3.7" transform="translate(92.53 129.54) rotate(180)"/><rect class="cls-1" x="51.82" y="62.92" width="3.7" height="3.7" transform="translate(107.33 129.54) rotate(180)"/><rect class="cls-1" x="55.52" y="62.92" width="3.7" height="3.7" transform="translate(114.73 129.54) rotate(180)"/><rect class="cls-1" x="55.52" y="59.22" width="3.7" height="3.7" transform="translate(114.73 122.14) rotate(180)"/><rect class="cls-1" x="59.22" y="59.22" width="3.7" height="3.7" transform="translate(122.14 122.14) rotate(180)"/><rect class="cls-1" x="59.22" y="55.52" width="3.7" height="3.7" transform="translate(122.14 114.73) rotate(180)"/><rect class="cls-1" x="62.92" y="55.52" width="3.7" height="3.7" transform="translate(129.54 114.73) rotate(180)"/><rect class="cls-1" x="33.31" y="62.92" width="3.7" height="3.7" transform="translate(70.32 129.54) rotate(180)"/><rect class="cls-1" x="37.01" y="59.22" width="3.7" height="3.7" transform="translate(77.72 122.14) rotate(180)"/><rect class="cls-1" x="40.71" y="59.22" width="3.7" height="3.7" transform="translate(85.13 122.14) rotate(180)"/><rect class="cls-1" x="44.41" y="59.22" width="3.7" height="3.7" transform="translate(92.53 122.14) rotate(180)"/><rect class="cls-1" x="33.31" y="59.22" width="3.7" height="3.7" transform="translate(70.32 122.14) rotate(180)"/><rect class="cls-1" x="37.01" y="55.52" width="3.7" height="3.7" transform="translate(77.72 114.73) rotate(180)"/><rect class="cls-1" x="40.71" y="55.52" width="3.7" height="3.7" transform="translate(85.13 114.73) rotate(180)"/><rect class="cls-1" x="44.41" y="55.52" width="3.7" height="3.7" transform="translate(92.53 114.73) rotate(180)"/><rect class="cls-1" x="48.11" y="62.92" width="3.7" height="3.7" transform="translate(99.93 129.54) rotate(180)"/><rect class="cls-1" x="48.11" y="59.22" width="3.7" height="3.7" transform="translate(99.93 122.14) rotate(180)"/><rect class="cls-1" x="48.11" y="55.52" width="3.7" height="3.7" transform="translate(99.93 114.73) rotate(180)"/><rect class="cls-1" x="51.82" y="59.22" width="3.7" height="3.7" transform="translate(107.33 122.14) rotate(180)"/><rect class="cls-1" x="51.82" y="55.52" width="3.7" height="3.7" transform="translate(107.33 114.73) rotate(180)"/><rect class="cls-1" x="33.31" y="55.52" width="3.7" height="3.7" transform="translate(70.32 114.73) rotate(180)"/><rect class="cls-1" x="70.32" y="85.13" width="3.7" height="3.7" transform="translate(144.34 173.95) rotate(180)"/><rect class="cls-1" x="66.62" y="85.13" width="3.7" height="3.7" transform="translate(136.94 173.95) rotate(180)"/><rect class="cls-1" x="62.92" y="85.13" width="3.7" height="3.7" transform="translate(129.54 173.95) rotate(180)"/><rect class="cls-1" x="59.22" y="85.13" width="3.7" height="3.7" transform="translate(122.14 173.95) rotate(180)"/><rect class="cls-1" x="55.52" y="85.13" width="3.7" height="3.7" transform="translate(114.73 173.95) rotate(180)"/><rect class="cls-1" x="51.82" y="85.13" width="3.7" height="3.7" transform="translate(107.33 173.95) rotate(180)"/><rect class="cls-1" x="62.92" y="74.02" width="3.7" height="3.7" transform="translate(129.54 151.75) rotate(180)"/><rect class="cls-1" x="48.11" y="85.13" width="3.7" height="3.7" transform="translate(99.93 173.95) rotate(180)"/><rect class="cls-1" x="37.01" y="85.13" width="3.7" height="3.7" transform="translate(77.72 173.95) rotate(180)"/><rect class="cls-1" x="40.71" y="85.13" width="3.7" height="3.7" transform="translate(85.13 173.95) rotate(180)"/><rect class="cls-1" x="44.41" y="85.13" width="3.7" height="3.7" transform="translate(92.53 173.95) rotate(180)"/><rect class="cls-1" x="33.31" y="85.13" width="3.7" height="3.7" transform="translate(70.32 173.95) rotate(180)"/><rect class="cls-1" x="55.52" y="74.02" width="3.7" height="3.7" transform="translate(114.73 151.75) rotate(180)"/><rect class="cls-1" x="59.22" y="74.02" width="3.7" height="3.7" transform="translate(122.14 151.75) rotate(180)"/><rect class="cls-1" x="37.01" y="74.02" width="3.7" height="3.7" transform="translate(77.72 151.75) rotate(180)"/><rect class="cls-1" x="40.71" y="74.02" width="3.7" height="3.7" transform="translate(85.13 151.75) rotate(180)"/><rect class="cls-1" x="44.41" y="74.02" width="3.7" height="3.7" transform="translate(92.53 151.75) rotate(180)"/><rect class="cls-1" x="33.31" y="74.02" width="3.7" height="3.7" transform="translate(70.32 151.75) rotate(180)"/><rect class="cls-1" x="48.11" y="74.02" width="3.7" height="3.7" transform="translate(99.93 151.75) rotate(180)"/><rect class="cls-1" x="51.82" y="74.02" width="3.7" height="3.7" transform="translate(107.33 151.75) rotate(180)"/></g></g></svg>