<svg xmlns="http://www.w3.org/2000/svg" viewBox="0 0 74.02 88.83"><defs><style>.cls-1{fill:#fff;}</style></defs><title>train</title><g id="Layer_2" data-name="Layer 2"><g id="Layer_1-2" data-name="Layer 1"><path class="cls-1" d="M3.42,7.55,3.7,59.22H7.4v3.7h3.7v3.7H62.92v-3.7h3.7v-3.7h3.7V7.4h-3.7V3.7h-3.7V0H11.1V3.7H7.4V7.4H3.7m7.4,48.11v-3.7h3.7v-3.7h3.7v3.7h3.7v3.7h-3.7v3.7H14.8v-3.7Zm51.82-14.8h-3.7v3.7H14.8v-3.7H11.1V18.51h3.7V14.8H59.22v3.7h3.7Zm-37-29.61V7.4H48.11v3.7Zm37,44.41h-3.7v3.7h-3.7v-3.7h-3.7v-3.7h3.7v-3.7h3.7v3.7h3.7Z"/><rect class="cls-1" y="85.13" width="74.02" height="3.7"/><rect class="cls-1" x="7.4" y="74.02" width="59.22" height="3.7"/></g></g></svg>