<svg xmlns="http://www.w3.org/2000/svg" viewBox="0 0 55.98 106.86"><defs><style>.cls-1{fill:#fff;}</style></defs><title>Asset 3</title><g id="Layer_2" data-name="Layer 2"><g id="Layer_1-2" data-name="Layer 1"><rect class="cls-1" x="20.35" y="96.68" width="5.09" height="5.09"/><rect class="cls-1" x="15.27" y="96.68" width="5.09" height="5.09"/><rect class="cls-1" x="10.18" y="96.68" width="5.09" height="5.09"/><rect class="cls-1" x="10.18" y="101.77" width="5.09" height="5.09"/><rect class="cls-1" x="15.27" y="101.77" width="5.09" height="5.09"/><rect class="cls-1" x="20.35" y="101.77" width="5.09" height="5.09"/><rect class="cls-1" x="10.18" y="91.6" width="5.09" height="5.09"/><rect class="cls-1" x="15.27" y="91.6" width="5.09" height="5.09"/><rect class="cls-1" x="15.27" y="86.51" width="5.09" height="5.09"/><rect class="cls-1" x="15.27" y="81.42" width="5.09" height="5.09"/><rect class="cls-1" x="20.35" y="91.6" width="5.09" height="5.09"/><rect class="cls-1" y="30.53" width="5.09" height="5.09"/><rect class="cls-1" x="10.18" y="30.53" width="5.09" height="5.09"/><rect class="cls-1" x="15.27" y="30.53" width="5.09" height="5.09"/><rect class="cls-1" y="35.62" width="5.09" height="5.09"/><rect class="cls-1" y="40.71" width="5.09" height="5.09"/><rect class="cls-1" y="45.8" width="5.09" height="5.09"/><rect class="cls-1" x="10.18" y="35.62" width="5.09" height="5.09"/><rect class="cls-1" x="15.27" y="35.62" width="5.09" height="5.09"/><rect class="cls-1" x="20.35" y="30.53" width="5.09" height="5.09"/><rect class="cls-1" x="10.18" width="5.09" height="5.09"/><rect class="cls-1" x="15.27" width="5.09" height="5.09"/><rect class="cls-1" x="20.35" width="5.09" height="5.09"/><rect class="cls-1" x="10.18" y="5.09" width="5.09" height="5.09"/><rect class="cls-1" x="15.27" y="5.09" width="5.09" height="5.09"/><rect class="cls-1" x="20.35" y="5.09" width="5.09" height="5.09"/><rect class="cls-1" x="10.18" y="10.18" width="5.09" height="5.09"/><rect class="cls-1" x="15.27" y="10.18" width="5.09" height="5.09"/><rect class="cls-1" x="20.35" y="10.18" width="5.09" height="5.09"/><rect class="cls-1" x="5.09" y="20.35" width="5.09" height="5.09"/><rect class="cls-1" x="10.18" y="20.35" width="5.09" height="5.09"/><rect class="cls-1" x="15.27" y="20.35" width="5.09" height="5.09"/><rect class="cls-1" x="20.35" y="20.35" width="5.09" height="5.09"/><rect class="cls-1" y="25.44" width="5.09" height="5.09"/><rect class="cls-1" x="5.09" y="25.44" width="5.09" height="5.09"/><rect class="cls-1" x="10.18" y="25.44" width="5.09" height="5.09"/><rect class="cls-1" x="15.27" y="25.44" width="5.09" height="5.09"/><rect class="cls-1" x="20.35" y="25.44" width="5.09" height="5.09"/><rect class="cls-1" x="25.44" y="20.35" width="5.09" height="5.09"/><rect class="cls-1" x="30.53" y="25.44" width="5.09" height="5.09"/><rect class="cls-1" x="25.44" y="25.44" width="5.09" height="5.09"/><rect class="cls-1" x="5.09" y="30.53" width="5.09" height="5.09"/><rect class="cls-1" x="25.44" y="30.53" width="5.09" height="5.09"/><rect class="cls-1" x="30.53" y="30.53" width="5.09" height="5.09"/><rect class="cls-1" x="30.53" y="35.62" width="5.09" height="5.09"/><rect class="cls-1" x="35.62" y="35.62" width="5.09" height="5.09"/><rect class="cls-1" x="35.62" y="40.71" width="5.09" height="5.09"/><rect class="cls-1" x="35.62" y="45.8" width="5.09" height="5.09"/><rect class="cls-1" x="35.62" y="55.98" width="5.09" height="5.09"/><rect class="cls-1" x="35.62" y="66.15" width="5.09" height="5.09"/><rect class="cls-1" x="35.62" y="61.06" width="5.09" height="5.09"/><rect class="cls-1" x="35.62" y="71.24" width="5.09" height="5.09"/><rect class="cls-1" x="35.62" y="76.33" width="5.09" height="5.09"/><rect class="cls-1" x="45.8" y="76.33" width="5.09" height="5.09"/><rect class="cls-1" x="35.62" y="81.42" width="5.09" height="5.09"/><rect class="cls-1" x="40.71" y="81.42" width="5.09" height="5.09"/><rect class="cls-1" x="45.8" y="81.42" width="5.09" height="5.09"/><rect class="cls-1" x="35.62" y="86.51" width="5.09" height="5.09"/><rect class="cls-1" x="40.71" y="86.51" width="5.09" height="5.09"/><rect class="cls-1" x="45.8" y="86.51" width="5.09" height="5.09"/><rect class="cls-1" x="35.62" y="91.6" width="5.09" height="5.09"/><rect class="cls-1" x="40.71" y="91.6" width="5.09" height="5.09"/><rect class="cls-1" x="45.8" y="91.6" width="5.09" height="5.09"/><rect class="cls-1" x="35.62" y="96.68" width="5.09" height="5.09"/><rect class="cls-1" x="40.71" y="96.68" width="5.09" height="5.09"/><rect class="cls-1" x="40.71" y="101.77" width="5.09" height="5.09"/><rect class="cls-1" x="45.8" y="96.68" width="5.09" height="5.09"/><rect class="cls-1" x="50.89" y="81.42" width="5.09" height="5.09"/><rect class="cls-1" x="40.71" y="76.33" width="5.09" height="5.09"/><rect class="cls-1" x="50.89" y="76.33" width="5.09" height="5.09"/><rect class="cls-1" x="45.8" y="71.24" width="5.09" height="5.09"/><rect class="cls-1" x="40.71" y="71.24" width="5.09" height="5.09"/><rect class="cls-1" x="50.89" y="71.24" width="5.09" height="5.09"/><rect class="cls-1" x="50.89" y="86.51" width="5.09" height="5.09"/><rect class="cls-1" x="50.89" y="91.6" width="5.09" height="5.09"/><rect class="cls-1" x="50.89" y="96.68" width="5.09" height="5.09"/><rect class="cls-1" x="20.35" y="35.62" width="5.09" height="5.09"/><rect class="cls-1" x="15.27" y="40.71" width="5.09" height="5.09"/><rect class="cls-1" x="10.18" y="40.71" width="5.09" height="5.09"/><rect class="cls-1" x="10.18" y="45.8" width="5.09" height="5.09"/><rect class="cls-1" x="5.09" y="50.89" width="5.09" height="5.09"/><rect class="cls-1" y="50.89" width="5.09" height="5.09"/><rect class="cls-1" x="10.18" y="50.89" width="5.09" height="5.09"/><rect class="cls-1" x="25.44" y="50.89" width="5.09" height="5.09"/><rect class="cls-1" x="20.35" y="40.71" width="5.09" height="5.09"/><rect class="cls-1" x="20.35" y="45.8" width="5.09" height="5.09"/><rect class="cls-1" x="20.35" y="50.89" width="5.09" height="5.09"/><rect class="cls-1" x="15.27" y="45.8" width="5.09" height="5.09"/><rect class="cls-1" x="15.27" y="50.89" width="5.09" height="5.09"/><rect class="cls-1" x="5.09" y="55.98" width="5.09" height="5.09"/><rect class="cls-1" y="55.98" width="5.09" height="5.09"/><rect class="cls-1" x="10.18" y="55.98" width="5.09" height="5.09"/><rect class="cls-1" x="25.44" y="55.98" width="5.09" height="5.09"/><rect class="cls-1" x="20.35" y="55.98" width="5.09" height="5.09"/><rect class="cls-1" x="15.27" y="55.98" width="5.09" height="5.09"/><rect class="cls-1" x="5.09" y="61.06" width="5.09" height="5.09"/><rect class="cls-1" x="10.18" y="61.06" width="5.09" height="5.09"/><rect class="cls-1" x="25.44" y="61.06" width="5.09" height="5.09"/><rect class="cls-1" x="20.35" y="61.06" width="5.09" height="5.09"/><rect class="cls-1" x="15.27" y="61.06" width="5.09" height="5.09"/><rect class="cls-1" x="5.09" y="66.15" width="5.09" height="5.09"/><rect class="cls-1" x="10.18" y="66.15" width="5.09" height="5.09"/><rect class="cls-1" x="25.44" y="66.15" width="5.09" height="5.09"/><rect class="cls-1" x="20.35" y="66.15" width="5.09" height="5.09"/><rect class="cls-1" x="15.27" y="66.15" width="5.09" height="5.09"/><rect class="cls-1" x="10.18" y="71.24" width="5.09" height="5.09"/><rect class="cls-1" x="20.35" y="71.24" width="5.09" height="5.09"/><rect class="cls-1" x="15.27" y="71.24" width="5.09" height="5.09"/><rect class="cls-1" x="10.18" y="76.33" width="5.09" height="5.09"/><rect class="cls-1" x="20.35" y="76.33" width="5.09" height="5.09"/><rect class="cls-1" x="15.27" y="76.33" width="5.09" height="5.09"/><rect class="cls-1" x="10.18" y="81.42" width="5.09" height="5.09"/><rect class="cls-1" x="10.18" y="86.51" width="5.09" height="5.09"/><rect class="cls-1" x="20.35" y="86.51" width="5.09" height="5.09"/><rect class="cls-1" x="20.35" y="81.42" width="5.09" height="5.09"/></g></g></svg>