<svg xmlns="http://www.w3.org/2000/svg" viewBox="0 0 66.53 69.86"><defs><style>.cls-1{fill:#fff;}</style></defs><title>Asset 4</title><g id="Layer_2" data-name="Layer 2"><g id="Layer_1-2" data-name="Layer 1"><rect class="cls-1" x="33.27" width="3.33" height="3.33" transform="translate(69.86 3.33) rotate(180)"/><rect class="cls-1" x="29.94" width="3.33" height="3.33" transform="translate(63.2 3.33) rotate(180)"/><rect class="cls-1" x="26.61" width="3.33" height="3.33" transform="translate(56.55 3.33) rotate(180)"/><rect class="cls-1" x="23.29" width="3.33" height="3.33" transform="translate(49.9 3.33) rotate(180)"/><rect class="cls-1" x="16.63" width="3.33" height="3.33" transform="translate(36.59 3.33) rotate(180)"/><rect class="cls-1" x="13.31" width="3.33" height="3.33" transform="translate(29.94 3.33) rotate(180)"/><rect class="cls-1" x="3.33" width="3.33" height="3.33" transform="translate(9.98 3.33) rotate(180)"/><rect class="cls-1" x="6.65" width="3.33" height="3.33" transform="translate(16.63 3.33) rotate(180)"/><rect class="cls-1" x="9.98" width="3.33" height="3.33" transform="translate(23.29 3.33) rotate(180)"/><rect class="cls-1" width="3.33" height="3.33" transform="translate(3.33 3.33) rotate(180)"/><rect class="cls-1" x="33.27" y="16.63" width="3.33" height="3.33" transform="translate(69.86 36.59) rotate(180)"/><rect class="cls-1" x="29.94" y="16.63" width="3.33" height="3.33" transform="translate(63.2 36.59) rotate(180)"/><rect class="cls-1" x="26.61" y="16.63" width="3.33" height="3.33" transform="translate(56.55 36.59) rotate(180)"/><rect class="cls-1" x="23.29" y="16.63" width="3.33" height="3.33" transform="translate(49.9 36.59) rotate(180)"/><rect class="cls-1" x="16.63" y="16.63" width="3.33" height="3.33" transform="translate(36.59 36.59) rotate(180)"/><rect class="cls-1" x="33.27" y="13.31" width="3.33" height="3.33" transform="translate(69.86 29.94) rotate(180)"/><rect class="cls-1" x="29.94" y="13.31" width="3.33" height="3.33" transform="translate(63.2 29.94) rotate(180)"/><rect class="cls-1" x="26.61" y="13.31" width="3.33" height="3.33" transform="translate(56.55 29.94) rotate(180)"/><rect class="cls-1" x="23.29" y="13.31" width="3.33" height="3.33" transform="translate(49.9 29.94) rotate(180)"/><rect class="cls-1" x="33.27" y="6.65" width="3.33" height="3.33" transform="translate(69.86 16.63) rotate(180)"/><rect class="cls-1" x="29.94" y="6.65" width="3.33" height="3.33" transform="translate(63.2 16.63) rotate(180)"/><rect class="cls-1" x="33.27" y="3.33" width="3.33" height="3.33" transform="translate(69.86 9.98) rotate(180)"/><rect class="cls-1" x="29.94" y="3.33" width="3.33" height="3.33" transform="translate(63.2 9.98) rotate(180)"/><rect class="cls-1" x="26.61" y="6.65" width="3.33" height="3.33" transform="translate(56.55 16.63) rotate(180)"/><rect class="cls-1" x="16.63" y="13.31" width="3.33" height="3.33" transform="translate(36.59 29.94) rotate(180)"/><rect class="cls-1" x="13.31" y="16.63" width="3.33" height="3.33" transform="translate(29.94 36.59) rotate(180)"/><rect class="cls-1" x="3.33" y="16.63" width="3.33" height="3.33" transform="translate(9.98 36.59) rotate(180)"/><rect class="cls-1" x="6.65" y="16.63" width="3.33" height="3.33" transform="translate(16.63 36.59) rotate(180)"/><rect class="cls-1" x="9.98" y="16.63" width="3.33" height="3.33" transform="translate(23.29 36.59) rotate(180)"/><rect class="cls-1" y="16.63" width="3.33" height="3.33" transform="translate(3.33 36.59) rotate(180)"/><rect class="cls-1" x="3.33" y="13.31" width="3.33" height="3.33" transform="translate(9.98 29.94) rotate(180)"/><rect class="cls-1" x="6.65" y="13.31" width="3.33" height="3.33" transform="translate(16.63 29.94) rotate(180)"/><rect class="cls-1" x="9.98" y="13.31" width="3.33" height="3.33" transform="translate(23.29 29.94) rotate(180)"/><rect class="cls-1" x="13.31" y="13.31" width="3.33" height="3.33" transform="translate(29.94 29.94) rotate(180)"/><rect class="cls-1" y="13.31" width="3.33" height="3.33" transform="translate(3.33 29.94) rotate(180)"/><rect class="cls-1" x="23.29" y="6.65" width="3.33" height="3.33" transform="translate(49.9 16.63) rotate(180)"/><rect class="cls-1" x="23.29" y="3.33" width="3.33" height="3.33" transform="translate(49.9 9.98) rotate(180)"/><rect class="cls-1" x="26.61" y="3.33" width="3.33" height="3.33" transform="translate(56.55 9.98) rotate(180)"/><rect class="cls-1" x="3.33" y="6.65" width="3.33" height="3.33" transform="translate(9.98 16.63) rotate(180)"/><rect class="cls-1" x="6.65" y="6.65" width="3.33" height="3.33" transform="translate(16.63 16.63) rotate(180)"/><rect class="cls-1" x="9.98" y="6.65" width="3.33" height="3.33" transform="translate(23.29 16.63) rotate(180)"/><rect class="cls-1" y="6.65" width="3.33" height="3.33" transform="translate(3.33 16.63) rotate(180)"/><rect class="cls-1" x="3.33" y="3.33" width="3.33" height="3.33" transform="translate(9.98 9.98) rotate(180)"/><rect class="cls-1" x="6.65" y="3.33" width="3.33" height="3.33" transform="translate(16.63 9.98) rotate(180)"/><rect class="cls-1" x="9.98" y="3.33" width="3.33" height="3.33" transform="translate(23.29 9.98) rotate(180)"/><rect class="cls-1" x="13.31" y="6.65" width="3.33" height="3.33" transform="translate(29.94 16.63) rotate(180)"/><rect class="cls-1" x="13.31" y="3.33" width="3.33" height="3.33" transform="translate(29.94 9.98) rotate(180)"/><rect class="cls-1" x="16.63" y="6.65" width="3.33" height="3.33" transform="translate(36.59 16.63) rotate(180)"/><rect class="cls-1" x="16.63" y="3.33" width="3.33" height="3.33" transform="translate(36.59 9.98) rotate(180)"/><rect class="cls-1" y="3.33" width="3.33" height="3.33" transform="translate(3.33 9.98) rotate(180)"/><rect class="cls-1" x="33.27" y="33.27" width="3.33" height="3.33" transform="translate(69.86 69.86) rotate(180)"/><rect class="cls-1" x="29.94" y="33.27" width="3.33" height="3.33" transform="translate(63.2 69.86) rotate(180)"/><rect class="cls-1" x="26.61" y="33.27" width="3.33" height="3.33" transform="translate(56.55 69.86) rotate(180)"/><rect class="cls-1" x="23.29" y="33.27" width="3.33" height="3.33" transform="translate(49.9 69.86) rotate(180)"/><rect class="cls-1" x="16.63" y="33.27" width="3.33" height="3.33" transform="translate(36.59 69.86) rotate(180)"/><rect class="cls-1" x="33.27" y="29.94" width="3.33" height="3.33" transform="translate(69.86 63.2) rotate(180)"/><rect class="cls-1" x="29.94" y="29.94" width="3.33" height="3.33" transform="translate(63.2 63.2) rotate(180)"/><rect class="cls-1" x="26.61" y="29.94" width="3.33" height="3.33" transform="translate(56.55 63.2) rotate(180)"/><rect class="cls-1" x="23.29" y="29.94" width="3.33" height="3.33" transform="translate(49.9 63.2) rotate(180)"/><rect class="cls-1" x="33.27" y="26.61" width="3.33" height="3.33" transform="translate(69.86 56.55) rotate(180)"/><rect class="cls-1" x="29.94" y="26.61" width="3.33" height="3.33" transform="translate(63.2 56.55) rotate(180)"/><rect class="cls-1" x="26.61" y="26.61" width="3.33" height="3.33" transform="translate(56.55 56.55) rotate(180)"/><rect class="cls-1" x="33.27" y="19.96" width="3.33" height="3.33" transform="translate(69.86 43.24) rotate(180)"/><rect class="cls-1" x="29.94" y="19.96" width="3.33" height="3.33" transform="translate(63.2 43.24) rotate(180)"/><rect class="cls-1" x="23.29" y="26.61" width="3.33" height="3.33" transform="translate(49.9 56.55) rotate(180)"/><rect class="cls-1" x="16.63" y="29.94" width="3.33" height="3.33" transform="translate(36.59 63.2) rotate(180)"/><rect class="cls-1" x="13.31" y="33.27" width="3.33" height="3.33" transform="translate(29.94 69.86) rotate(180)"/><rect class="cls-1" x="3.33" y="33.27" width="3.33" height="3.33" transform="translate(9.98 69.86) rotate(180)"/><rect class="cls-1" x="6.65" y="33.27" width="3.33" height="3.33" transform="translate(16.63 69.86) rotate(180)"/><rect class="cls-1" x="9.98" y="33.27" width="3.33" height="3.33" transform="translate(23.29 69.86) rotate(180)"/><rect class="cls-1" y="33.27" width="3.33" height="3.33" transform="translate(3.33 69.86) rotate(180)"/><rect class="cls-1" x="3.33" y="29.94" width="3.33" height="3.33" transform="translate(9.98 63.2) rotate(180)"/><rect class="cls-1" x="6.65" y="29.94" width="3.33" height="3.33" transform="translate(16.63 63.2) rotate(180)"/><rect class="cls-1" x="9.98" y="29.94" width="3.33" height="3.33" transform="translate(23.29 63.2) rotate(180)"/><rect class="cls-1" x="13.31" y="29.94" width="3.33" height="3.33" transform="translate(29.94 63.2) rotate(180)"/><rect class="cls-1" y="29.94" width="3.33" height="3.33" transform="translate(3.33 63.2) rotate(180)"/><rect class="cls-1" x="3.33" y="26.61" width="3.33" height="3.33" transform="translate(9.98 56.55) rotate(180)"/><rect class="cls-1" x="6.65" y="26.61" width="3.33" height="3.33" transform="translate(16.63 56.55) rotate(180)"/><rect class="cls-1" x="9.98" y="26.61" width="3.33" height="3.33" transform="translate(23.29 56.55) rotate(180)"/><rect class="cls-1" x="16.63" y="26.61" width="3.33" height="3.33" transform="translate(36.59 56.55) rotate(180)"/><rect class="cls-1" x="23.29" y="19.96" width="3.33" height="3.33" transform="translate(49.9 43.24) rotate(180)"/><rect class="cls-1" x="26.61" y="19.96" width="3.33" height="3.33" transform="translate(56.55 43.24) rotate(180)"/><rect class="cls-1" y="26.61" width="3.33" height="3.33" transform="translate(3.33 56.55) rotate(180)"/><rect class="cls-1" x="3.33" y="19.96" width="3.33" height="3.33" transform="translate(9.98 43.24) rotate(180)"/><rect class="cls-1" x="6.65" y="19.96" width="3.33" height="3.33" transform="translate(16.63 43.24) rotate(180)"/><rect class="cls-1" x="9.98" y="19.96" width="3.33" height="3.33" transform="translate(23.29 43.24) rotate(180)"/><rect class="cls-1" x="13.31" y="26.61" width="3.33" height="3.33" transform="translate(29.94 56.55) rotate(180)"/><rect class="cls-1" x="13.31" y="19.96" width="3.33" height="3.33" transform="translate(29.94 43.24) rotate(180)"/><rect class="cls-1" x="16.63" y="19.96" width="3.33" height="3.33" transform="translate(36.59 43.24) rotate(180)"/><rect class="cls-1" y="19.96" width="3.33" height="3.33" transform="translate(3.33 43.24) rotate(180)"/><rect class="cls-1" x="29.94" y="46.57" width="3.33" height="3.33" transform="translate(63.2 96.47) rotate(180)"/><rect class="cls-1" x="26.61" y="46.57" width="3.33" height="3.33" transform="translate(56.55 96.47) rotate(180)"/><rect class="cls-1" x="23.29" y="46.57" width="3.33" height="3.33" transform="translate(49.9 96.47) rotate(180)"/><rect class="cls-1" x="33.27" y="43.24" width="3.33" height="3.33" transform="translate(69.86 89.82) rotate(180)"/><rect class="cls-1" x="29.94" y="43.24" width="3.33" height="3.33" transform="translate(63.2 89.82) rotate(180)"/><rect class="cls-1" x="26.61" y="43.24" width="3.33" height="3.33" transform="translate(56.55 89.82) rotate(180)"/><rect class="cls-1" x="33.27" y="39.92" width="3.33" height="3.33" transform="translate(69.86 83.16) rotate(180)"/><rect class="cls-1" x="29.94" y="39.92" width="3.33" height="3.33" transform="translate(63.2 83.16) rotate(180)"/><rect class="cls-1" x="26.61" y="39.92" width="3.33" height="3.33" transform="translate(56.55 83.16) rotate(180)"/><rect class="cls-1" x="23.29" y="43.24" width="3.33" height="3.33" transform="translate(49.9 89.82) rotate(180)"/><rect class="cls-1" x="16.63" y="46.57" width="3.33" height="3.33" transform="translate(36.59 96.47) rotate(180)"/><rect class="cls-1" x="3.33" y="46.57" width="3.33" height="3.33" transform="translate(9.98 96.47) rotate(180)"/><rect class="cls-1" x="6.65" y="46.57" width="3.33" height="3.33" transform="translate(16.63 96.47) rotate(180)"/><rect class="cls-1" x="9.98" y="46.57" width="3.33" height="3.33" transform="translate(23.29 96.47) rotate(180)"/><rect class="cls-1" x="13.31" y="46.57" width="3.33" height="3.33" transform="translate(29.94 96.47) rotate(180)"/><rect class="cls-1" y="46.57" width="3.33" height="3.33" transform="translate(3.33 96.47) rotate(180)"/><rect class="cls-1" x="3.33" y="43.24" width="3.33" height="3.33" transform="translate(9.98 89.82) rotate(180)"/><rect class="cls-1" x="6.65" y="43.24" width="3.33" height="3.33" transform="translate(16.63 89.82) rotate(180)"/><rect class="cls-1" x="9.98" y="43.24" width="3.33" height="3.33" transform="translate(23.29 89.82) rotate(180)"/><rect class="cls-1" x="16.63" y="43.24" width="3.33" height="3.33" transform="translate(36.59 89.82) rotate(180)"/><rect class="cls-1" x="23.29" y="39.92" width="3.33" height="3.33" transform="translate(49.9 83.16) rotate(180)"/><rect class="cls-1" y="43.24" width="3.33" height="3.33" transform="translate(3.33 89.82) rotate(180)"/><rect class="cls-1" x="3.33" y="39.92" width="3.33" height="3.33" transform="translate(9.98 83.16) rotate(180)"/><rect class="cls-1" x="6.65" y="39.92" width="3.33" height="3.33" transform="translate(16.63 83.16) rotate(180)"/><rect class="cls-1" x="9.98" y="39.92" width="3.33" height="3.33" transform="translate(23.29 83.16) rotate(180)"/><rect class="cls-1" y="39.92" width="3.33" height="3.33" transform="translate(3.33 83.16) rotate(180)"/><rect class="cls-1" x="13.31" y="43.24" width="3.33" height="3.33" transform="translate(29.94 89.82) rotate(180)"/><rect class="cls-1" x="13.31" y="39.92" width="3.33" height="3.33" transform="translate(29.94 83.16) rotate(180)"/><rect class="cls-1" x="16.63" y="39.92" width="3.33" height="3.33" transform="translate(36.59 83.16) rotate(180)"/><rect class="cls-1" x="29.94" y="66.53" width="3.33" height="3.33" transform="translate(63.2 136.39) rotate(180)"/><rect class="cls-1" x="26.61" y="66.53" width="3.33" height="3.33" transform="translate(56.55 136.39) rotate(180)"/><rect class="cls-1" x="23.29" y="66.53" width="3.33" height="3.33" transform="translate(49.9 136.39) rotate(180)"/><rect class="cls-1" x="16.63" y="66.53" width="3.33" height="3.33" transform="translate(36.59 136.39) rotate(180)"/><rect class="cls-1" x="29.94" y="63.2" width="3.33" height="3.33" transform="translate(63.2 129.73) rotate(180)"/><rect class="cls-1" x="26.61" y="63.2" width="3.33" height="3.33" transform="translate(56.55 129.73) rotate(180)"/><rect class="cls-1" x="23.29" y="63.2" width="3.33" height="3.33" transform="translate(49.9 129.73) rotate(180)"/><rect class="cls-1" x="29.94" y="59.88" width="3.33" height="3.33" transform="translate(63.2 123.08) rotate(180)"/><rect class="cls-1" x="26.61" y="59.88" width="3.33" height="3.33" transform="translate(56.55 123.08) rotate(180)"/><rect class="cls-1" x="29.94" y="56.55" width="3.33" height="3.33" transform="translate(63.2 116.43) rotate(180)"/><rect class="cls-1" x="29.94" y="53.22" width="3.33" height="3.33" transform="translate(63.2 109.77) rotate(180)"/><rect class="cls-1" x="26.61" y="56.55" width="3.33" height="3.33" transform="translate(56.55 116.43) rotate(180)"/><rect class="cls-1" x="23.29" y="59.88" width="3.33" height="3.33" transform="translate(49.9 123.08) rotate(180)"/><rect class="cls-1" x="16.63" y="63.2" width="3.33" height="3.33" transform="translate(36.59 129.73) rotate(180)"/><rect class="cls-1" x="13.31" y="66.53" width="3.33" height="3.33" transform="translate(29.94 136.39) rotate(180)"/><rect class="cls-1" x="3.33" y="66.53" width="3.33" height="3.33" transform="translate(9.98 136.39) rotate(180)"/><rect class="cls-1" x="6.65" y="66.53" width="3.33" height="3.33" transform="translate(16.63 136.39) rotate(180)"/><rect class="cls-1" x="9.98" y="66.53" width="3.33" height="3.33" transform="translate(23.29 136.39) rotate(180)"/><rect class="cls-1" y="66.53" width="3.33" height="3.33" transform="translate(3.33 136.39) rotate(180)"/><rect class="cls-1" x="3.33" y="63.2" width="3.33" height="3.33" transform="translate(9.98 129.73) rotate(180)"/><rect class="cls-1" x="6.65" y="63.2" width="3.33" height="3.33" transform="translate(16.63 129.73) rotate(180)"/><rect class="cls-1" x="9.98" y="63.2" width="3.33" height="3.33" transform="translate(23.29 129.73) rotate(180)"/><rect class="cls-1" x="13.31" y="63.2" width="3.33" height="3.33" transform="translate(29.94 129.73) rotate(180)"/><rect class="cls-1" y="63.2" width="3.33" height="3.33" transform="translate(3.33 129.73) rotate(180)"/><rect class="cls-1" x="3.33" y="59.88" width="3.33" height="3.33" transform="translate(9.98 123.08) rotate(180)"/><rect class="cls-1" x="6.65" y="59.88" width="3.33" height="3.33" transform="translate(16.63 123.08) rotate(180)"/><rect class="cls-1" x="9.98" y="59.88" width="3.33" height="3.33" transform="translate(23.29 123.08) rotate(180)"/><rect class="cls-1" x="16.63" y="59.88" width="3.33" height="3.33" transform="translate(36.59 123.08) rotate(180)"/><rect class="cls-1" x="23.29" y="56.55" width="3.33" height="3.33" transform="translate(49.9 116.43) rotate(180)"/><rect class="cls-1" x="23.29" y="53.22" width="3.33" height="3.33" transform="translate(49.9 109.77) rotate(180)"/><rect class="cls-1" x="26.61" y="53.22" width="3.33" height="3.33" transform="translate(56.55 109.77) rotate(180)"/><rect class="cls-1" y="59.88" width="3.33" height="3.33" transform="translate(3.33 123.08) rotate(180)"/><rect class="cls-1" x="3.33" y="56.55" width="3.33" height="3.33" transform="translate(9.98 116.43) rotate(180)"/><rect class="cls-1" x="6.65" y="56.55" width="3.33" height="3.33" transform="translate(16.63 116.43) rotate(180)"/><rect class="cls-1" x="9.98" y="56.55" width="3.33" height="3.33" transform="translate(23.29 116.43) rotate(180)"/><rect class="cls-1" y="56.55" width="3.33" height="3.33" transform="translate(3.33 116.43) rotate(180)"/><rect class="cls-1" x="3.33" y="53.22" width="3.33" height="3.33" transform="translate(9.98 109.77) rotate(180)"/><rect class="cls-1" x="6.65" y="53.22" width="3.33" height="3.33" transform="translate(16.63 109.77) rotate(180)"/><rect class="cls-1" x="9.98" y="53.22" width="3.33" height="3.33" transform="translate(23.29 109.77) rotate(180)"/><rect class="cls-1" x="13.31" y="59.88" width="3.33" height="3.33" transform="translate(29.94 123.08) rotate(180)"/><rect class="cls-1" x="13.31" y="56.55" width="3.33" height="3.33" transform="translate(29.94 116.43) rotate(180)"/><rect class="cls-1" x="13.31" y="53.22" width="3.33" height="3.33" transform="translate(29.94 109.77) rotate(180)"/><rect class="cls-1" x="16.63" y="56.55" width="3.33" height="3.33" transform="translate(36.59 116.43) rotate(180)"/><rect class="cls-1" x="16.63" y="53.22" width="3.33" height="3.33" transform="translate(36.59 109.77) rotate(180)"/><rect class="cls-1" y="53.22" width="3.33" height="3.33" transform="translate(3.33 109.77) rotate(180)"/><rect class="cls-1" x="63.2" width="3.33" height="3.33" transform="translate(129.73 3.33) rotate(180)"/><rect class="cls-1" x="59.88" width="3.33" height="3.33" transform="translate(123.08 3.33) rotate(180)"/><rect class="cls-1" x="56.55" width="3.33" height="3.33" transform="translate(116.43 3.33) rotate(180)"/><rect class="cls-1" x="53.22" width="3.33" height="3.33" transform="translate(109.77 3.33) rotate(180)"/><rect class="cls-1" x="49.9" width="3.33" height="3.33" transform="translate(103.12 3.33) rotate(180)"/><rect class="cls-1" x="39.92" width="3.33" height="3.33" transform="translate(83.16 3.33) rotate(180)"/><rect class="cls-1" x="46.57" width="3.33" height="3.33" transform="translate(96.47 3.33) rotate(180)"/><rect class="cls-1" x="36.59" width="3.33" height="3.33" transform="translate(76.51 3.33) rotate(180)"/><rect class="cls-1" x="19.96" y="6.65" width="3.33" height="3.33" transform="translate(43.24 16.63) rotate(180)"/><rect class="cls-1" x="19.96" y="3.33" width="3.33" height="3.33" transform="translate(43.24 9.98) rotate(180)"/><rect class="cls-1" x="19.96" width="3.33" height="3.33" transform="translate(43.24 3.33) rotate(180)"/><rect class="cls-1" x="43.24" y="6.65" width="3.33" height="3.33" transform="translate(89.82 16.63) rotate(180)"/><rect class="cls-1" x="43.24" y="3.33" width="3.33" height="3.33" transform="translate(89.82 9.98) rotate(180)"/><rect class="cls-1" x="43.24" width="3.33" height="3.33" transform="translate(89.82 3.33) rotate(180)"/><rect class="cls-1" x="63.2" y="16.63" width="3.33" height="3.33" transform="translate(129.73 36.59) rotate(180)"/><rect class="cls-1" x="59.88" y="16.63" width="3.33" height="3.33" transform="translate(123.08 36.59) rotate(180)"/><rect class="cls-1" x="56.55" y="16.63" width="3.33" height="3.33" transform="translate(116.43 36.59) rotate(180)"/><rect class="cls-1" x="53.22" y="16.63" width="3.33" height="3.33" transform="translate(109.77 36.59) rotate(180)"/><rect class="cls-1" x="63.2" y="13.31" width="3.33" height="3.33" transform="translate(129.73 29.94) rotate(180)"/><rect class="cls-1" x="59.88" y="13.31" width="3.33" height="3.33" transform="translate(123.08 29.94) rotate(180)"/><rect class="cls-1" x="63.2" y="6.65" width="3.33" height="3.33" transform="translate(129.73 16.63) rotate(180)"/><rect class="cls-1" x="56.55" y="13.31" width="3.33" height="3.33" transform="translate(116.43 29.94) rotate(180)"/><rect class="cls-1" x="53.22" y="13.31" width="3.33" height="3.33" transform="translate(109.77 29.94) rotate(180)"/><rect class="cls-1" x="49.9" y="16.63" width="3.33" height="3.33" transform="translate(103.12 36.59) rotate(180)"/><rect class="cls-1" x="39.92" y="16.63" width="3.33" height="3.33" transform="translate(83.16 36.59) rotate(180)"/><rect class="cls-1" x="46.57" y="16.63" width="3.33" height="3.33" transform="translate(96.47 36.59) rotate(180)"/><rect class="cls-1" x="36.59" y="16.63" width="3.33" height="3.33" transform="translate(76.51 36.59) rotate(180)"/><rect class="cls-1" x="39.92" y="13.31" width="3.33" height="3.33" transform="translate(83.16 29.94) rotate(180)"/><rect class="cls-1" x="46.57" y="13.31" width="3.33" height="3.33" transform="translate(96.47 29.94) rotate(180)"/><rect class="cls-1" x="49.9" y="13.31" width="3.33" height="3.33" transform="translate(103.12 29.94) rotate(180)"/><rect class="cls-1" x="36.59" y="13.31" width="3.33" height="3.33" transform="translate(76.51 29.94) rotate(180)"/><rect class="cls-1" x="56.55" y="6.65" width="3.33" height="3.33" transform="translate(116.43 16.63) rotate(180)"/><rect class="cls-1" x="59.88" y="6.65" width="3.33" height="3.33" transform="translate(123.08 16.63) rotate(180)"/><rect class="cls-1" x="59.88" y="3.33" width="3.33" height="3.33" transform="translate(123.08 9.98) rotate(180)"/><rect class="cls-1" x="63.2" y="3.33" width="3.33" height="3.33" transform="translate(129.73 9.98) rotate(180)"/><rect class="cls-1" x="56.55" y="3.33" width="3.33" height="3.33" transform="translate(116.43 9.98) rotate(180)"/><rect class="cls-1" x="39.92" y="6.65" width="3.33" height="3.33" transform="translate(83.16 16.63) rotate(180)"/><rect class="cls-1" x="46.57" y="6.65" width="3.33" height="3.33" transform="translate(96.47 16.63) rotate(180)"/><rect class="cls-1" x="36.59" y="6.65" width="3.33" height="3.33" transform="translate(76.51 16.63) rotate(180)"/><rect class="cls-1" x="39.92" y="3.33" width="3.33" height="3.33" transform="translate(83.16 9.98) rotate(180)"/><rect class="cls-1" x="46.57" y="3.33" width="3.33" height="3.33" transform="translate(96.47 9.98) rotate(180)"/><rect class="cls-1" x="49.9" y="6.65" width="3.33" height="3.33" transform="translate(103.12 16.63) rotate(180)"/><rect class="cls-1" x="49.9" y="3.33" width="3.33" height="3.33" transform="translate(103.12 9.98) rotate(180)"/><rect class="cls-1" x="53.22" y="6.65" width="3.33" height="3.33" transform="translate(109.77 16.63) rotate(180)"/><rect class="cls-1" x="53.22" y="3.33" width="3.33" height="3.33" transform="translate(109.77 9.98) rotate(180)"/><rect class="cls-1" x="36.59" y="3.33" width="3.33" height="3.33" transform="translate(76.51 9.98) rotate(180)"/><rect class="cls-1" x="63.2" y="33.27" width="3.33" height="3.33" transform="translate(129.73 69.86) rotate(180)"/><rect class="cls-1" x="59.88" y="33.27" width="3.33" height="3.33" transform="translate(123.08 69.86) rotate(180)"/><rect class="cls-1" x="56.55" y="33.27" width="3.33" height="3.33" transform="translate(116.43 69.86) rotate(180)"/><rect class="cls-1" x="53.22" y="33.27" width="3.33" height="3.33" transform="translate(109.77 69.86) rotate(180)"/><rect class="cls-1" x="63.2" y="29.94" width="3.33" height="3.33" transform="translate(129.73 63.2) rotate(180)"/><rect class="cls-1" x="59.88" y="29.94" width="3.33" height="3.33" transform="translate(123.08 63.2) rotate(180)"/><rect class="cls-1" x="63.2" y="26.61" width="3.33" height="3.33" transform="translate(129.73 56.55) rotate(180)"/><rect class="cls-1" x="59.88" y="26.61" width="3.33" height="3.33" transform="translate(123.08 56.55) rotate(180)"/><rect class="cls-1" x="56.55" y="29.94" width="3.33" height="3.33" transform="translate(116.43 63.2) rotate(180)"/><rect class="cls-1" x="53.22" y="29.94" width="3.33" height="3.33" transform="translate(109.77 63.2) rotate(180)"/><rect class="cls-1" x="49.9" y="33.27" width="3.33" height="3.33" transform="translate(103.12 69.86) rotate(180)"/><rect class="cls-1" x="39.92" y="33.27" width="3.33" height="3.33" transform="translate(83.16 69.86) rotate(180)"/><rect class="cls-1" x="46.57" y="33.27" width="3.33" height="3.33" transform="translate(96.47 69.86) rotate(180)"/><rect class="cls-1" x="36.59" y="33.27" width="3.33" height="3.33" transform="translate(76.51 69.86) rotate(180)"/><rect class="cls-1" x="39.92" y="29.94" width="3.33" height="3.33" transform="translate(83.16 63.2) rotate(180)"/><rect class="cls-1" x="46.57" y="29.94" width="3.33" height="3.33" transform="translate(96.47 63.2) rotate(180)"/><rect class="cls-1" x="49.9" y="29.94" width="3.33" height="3.33" transform="translate(103.12 63.2) rotate(180)"/><rect class="cls-1" x="36.59" y="29.94" width="3.33" height="3.33" transform="translate(76.51 63.2) rotate(180)"/><rect class="cls-1" x="39.92" y="26.61" width="3.33" height="3.33" transform="translate(83.16 56.55) rotate(180)"/><rect class="cls-1" x="46.57" y="26.61" width="3.33" height="3.33" transform="translate(96.47 56.55) rotate(180)"/><rect class="cls-1" x="53.22" y="26.61" width="3.33" height="3.33" transform="translate(109.77 56.55) rotate(180)"/><rect class="cls-1" x="56.55" y="26.61" width="3.33" height="3.33" transform="translate(116.43 56.55) rotate(180)"/><rect class="cls-1" x="59.88" y="19.96" width="3.33" height="3.33" transform="translate(123.08 43.24) rotate(180)"/><rect class="cls-1" x="63.2" y="19.96" width="3.33" height="3.33" transform="translate(129.73 43.24) rotate(180)"/><rect class="cls-1" x="56.55" y="19.96" width="3.33" height="3.33" transform="translate(116.43 43.24) rotate(180)"/><rect class="cls-1" x="36.59" y="26.61" width="3.33" height="3.33" transform="translate(76.51 56.55) rotate(180)"/><rect class="cls-1" x="39.92" y="19.96" width="3.33" height="3.33" transform="translate(83.16 43.24) rotate(180)"/><rect class="cls-1" x="46.57" y="19.96" width="3.33" height="3.33" transform="translate(96.47 43.24) rotate(180)"/><rect class="cls-1" x="49.9" y="26.61" width="3.33" height="3.33" transform="translate(103.12 56.55) rotate(180)"/><rect class="cls-1" x="49.9" y="19.96" width="3.33" height="3.33" transform="translate(103.12 43.24) rotate(180)"/><rect class="cls-1" x="53.22" y="19.96" width="3.33" height="3.33" transform="translate(109.77 43.24) rotate(180)"/><rect class="cls-1" x="36.59" y="19.96" width="3.33" height="3.33" transform="translate(76.51 43.24) rotate(180)"/><rect class="cls-1" x="63.2" y="46.57" width="3.33" height="3.33" transform="translate(129.73 96.47) rotate(180)"/><rect class="cls-1" x="59.88" y="46.57" width="3.33" height="3.33" transform="translate(123.08 96.47) rotate(180)"/><rect class="cls-1" x="63.2" y="43.24" width="3.33" height="3.33" transform="translate(129.73 89.82) rotate(180)"/><rect class="cls-1" x="63.2" y="39.92" width="3.33" height="3.33" transform="translate(129.73 83.16) rotate(180)"/><rect class="cls-1" x="59.88" y="43.24" width="3.33" height="3.33" transform="translate(123.08 89.82) rotate(180)"/><rect class="cls-1" x="56.55" y="46.57" width="3.33" height="3.33" transform="translate(116.43 96.47) rotate(180)"/><rect class="cls-1" x="39.92" y="43.24" width="3.33" height="3.33" transform="translate(83.16 89.82) rotate(180)"/><rect class="cls-1" x="46.57" y="43.24" width="3.33" height="3.33" transform="translate(96.47 89.82) rotate(180)"/><rect class="cls-1" x="53.22" y="43.24" width="3.33" height="3.33" transform="translate(109.77 89.82) rotate(180)"/><rect class="cls-1" x="56.55" y="43.24" width="3.33" height="3.33" transform="translate(116.43 89.82) rotate(180)"/><rect class="cls-1" x="56.55" y="39.92" width="3.33" height="3.33" transform="translate(116.43 83.16) rotate(180)"/><rect class="cls-1" x="59.88" y="39.92" width="3.33" height="3.33" transform="translate(123.08 83.16) rotate(180)"/><rect class="cls-1" x="36.59" y="43.24" width="3.33" height="3.33" transform="translate(76.51 89.82) rotate(180)"/><rect class="cls-1" x="39.92" y="39.92" width="3.33" height="3.33" transform="translate(83.16 83.16) rotate(180)"/><rect class="cls-1" x="46.57" y="39.92" width="3.33" height="3.33" transform="translate(96.47 83.16) rotate(180)"/><rect class="cls-1" x="36.59" y="39.92" width="3.33" height="3.33" transform="translate(76.51 83.16) rotate(180)"/><rect class="cls-1" x="49.9" y="43.24" width="3.33" height="3.33" transform="translate(103.12 89.82) rotate(180)"/><rect class="cls-1" x="33.27" y="46.57" width="3.33" height="3.33" transform="translate(69.86 96.47) rotate(180)"/><rect class="cls-1" x="39.92" y="46.57" width="3.33" height="3.33" transform="translate(83.16 96.47) rotate(180)"/><rect class="cls-1" x="46.57" y="46.57" width="3.33" height="3.33" transform="translate(96.47 96.47) rotate(180)"/><rect class="cls-1" x="53.22" y="46.57" width="3.33" height="3.33" transform="translate(109.77 96.47) rotate(180)"/><rect class="cls-1" x="36.59" y="46.57" width="3.33" height="3.33" transform="translate(76.51 96.47) rotate(180)"/><rect class="cls-1" x="49.9" y="46.57" width="3.33" height="3.33" transform="translate(103.12 96.47) rotate(180)"/><rect class="cls-1" x="49.9" y="39.92" width="3.33" height="3.33" transform="translate(103.12 83.16) rotate(180)"/><rect class="cls-1" x="53.22" y="39.92" width="3.33" height="3.33" transform="translate(109.77 83.16) rotate(180)"/><rect class="cls-1" x="63.2" y="66.53" width="3.33" height="3.33" transform="translate(129.73 136.39) rotate(180)"/><rect class="cls-1" x="59.88" y="66.53" width="3.33" height="3.33" transform="translate(123.08 136.39) rotate(180)"/><rect class="cls-1" x="56.55" y="66.53" width="3.33" height="3.33" transform="translate(116.43 136.39) rotate(180)"/><rect class="cls-1" x="63.2" y="63.2" width="3.33" height="3.33" transform="translate(129.73 129.73) rotate(180)"/><rect class="cls-1" x="59.88" y="63.2" width="3.33" height="3.33" transform="translate(123.08 129.73) rotate(180)"/><rect class="cls-1" x="63.2" y="59.88" width="3.33" height="3.33" transform="translate(129.73 123.08) rotate(180)"/><rect class="cls-1" x="63.2" y="56.55" width="3.33" height="3.33" transform="translate(129.73 116.43) rotate(180)"/><rect class="cls-1" x="59.88" y="59.88" width="3.33" height="3.33" transform="translate(123.08 123.08) rotate(180)"/><rect class="cls-1" x="56.55" y="63.2" width="3.33" height="3.33" transform="translate(116.43 129.73) rotate(180)"/><rect class="cls-1" x="56.55" y="59.88" width="3.33" height="3.33" transform="translate(116.43 123.08) rotate(180)"/><rect class="cls-1" x="56.55" y="56.55" width="3.33" height="3.33" transform="translate(116.43 116.43) rotate(180)"/><rect class="cls-1" x="59.88" y="56.55" width="3.33" height="3.33" transform="translate(123.08 116.43) rotate(180)"/><rect class="cls-1" x="59.88" y="53.22" width="3.33" height="3.33" transform="translate(123.08 109.77) rotate(180)"/><rect class="cls-1" x="63.2" y="53.22" width="3.33" height="3.33" transform="translate(129.73 109.77) rotate(180)"/><rect class="cls-1" x="56.55" y="53.22" width="3.33" height="3.33" transform="translate(116.43 109.77) rotate(180)"/></g></g></svg>