<svg xmlns="http://www.w3.org/2000/svg" viewBox="0 0 66.53 69.86"><defs><style>.cls-1{fill:#fff;}</style></defs><title>venue</title><g id="Layer_2" data-name="Layer 2"><g id="Layer_1-2" data-name="Layer 1"><polygon class="cls-1" points="13.31 13.31 9.98 13.31 6.65 13.31 3.33 13.31 0 13.31 0 16.63 0 19.96 0 23.29 3.33 23.29 6.65 23.29 9.98 23.29 13.31 23.29 16.63 23.29 19.96 23.29 19.96 19.96 19.96 16.63 19.96 13.31 16.63 13.31 13.31 13.31"/><polygon class="cls-1" points="13.31 26.61 9.98 26.61 6.65 26.61 3.33 26.61 0 26.61 0 29.94 0 33.27 0 36.59 3.33 36.59 6.65 36.59 9.98 36.59 13.31 36.59 16.63 36.59 19.96 36.59 19.96 33.27 19.96 29.94 19.96 26.61 16.63 26.61 13.31 26.61"/><polygon class="cls-1" points="13.31 39.92 9.98 39.92 6.65 39.92 3.33 39.92 0 39.92 0 43.24 0 46.57 0 49.9 3.33 49.9 6.65 49.9 9.98 49.9 13.31 49.9 16.63 49.9 19.96 49.9 19.96 46.57 19.96 43.24 19.96 39.92 16.63 39.92 13.31 39.92"/><polygon class="cls-1" points="26.61 53.22 23.29 53.22 23.29 56.55 23.29 59.88 23.29 63.2 23.29 66.53 23.29 69.86 26.61 69.86 29.94 69.86 33.27 69.86 33.27 66.53 33.27 63.2 33.27 59.88 33.27 56.55 33.27 53.22 29.94 53.22 26.61 53.22"/><polygon class="cls-1" points="13.31 53.22 9.98 53.22 6.65 53.22 3.33 53.22 0 53.22 0 56.55 0 59.88 0 63.2 0 66.53 0 69.86 3.33 69.86 6.65 69.86 9.98 69.86 13.31 69.86 16.63 69.86 19.96 69.86 19.96 66.53 19.96 63.2 19.96 59.88 19.96 56.55 19.96 53.22 16.63 53.22 13.31 53.22"/><polygon class="cls-1" points="63.2 0 59.88 0 56.55 0 53.22 0 49.9 0 46.57 0 43.24 0 39.92 0 36.59 0 33.27 0 29.94 0 26.61 0 23.29 0 19.96 0 16.63 0 13.31 0 9.98 0 6.65 0 3.33 0 0 0 0 3.33 0 6.65 0 9.98 3.33 9.98 6.65 9.98 9.98 9.98 13.31 9.98 16.63 9.98 19.96 9.98 23.29 9.98 26.61 9.98 29.94 9.98 33.27 9.98 36.59 9.98 39.92 9.98 43.24 9.98 46.57 9.98 49.9 9.98 53.22 9.98 56.55 9.98 59.88 9.98 63.2 9.98 66.53 9.98 66.53 6.65 66.53 3.33 66.53 0 63.2 0"/><polygon class="cls-1" points="59.88 13.31 56.55 13.31 53.22 13.31 49.9 13.31 46.57 13.31 46.57 16.63 46.57 19.96 46.57 23.29 49.9 23.29 53.22 23.29 56.55 23.29 59.88 23.29 63.2 23.29 66.53 23.29 66.53 19.96 66.53 16.63 66.53 13.31 63.2 13.31 59.88 13.31"/><polygon class="cls-1" points="36.59 13.31 33.27 13.31 29.94 13.31 26.61 13.31 23.29 13.31 23.29 16.63 23.29 19.96 23.29 23.29 26.61 23.29 29.94 23.29 33.27 23.29 36.59 23.29 39.92 23.29 43.24 23.29 43.24 19.96 43.24 16.63 43.24 13.31 39.92 13.31 36.59 13.31"/><polygon class="cls-1" points="59.88 26.61 56.55 26.61 53.22 26.61 49.9 26.61 46.57 26.61 46.57 29.94 46.57 33.27 46.57 36.59 49.9 36.59 53.22 36.59 56.55 36.59 59.88 36.59 63.2 36.59 66.53 36.59 66.53 33.27 66.53 29.94 66.53 26.61 63.2 26.61 59.88 26.61"/><polygon class="cls-1" points="36.59 26.61 33.27 26.61 29.94 26.61 26.61 26.61 23.29 26.61 23.29 29.94 23.29 33.27 23.29 36.59 26.61 36.59 29.94 36.59 33.27 36.59 36.59 36.59 39.92 36.59 43.24 36.59 43.24 33.27 43.24 29.94 43.24 26.61 39.92 26.61 36.59 26.61"/><polygon class="cls-1" points="59.88 39.92 56.55 39.92 53.22 39.92 49.9 39.92 46.57 39.92 46.57 43.24 46.57 46.57 46.57 49.9 49.9 49.9 53.22 49.9 56.55 49.9 59.88 49.9 63.2 49.9 66.53 49.9 66.53 46.57 66.53 43.24 66.53 39.92 63.2 39.92 59.88 39.92"/><polygon class="cls-1" points="36.59 39.92 33.27 39.92 29.94 39.92 26.61 39.92 23.29 39.92 23.29 43.24 23.29 46.57 23.29 49.9 26.61 49.9 29.94 49.9 33.27 49.9 36.59 49.9 39.92 49.9 43.24 49.9 43.24 46.57 43.24 43.24 43.24 39.92 39.92 39.92 36.59 39.92"/><polygon class="cls-1" points="59.88 53.22 56.55 53.22 56.55 56.55 56.55 59.88 56.55 63.2 56.55 66.53 56.55 69.86 59.88 69.86 63.2 69.86 66.53 69.86 66.53 66.53 66.53 63.2 66.53 59.88 66.53 56.55 66.53 53.22 63.2 53.22 59.88 53.22"/></g></g></svg>