<svg xmlns="http://www.w3.org/2000/svg" width="562" height="594" version="1"><path fill="none" fill-rule="evenodd" stroke="black" stroke-width="2" d="M81 494l71-71 28 28c14 15 18 36 10 55l-14 30-21-21-25 26-25-24 43-43 90 90c10 10 27 10 37 0l49-49c5-5 15-5 20 0l1 1a15 15 0 1 1-21 21l-39-39-39 1c-8 1-11 11-6 17l6 5-12 12 6 5c7 7 19 7 26 0l109-109-57-58-28 28c-4 3-9 3-12 0s-3-8 0-12c3-3 8-3 12 0l28 28-54 54-29-30c-9-9-9-24 0-33l6-6-18-19 55-18-33-33 27-27-36-36-73 73 8 8c6 6 15 6 21 0l6-5 6 6 8-21 5-5c13-13 16-33 2-47-12-11-29-11-39-1-4 3-4 9-1 12 4 4 10 4 13 0 3-3 3-9 0-12l-8-8c-5-5-13-5-19 0l-12 13-38 38 8 8c6 5 15 5 20 0l23-23-39-39-82 83c-5 4-5 11 0 15v1a11 11 0 0 0 15-15l-8-8-50 11 25 26-25 24 28 27c15 15 39 15 54 0l50-49L15 261l50-50c9-9 9-24 0-33l-39 7 16 16-13 13 43 43 23-24c23-23 23-60 0-83l-21-22-7 7c-8 9-8 23 0 31l56-56 69 69 17-16-15-16-40 40a29 29 0 0 0 0 41l14 14 38-39 19 20v-40l17-16c7-8 7-20 0-28l-40-40-19 20 106 106c10 11 27 11 37 0l72-72-57-58c-9-9-9-24 0-33l13-13 7 7a10 10 0 0 1-14 14l-18-18 30-30 25 25c7 8 11 18 10 28l-6 46-16-17-24 25-47-47-25 25c-9-9-9-24 0-33l35-35-32-32c-8-8-22-8-31 0l-7 8 39 39 11-11-29-29-36 11c-2 1-3 4-1 6l10 10-12 12c-7 7-7 18 0 25l56 56 19-19 41 41-38 8 16 16-50 49 74 74 2-2c8-8 8-21 0-30l-2-1-48 48 37 37 25-26 19 19 23-73-26-26 94-95 13 13-2 2c-8 8-20 8-27 0l-24-23 16-16-13-12 13-5c16-7 34-4 46 8l47 48-75 75a54 54 0 0 0 0 77l17-17 15 14 13-43 22-22-50-51-20 19 94 94 11-11-12-12h-1L422 419l-16-16c-6-6-6-15 0-21l9-9-6-7c-2-2-1-5 2-6l19-2 5-5c14-13 36-13 49 1l6 5 4 5c9 8 9 22 1 31l-4 3c-3 4-9 4-12 1-4-4-4-10 0-13s9-3 12 1l8 7c5 5 5 14 0 19l-13 12-28 29-16-15c-5-6-5-15 0-20l6-6a10 10 0 1 1 14 14l-45 44-19-19-43 43 47 46c9 9 24 9 33 0l13-13-7-7a10 10 0 0 0-14 14l21 21 34-35-33-33-61 6 17 17-25 24c-8 9-8 23 0 31l27 27"/></svg>