<svg xmlns="http://www.w3.org/2000/svg" xmlns:xlink="http://www.w3.org/1999/xlink" viewBox="0 0 1152 358"><defs><path id="a" d="M.177 357.322H1175V.663H.177z"/></defs><g fill="none" fill-rule="evenodd" transform="translate(-13)"><mask id="b" fill="#fff"><use xlink:href="#a"/></mask><g stroke="#1565C0" stroke-width="1.33" mask="url(#b)"><path d="M736.4362 427.079h153.447v-87.808l23.54-23.54v21.797l21.797-21.797v84.28h-132.06v-59.868h70.35v39.234h-83.277V277.951h111.856v2.12c0 10.385 8.419 18.804 18.804 18.804h9.968v-42.866c0-11.797-9.564-21.361-21.361-21.361h-16.243v20.053l-7.57 7.83c-1.785 1.847-.476 4.934 2.093 4.934h97.262l10.96-133.692h22.291c4.382 0 7.935-3.553 7.935-7.935 0-4.383-3.553-7.935-7.935-7.935h-14.196v26.799h24.456l9.3 86.31h-90.678v-53.063h17.438v36.911h-110.784c-6.552 0-11.863-5.312-11.863-11.864v-.104c0-6.553 5.311-11.864 11.863-11.864s11.864 5.311 11.864 11.864v10.073c0 8.907-7.221 16.129-16.129 16.129h-.001c-8.908 0-16.129-7.222-16.129-16.129 0-2.021-1.638-3.66-3.659-3.66h-3.948c-2.021 0-3.659 1.639-3.659 3.66v.485c0 8.64-7.004 15.644-15.644 15.644s-15.644-7.004-15.644-15.644v-1.589c0-18.569 15.053-33.621 33.621-33.621h106.94v20.635h-29.352v-54.927c0-17.177 13.924-31.101 31.101-31.101h30.801v45.549h-173.758V40.257h36.928c10.49 0 20.57 4.077 28.11 11.371l35.909 34.736h-17.826v46.308h-33.132V98.958h18.213v22.088h-32.424V87.139h-12.915l48.945-43.329c8.332-6.137 13.251-15.869 13.251-26.218v-3.305c0-5.244-4.251-9.494-9.494-9.494-5.244 0-9.494 4.25-9.494 9.494v1.744c0 5.243 4.25 9.494 9.494 9.494h56.199l19.569 32.163h-13.95v17.826h-19.448c-6.386 0-11.563-5.177-11.563-11.563V38.7h20.834c2.517 0 4.558 2.041 4.558 4.558v.959c0 2.518-2.041 4.558-4.558 4.558-2.518 0-4.558-2.04-4.558-4.558v-58.588h-88.552V-73.586c0-9.755-7.908-17.663-17.663-17.663h-.752c-9.754 0-17.662 7.908-17.662 17.663 0 9.755 7.908 17.663 17.662 17.663h51.209c0 8.717 7.067 15.783 15.784 15.783h62.466v-66.355h-78.25v-22.548h33.5v39.298h-57.121v-76.019h57.723v19.971h-66.238c-10.715 0-19.402 8.686-19.402 19.402v14.097h-20.008V-229.7h56.568l23.675 19.165h-16.427v10.133c0 13.616-11.038 24.654-24.654 24.654h-19.837v-94.318h29.956v25.124h-48.315v-90.51h39.135c7.738 0 14.011-6.273 14.011-14.011 0-9.873-8.003-17.877-17.876-17.877-9.873 0-17.877 8.004-17.877 17.877v11.595c0 9.873 8.004 17.877 17.877 17.877h11.689v7.128h-21.045v6.117h20.186v3.485h-12.961v13.49h74.441v45.714h-15.967c-12.978 0-23.499-10.521-23.499-23.499v-68.779h30.199c5.118 0 9.267 4.149 9.267 9.267 0 5.117-4.149 9.266-9.267 9.266h-12.973v-49.538h50.656v156.86c0 17.548-14.357 31.905-31.904 31.905v-15.535h-16.062l17.171-32.723h49.278v64.136h-19.5v-2.412c0-11.417 9.266-20.667 20.683-20.647l94.014.125c0 12.666-10.268 22.934-22.934 22.934h-57.023v-80.124c0-10.236 8.298-18.533 18.533-18.533v14.826h-40.772l21.004-68.053h17.297l21.003 63.544v-101.255l24.711.063v23.983h-71.326v-9.689c0-15.922 12.907-28.829 28.829-28.829h165.687v65.068h-70.006v-50.173h24.481v23.759h-65.067v-23.759h24.48v35.481h-42.166v113.903h-34.595v-25.51h79.144v8.395c0 10.236-8.297 18.533-18.532 18.533h-.001v-94.661l28.417 19.768h48.185c15.694 0 28.416 12.723 28.416 28.417h-25.945l-30.892 40.556c-3.418 3.418-9.262.997-9.262-3.836v-37.955h-19.15v-12.355l21.143.125c10.618.062 19.193 8.688 19.193 19.306v83.107h44.913v-27.181h-77.837v50.749h77.837v-14.632h-19.506v67h-75.451v-13.22c0-9.421 7.637-17.059 17.058-17.059h77.899v45.741h-186.808v-78.596h46.187l17.395 32.211h-15.462v33.5h-7.662c-14.27 0-25.838-11.568-25.838-25.839v-29.564h69.899c3.736 0 6.764-3.029 6.764-6.765 0-3.736-3.028-6.764-6.764-6.764s-6.765 3.028-6.765 6.764v101.466h111.448c7.169 0 13.028 5.718 13.203 12.884.181 7.418-5.783 13.529-13.203 13.529h-118.487c-12.567 0-22.84-10.025-23.146-22.588l-.093-3.825h-47.673V90.627l200.645.455V59.736l-174.326-.706V11.254h81.509v64.121h15.548V18.792h4.711c9.108 0 16.491 7.383 16.491 16.49v.001-.005h23.086v122.418l-15.68.069c-24.5.106-44.417-19.725-44.417-44.225v-.431l93.078-.262v66.613h-92.497v-5.58c0-19.742 16.004-35.746 35.746-35.746v97.838c0 17.567 14.241 31.808 31.807 31.808h17.889v-34.003h12.359l-18.822-27.055h-78.108v90.118h26.737v-28.189h-59.231v80.211h34.792c13.176 0 23.858-10.682 23.858-23.859v-7.528h-124.966v43.593h30.869c8.15 0 14.758-6.608 14.758-14.759v-.126c0-8.15-6.608-14.758-14.758-14.758-8.152 0-14.759 6.608-14.759 14.758v53.247h175.99l-.582-104.042h-37.963l.581 54.346c-14.445 0-26.156 11.71-26.156 26.156v51.189h-62.472V365.89h185.006v32.293"/><path d="M351 607.079h153.447v-87.808l23.54-23.54v21.797l21.797-21.797v84.28h-132.06v-59.868h70.35v39.234h-83.277V457.951h111.856v2.12c0 10.385 8.419 18.804 18.804 18.804h9.968v-42.866c0-11.797-9.564-21.361-21.361-21.361h-16.243v20.053l-7.57 7.83c-1.785 1.847-.476 4.934 2.093 4.934h97.262l10.96-133.692h22.291c4.382 0 7.935-3.553 7.935-7.935 0-4.383-3.553-7.935-7.935-7.935h-14.196v26.799h24.456l9.3 86.31h-90.678v-53.063h17.438v36.911H468.393c-6.552 0-11.863-5.312-11.863-11.864v-.104c0-6.553 5.311-11.864 11.863-11.864s11.864 5.311 11.864 11.864v10.073c0 8.907-7.221 16.129-16.129 16.129h-.001c-8.908 0-16.129-7.222-16.129-16.129 0-2.021-1.638-3.66-3.659-3.66h-3.948c-2.021 0-3.659 1.639-3.659 3.66v.485c0 8.64-7.004 15.644-15.644 15.644s-15.644-7.004-15.644-15.644v-1.589c0-18.569 15.053-33.621 33.621-33.621h106.94v20.635h-29.352v-54.927c0-17.177 13.924-31.101 31.101-31.101h30.801v45.549H404.797V220.257h36.928c10.49 0 20.57 4.077 28.11 11.371l35.909 34.736h-17.826v46.308h-33.132v-33.714h18.213v22.088h-32.424v-33.907H427.66l48.945-43.329c8.332-6.137 13.251-15.869 13.251-26.218v-3.305c0-5.244-4.251-9.494-9.494-9.494-5.244 0-9.494 4.25-9.494 9.494v1.744c0 5.243 4.25 9.494 9.494 9.494h56.199l19.569 32.163h-13.95v17.826h-19.448c-6.386 0-11.563-5.177-11.563-11.563V218.7h20.834c2.517 0 4.558 2.041 4.558 4.558v.959c0 2.518-2.041 4.558-4.558 4.558-2.518 0-4.558-2.04-4.558-4.558v-58.588h-88.552V106.414c0-9.755-7.908-17.663-17.663-17.663h-.752c-9.754 0-17.662 7.908-17.662 17.663 0 9.755 7.908 17.663 17.662 17.663h51.209c0 8.717 7.067 15.783 15.784 15.783h62.466V73.505h-78.25V50.957h33.5v39.298h-57.121V14.236h57.723v19.971h-66.238c-10.715 0-19.402 8.686-19.402 19.402v14.097h-20.008V-49.7h56.568l23.675 19.165h-16.427v10.133c0 13.616-11.038 24.654-24.654 24.654h-19.837v-94.318h29.956v25.124h-48.315v-90.51h39.135c7.738 0 14.011-6.273 14.011-14.011 0-9.873-8.003-17.877-17.876-17.877-9.873 0-17.877 8.004-17.877 17.877v11.595c0 9.873 8.004 17.877 17.877 17.877h11.689v7.128h-21.045v6.117h20.186v3.485h-12.961v13.49h74.441v45.714H492.72c-12.978 0-23.499-10.521-23.499-23.499v-68.779h30.199c5.118 0 9.267 4.149 9.267 9.267 0 5.117-4.149 9.266-9.267 9.266h-12.973v-49.538h50.656v156.86c0 17.548-14.357 31.905-31.904 31.905V-14.11h-16.062l17.171-32.723h49.278v64.136h-19.5v-2.412c0-11.417 9.266-20.667 20.683-20.647l94.014.125c0 12.666-10.268 22.934-22.934 22.934h-57.023v-80.124c0-10.236 8.298-18.533 18.533-18.533v14.826h-40.772l21.004-68.053h17.297l21.003 63.544v-101.255l24.711.063v23.983h-71.326v-9.689c0-15.922 12.907-28.829 28.829-28.829h165.687v65.068h-70.006v-50.173h24.481v23.759H645.2v-23.759h24.48v35.481h-42.166v113.903h-34.595v-25.51h79.144v8.395c0 10.236-8.297 18.533-18.532 18.533h-.001v-94.661l28.417 19.768h48.185c15.694 0 28.416 12.723 28.416 28.417h-25.945l-30.892 40.556c-3.418 3.418-9.262.997-9.262-3.836v-37.955h-19.15v-12.355l21.143.125c10.618.062 19.193 8.688 19.193 19.306v83.107h44.913V-5.776h-77.837v50.749h77.837V30.341h-19.506v67h-75.451v-13.22c0-9.421 7.637-17.059 17.058-17.059h77.899v45.741H571.74V34.207h46.187l17.395 32.211H619.86v33.5h-7.662c-14.27 0-25.838-11.568-25.838-25.839V44.515h69.899c3.736 0 6.764-3.029 6.764-6.765 0-3.736-3.028-6.764-6.764-6.764s-6.765 3.028-6.765 6.764v101.466h111.448c7.169 0 13.028 5.718 13.203 12.884.181 7.418-5.783 13.529-13.203 13.529H642.455c-12.567 0-22.84-10.025-23.146-22.588l-.093-3.825h-47.673v131.411l200.645.455v-31.346l-174.326-.706v-47.776h81.509v64.121h15.548v-56.583h4.711c9.108 0 16.491 7.383 16.491 16.49v.001-.005h23.086v122.418l-15.68.069c-24.5.106-44.417-19.725-44.417-44.225v-.431l93.078-.262v66.613h-92.497v-5.58c0-19.742 16.004-35.746 35.746-35.746v97.838c0 17.567 14.241 31.808 31.807 31.808h17.889v-34.003h12.359l-18.822-27.055h-78.108v90.118h26.737v-28.189h-59.231v80.211h34.792c13.176 0 23.858-10.682 23.858-23.859v-7.528H581.752v43.593h30.869c8.15 0 14.758-6.608 14.758-14.759v-.126c0-8.15-6.608-14.758-14.758-14.758-8.152 0-14.759 6.608-14.759 14.758v53.247h175.99l-.582-104.042h-37.963l.581 54.346c-14.445 0-26.156 11.71-26.156 26.156v51.189H647.26V545.89h185.006v32.293"/><path d="M-34.5638 787.0836h153.447v-87.808l23.54-23.54v21.797l21.797-21.797v84.28h-132.06v-59.868h70.35v39.234h-83.277v-101.426h111.856v2.12c0 10.385 8.419 18.804 18.804 18.804h9.968v-42.866c0-11.797-9.564-21.361-21.361-21.361h-16.243v20.053l-7.57 7.83c-1.785 1.847-.476 4.934 2.093 4.934h97.262l10.96-133.692h22.291c4.382 0 7.935-3.553 7.935-7.935 0-4.383-3.553-7.935-7.935-7.935h-14.196v26.799h24.456l9.3 86.31h-90.678v-53.063h17.438v36.911H82.8292c-6.552 0-11.863-5.312-11.863-11.864v-.104c0-6.553 5.311-11.864 11.863-11.864s11.864 5.311 11.864 11.864v10.073c0 8.907-7.221 16.129-16.129 16.129h-.001c-8.908 0-16.129-7.222-16.129-16.129 0-2.021-1.638-3.66-3.659-3.66h-3.948c-2.021 0-3.659 1.639-3.659 3.66v.485c0 8.64-7.004 15.644-15.644 15.644s-15.644-7.004-15.644-15.644v-1.589c0-18.569 15.053-33.621 33.621-33.621h106.94v20.635h-29.352v-54.927c0-17.177 13.924-31.101 31.101-31.101h30.801v45.549H19.2332v-118.139h36.928c10.49 0 20.57 4.077 28.11 11.371l35.909 34.736h-17.826v46.308h-33.132v-33.714h18.213v22.088h-32.424v-33.907h-12.915l48.945-43.329c8.332-6.137 13.251-15.869 13.251-26.218v-3.305c0-5.244-4.251-9.494-9.494-9.494-5.244 0-9.494 4.25-9.494 9.494v1.744c0 5.243 4.25 9.494 9.494 9.494h56.199l19.569 32.163h-13.95v17.826h-19.448c-6.386 0-11.563-5.177-11.563-11.563v-25.251h20.834c2.517 0 4.558 2.041 4.558 4.558v.959c0 2.518-2.041 4.558-4.558 4.558-2.518 0-4.558-2.04-4.558-4.558v-58.588h-88.552V286.4186c0-9.755-7.908-17.663-17.663-17.663h-.752c-9.754 0-17.662 7.908-17.662 17.663 0 9.755 7.908 17.663 17.662 17.663h51.209c0 8.717 7.067 15.783 15.784 15.783h62.466v-66.355h-78.25v-22.548h33.5v39.298h-57.121v-76.019h57.723v19.971h-66.238c-10.715 0-19.402 8.686-19.402 19.402v14.097h-20.008v-117.406h56.568l23.675 19.165h-16.427v10.133c0 13.616-11.038 24.654-24.654 24.654h-19.837v-94.318h29.956v25.124h-48.315v-90.51h39.135c7.738 0 14.011-6.273 14.011-14.011 0-9.873-8.003-17.877-17.876-17.877-9.873 0-17.877 8.004-17.877 17.877v11.595c0 9.873 8.004 17.877 17.877 17.877h11.689v7.128h-21.045v6.117h20.186v3.485h-12.961v13.49h74.441v45.714h-15.967c-12.978 0-23.499-10.521-23.499-23.499v-68.779h30.199c5.118 0 9.267 4.149 9.267 9.267 0 5.117-4.149 9.266-9.267 9.266h-12.973v-49.538h50.656v156.86c0 17.548-14.357 31.905-31.904 31.905v-15.535h-16.062l17.171-32.723h49.278v64.136h-19.5v-2.412c0-11.417 9.266-20.667 20.683-20.647l94.014.125c0 12.666-10.268 22.934-22.934 22.934h-57.023v-80.124c0-10.236 8.298-18.533 18.533-18.533v14.826h-40.772l21.004-68.053h17.297l21.003 63.544V7.7126l24.711.063v23.983h-71.326v-9.689c0-15.922 12.907-28.829 28.829-28.829h165.687v65.068h-70.006V8.1356h24.481v23.759h-65.067V8.1356h24.48v35.481h-42.166v113.903h-34.595v-25.51h79.144v8.395c0 10.236-8.297 18.533-18.532 18.533h-.001v-94.661l28.417 19.768h48.185c15.694 0 28.416 12.723 28.416 28.417h-25.945l-30.892 40.556c-3.418 3.418-9.262.997-9.262-3.836v-37.955h-19.15v-12.355l21.143.125c10.618.062 19.193 8.688 19.193 19.306v83.107h44.913v-27.181h-77.837v50.749h77.837v-14.632h-19.506v67h-75.451v-13.22c0-9.421 7.637-17.059 17.058-17.059h77.899v45.741h-186.808v-78.596h46.187l17.395 32.211h-15.462v33.5h-7.662c-14.27 0-25.838-11.568-25.838-25.839v-29.564h69.899c3.736 0 6.764-3.029 6.764-6.765 0-3.736-3.028-6.764-6.764-6.764s-6.765 3.028-6.765 6.764v101.466h111.448c7.169 0 13.028 5.718 13.203 12.884.181 7.418-5.783 13.529-13.203 13.529h-118.487c-12.567 0-22.84-10.025-23.146-22.588l-.093-3.825h-47.673v131.411l200.645.455v-31.346l-174.326-.706v-47.776h81.509v64.121h15.548v-56.583h4.711c9.108 0 16.491 7.383 16.491 16.49v.001-.005h23.086v122.418l-15.68.069c-24.5.106-44.417-19.725-44.417-44.225v-.431l93.078-.262v66.613h-92.497v-5.58c0-19.742 16.004-35.746 35.746-35.746v97.838c0 17.567 14.241 31.808 31.807 31.808h17.889v-34.003h12.359l-18.822-27.055h-78.108v90.118h26.737v-28.189h-59.231v80.211h34.792c13.176 0 23.858-10.682 23.858-23.859v-7.528h-124.966v43.593h30.869c8.15 0 14.758-6.608 14.758-14.759v-.126c0-8.15-6.608-14.758-14.758-14.758-8.152 0-14.759 6.608-14.759 14.758v53.247h175.99l-.582-104.042h-37.963l.581 54.346c-14.445 0-26.156 11.71-26.156 26.156v51.189h-62.472v-61.189h185.006v32.293"/></g></g></svg>