<?xml version="1.0" encoding="UTF-8"?>
<svg width="1152px" height="358px" viewBox="0 0 1152 358" version="1.1" xmlns="http://www.w3.org/2000/svg" xmlns:xlink="http://www.w3.org/1999/xlink">
    <!-- Generator: Sketch 51.2 (57519) - http://www.bohemiancoding.com/sketch -->
    <title>Group</title>
    <desc>Created with Sketch.</desc>
    <defs>
        <polygon id="path-1" points="0.177 357.322 1175 357.322 1175 0.663 0.177 0.663"></polygon>
    </defs>
    <g id="Page-1" stroke="none" stroke-width="1" fill="none" fill-rule="evenodd">
        <g id="CDS18-Web-Mockups" transform="translate(-14.000000, -2707.000000)">
            <g id="Group-26" transform="translate(1.000000, 2707.000000)">
                <g id="Group">
                    <mask id="mask-2" fill="white">
                        <use xlink:href="#path-1"></use>
                    </mask>
                    <g id="Mask"></g>
                    <g mask="url(#mask-2)" stroke="#1565C0" stroke-width="1.33">
                        <g transform="translate(-35.000000, -368.000000)">
                            <path d="M771.4362,795.079 L924.8832,795.079 L924.8832,707.271 L948.4232,683.731 L948.4232,705.528 L970.2202,683.731 L970.2202,768.011 L838.1602,768.011 L838.1602,708.143 L908.5102,708.143 L908.5102,747.377 L825.2332,747.377 L825.2332,645.951 L937.0892,645.951 L937.0892,648.071 C937.0892,658.456 945.5082,666.875 955.8932,666.875 L965.8612,666.875 L965.8612,624.009 C965.8612,612.212 956.2972,602.648 944.5002,602.648 L928.2572,602.648 L928.2572,622.701 L920.6872,630.531 C918.9022,632.378 920.2112,635.465 922.7802,635.465 L1020.0422,635.465 L1031.0022,501.773 L1053.2932,501.773 C1057.6752,501.773 1061.2282,498.22 1061.2282,493.838 C1061.2282,489.455 1057.6752,485.903 1053.2932,485.903 L1039.0972,485.903 L1039.0972,512.702 L1063.5532,512.702 L1072.8532,599.012 L982.1752,599.012 L982.1752,545.949 L999.6132,545.949 L999.6132,582.86 L888.8292,582.86 C882.2772,582.86 876.9662,577.548 876.9662,570.996 L876.9662,570.892 C876.9662,564.339 882.2772,559.028 888.8292,559.028 C895.3812,559.028 900.6932,564.339 900.6932,570.892 L900.6932,580.965 C900.6932,589.872 893.4722,597.094 884.5642,597.094 L884.5632,597.094 C875.6552,597.094 868.4342,589.872 868.4342,580.965 C868.4342,578.944 866.7962,577.305 864.7752,577.305 L860.8272,577.305 C858.8062,577.305 857.1682,578.944 857.1682,580.965 L857.1682,581.45 C857.1682,590.09 850.1642,597.094 841.5242,597.094 C832.8842,597.094 825.8802,590.09 825.8802,581.45 L825.8802,579.861 C825.8802,561.292 840.9332,546.24 859.5012,546.24 L966.4412,546.24 L966.4412,566.875 L937.0892,566.875 L937.0892,511.948 C937.0892,494.771 951.0132,480.847 968.1902,480.847 L998.9912,480.847 L998.9912,526.396 L825.2332,526.396 L825.2332,408.257 L862.1612,408.257 C872.6512,408.257 882.7312,412.334 890.2712,419.628 L926.1802,454.364 L908.3542,454.364 L908.3542,500.672 L875.2222,500.672 L875.2222,466.958 L893.4352,466.958 L893.4352,489.046 L861.0112,489.046 L861.0112,455.139 L848.0962,455.139 L897.0412,411.81 C905.3732,405.673 910.2922,395.941 910.2922,385.592 L910.2922,382.287 C910.2922,377.043 906.0412,372.793 900.7982,372.793 C895.5542,372.793 891.3042,377.043 891.3042,382.287 L891.3042,384.031 C891.3042,389.274 895.5542,393.525 900.7982,393.525 L956.9972,393.525 L976.5662,425.688 L962.6162,425.688 L962.6162,443.514 L943.1682,443.514 C936.7822,443.514 931.6052,438.337 931.6052,431.951 L931.6052,406.7 L952.4392,406.7 C954.9562,406.7 956.9972,408.741 956.9972,411.258 L956.9972,412.217 C956.9972,414.735 954.9562,416.775 952.4392,416.775 C949.9212,416.775 947.8812,414.735 947.8812,412.217 L947.8812,353.629 L859.3292,353.629 L859.3292,307.558 L859.3292,294.414 C859.3292,284.659 851.4212,276.751 841.6662,276.751 L840.9142,276.751 C831.1602,276.751 823.2522,284.659 823.2522,294.414 C823.2522,304.169 831.1602,312.077 840.9142,312.077 L892.1232,312.077 C892.1232,320.794 899.1902,327.86 907.9072,327.86 L970.3732,327.86 L970.3732,327.216 L970.3732,261.505 L892.1232,261.505 L892.1232,238.957 L925.6232,238.957 L925.6232,278.255 L868.5022,278.255 L868.5022,202.236 L926.2252,202.236 L926.2252,222.207 L859.9872,222.207 C849.2722,222.207 840.5852,230.893 840.5852,241.609 L840.5852,255.706 L820.5772,255.706 L820.5772,138.3 L877.1452,138.3 L900.8202,157.465 L884.3932,157.465 L884.3932,167.598 C884.3932,181.214 873.3552,192.252 859.7392,192.252 L839.9022,192.252 L839.9022,97.934 L869.8582,97.934 L869.8582,123.058 L821.5432,123.058 L821.5432,32.548 L860.6782,32.548 C868.4162,32.548 874.6892,26.275 874.6892,18.537 C874.6892,8.664 866.6862,0.66 856.8132,0.66 C846.9402,0.66 838.9362,8.664 838.9362,18.537 L838.9362,30.132 C838.9362,40.005 846.9402,48.009 856.8132,48.009 L868.5022,48.009 L868.5022,55.137 L847.4572,55.137 L847.4572,61.254 L867.6432,61.254 L867.6432,64.739 L854.6822,64.739 L854.6822,78.229 L929.1232,78.229 L929.1232,123.943 L913.1562,123.943 C900.1782,123.943 889.6572,113.422 889.6572,100.444 L889.6572,31.665 L919.8562,31.665 C924.9742,31.665 929.1232,35.814 929.1232,40.932 C929.1232,46.049 924.9742,50.198 919.8562,50.198 L906.8832,50.198 L906.8832,0.66 L957.5392,0.66 L957.5392,157.52 C957.5392,175.068 943.1822,189.425 925.6352,189.425 L925.6352,173.89 L909.5732,173.89 L926.7442,141.167 L976.0222,141.167 L976.0222,205.303 L956.5222,205.303 L956.5222,202.891 C956.5222,191.474 965.7882,182.224 977.2052,182.244 L1071.2192,182.369 C1071.2192,195.035 1060.9512,205.303 1048.2852,205.303 L991.2622,205.303 L991.2622,125.179 C991.2622,114.943 999.5602,106.646 1009.7952,106.646 L1009.7952,121.472 L969.0232,121.472 L990.0272,53.419 L1007.3242,53.419 L1028.3272,116.963 L1028.3272,15.708 L1053.0382,15.771 L1053.0382,39.754 L981.7122,39.754 L981.7122,30.065 C981.7122,14.143 994.6192,1.236 1010.5412,1.236 L1176.2282,1.236 L1176.2282,66.304 L1106.2222,66.304 L1106.2222,16.131 L1130.7032,16.131 L1130.7032,39.89 L1065.6362,39.89 L1065.6362,16.131 L1090.1162,16.131 L1090.1162,51.612 L1047.9502,51.612 L1047.9502,165.515 L1013.3552,165.515 L1013.3552,140.005 L1092.4992,140.005 L1092.4992,148.4 C1092.4992,158.636 1084.2022,166.933 1073.9672,166.933 L1073.9662,166.933 L1073.9662,72.272 L1102.3832,92.04 L1150.5682,92.04 C1166.2622,92.04 1178.9842,104.763 1178.9842,120.457 L1153.0392,120.457 L1122.1472,161.013 C1118.7292,164.431 1112.8852,162.01 1112.8852,157.177 L1112.8852,119.222 L1093.7352,119.222 L1093.7352,106.867 L1114.8782,106.992 C1125.4962,107.054 1134.0712,115.68 1134.0712,126.298 L1134.0712,209.405 L1178.9842,209.405 L1178.9842,182.224 L1101.1472,182.224 L1101.1472,232.973 L1178.9842,232.973 L1178.9842,218.341 L1159.4782,218.341 L1159.4782,285.341 L1084.0272,285.341 L1084.0272,272.121 C1084.0272,262.7 1091.6642,255.062 1101.0852,255.062 L1178.9842,255.062 L1178.9842,300.803 L992.1762,300.803 L992.1762,222.207 L1038.3632,222.207 L1055.7582,254.418 L1040.2962,254.418 L1040.2962,287.918 L1032.6342,287.918 C1018.3642,287.918 1006.7962,276.35 1006.7962,262.079 L1006.7962,232.515 L1076.6952,232.515 C1080.4312,232.515 1083.4592,229.486 1083.4592,225.75 C1083.4592,222.014 1080.4312,218.986 1076.6952,218.986 C1072.9592,218.986 1069.9302,222.014 1069.9302,225.75 L1069.9302,327.216 L1181.3782,327.216 C1188.5472,327.216 1194.4062,332.934 1194.5812,340.1 C1194.7622,347.518 1188.7982,353.629 1181.3782,353.629 L1062.8912,353.629 C1050.3242,353.629 1040.0512,343.604 1039.7452,331.041 L1039.6522,327.216 L991.9792,327.216 L991.9792,458.627 L1192.6242,459.082 L1192.6242,427.736 L1018.2982,427.03 L1018.2982,379.254 L1099.8072,379.254 L1099.8072,443.375 L1115.3552,443.375 L1115.3552,386.792 L1120.0662,386.792 C1129.1742,386.792 1136.5572,394.175 1136.5572,403.282 L1136.5572,403.283 L1136.5572,403.278 L1159.6432,403.278 L1159.6432,446.586 L1159.6432,525.696 L1143.9632,525.765 C1119.4632,525.871 1099.5462,506.04 1099.5462,481.54 L1099.5462,481.109 L1192.6242,480.847 L1192.6242,547.46 L1100.1272,547.46 L1100.1272,541.88 C1100.1272,522.138 1116.1312,506.134 1135.8732,506.134 L1135.8732,603.972 C1135.8732,621.539 1150.1142,635.78 1167.6802,635.78 L1185.5692,635.78 L1185.5692,601.777 L1197.9282,601.777 L1179.1062,574.722 L1100.9982,574.722 L1100.9982,664.84 L1127.7352,664.84 L1127.7352,636.651 L1068.5042,636.651 L1068.5042,716.862 L1103.2962,716.862 C1116.4722,716.862 1127.1542,706.18 1127.1542,693.003 L1127.1542,685.475 L1002.1882,685.475 L1002.1882,729.068 L1033.0572,729.068 C1041.2072,729.068 1047.8152,722.46 1047.8152,714.309 L1047.8152,714.183 C1047.8152,706.033 1041.2072,699.425 1033.0572,699.425 C1024.9052,699.425 1018.2982,706.033 1018.2982,714.183 L1018.2982,767.43 L1194.2882,767.43 L1193.7062,663.388 L1155.7432,663.388 L1156.3242,717.734 C1141.8792,717.734 1130.1682,729.444 1130.1682,743.89 L1130.1682,795.079 L1067.6962,795.079 L1067.6962,733.89 L1252.7022,733.89 L1252.7022,766.183" id="c"></path>
                            <path d="M386,975.079 L539.447,975.079 L539.447,887.271 L562.987,863.731 L562.987,885.528 L584.784,863.731 L584.784,948.011 L452.724,948.011 L452.724,888.143 L523.074,888.143 L523.074,927.377 L439.797,927.377 L439.797,825.951 L551.653,825.951 L551.653,828.071 C551.653,838.456 560.072,846.875 570.457,846.875 L580.425,846.875 L580.425,804.009 C580.425,792.212 570.861,782.648 559.064,782.648 L542.821,782.648 L542.821,802.701 L535.251,810.531 C533.466,812.378 534.775,815.465 537.344,815.465 L634.606,815.465 L645.566,681.773 L667.857,681.773 C672.239,681.773 675.792,678.22 675.792,673.838 C675.792,669.455 672.239,665.903 667.857,665.903 L653.661,665.903 L653.661,692.702 L678.117,692.702 L687.417,779.012 L596.739,779.012 L596.739,725.949 L614.177,725.949 L614.177,762.86 L503.393,762.86 C496.841,762.86 491.53,757.548 491.53,750.996 L491.53,750.892 C491.53,744.339 496.841,739.028 503.393,739.028 C509.945,739.028 515.257,744.339 515.257,750.892 L515.257,760.965 C515.257,769.872 508.036,777.094 499.128,777.094 L499.127,777.094 C490.219,777.094 482.998,769.872 482.998,760.965 C482.998,758.944 481.36,757.305 479.339,757.305 L475.391,757.305 C473.37,757.305 471.732,758.944 471.732,760.965 L471.732,761.45 C471.732,770.09 464.728,777.094 456.088,777.094 C447.448,777.094 440.444,770.09 440.444,761.45 L440.444,759.861 C440.444,741.292 455.497,726.24 474.065,726.24 L581.005,726.24 L581.005,746.875 L551.653,746.875 L551.653,691.948 C551.653,674.771 565.577,660.847 582.754,660.847 L613.555,660.847 L613.555,706.396 L439.797,706.396 L439.797,588.257 L476.725,588.257 C487.215,588.257 497.295,592.334 504.835,599.628 L540.744,634.364 L522.918,634.364 L522.918,680.672 L489.786,680.672 L489.786,646.958 L507.999,646.958 L507.999,669.046 L475.575,669.046 L475.575,635.139 L462.66,635.139 L511.605,591.81 C519.937,585.673 524.856,575.941 524.856,565.592 L524.856,562.287 C524.856,557.043 520.605,552.793 515.362,552.793 C510.118,552.793 505.868,557.043 505.868,562.287 L505.868,564.031 C505.868,569.274 510.118,573.525 515.362,573.525 L571.561,573.525 L591.13,605.688 L577.18,605.688 L577.18,623.514 L557.732,623.514 C551.346,623.514 546.169,618.337 546.169,611.951 L546.169,586.7 L567.003,586.7 C569.52,586.7 571.561,588.741 571.561,591.258 L571.561,592.217 C571.561,594.735 569.52,596.775 567.003,596.775 C564.485,596.775 562.445,594.735 562.445,592.217 L562.445,533.629 L473.893,533.629 L473.893,487.558 L473.893,474.414 C473.893,464.659 465.985,456.751 456.23,456.751 L455.478,456.751 C445.724,456.751 437.816,464.659 437.816,474.414 C437.816,484.169 445.724,492.077 455.478,492.077 L506.687,492.077 C506.687,500.794 513.754,507.86 522.471,507.86 L584.937,507.86 L584.937,507.216 L584.937,441.505 L506.687,441.505 L506.687,418.957 L540.187,418.957 L540.187,458.255 L483.066,458.255 L483.066,382.236 L540.789,382.236 L540.789,402.207 L474.551,402.207 C463.836,402.207 455.149,410.893 455.149,421.609 L455.149,435.706 L435.141,435.706 L435.141,318.3 L491.709,318.3 L515.384,337.465 L498.957,337.465 L498.957,347.598 C498.957,361.214 487.919,372.252 474.303,372.252 L454.466,372.252 L454.466,277.934 L484.422,277.934 L484.422,303.058 L436.107,303.058 L436.107,212.548 L475.242,212.548 C482.98,212.548 489.253,206.275 489.253,198.537 C489.253,188.664 481.25,180.66 471.377,180.66 C461.504,180.66 453.5,188.664 453.5,198.537 L453.5,210.132 C453.5,220.005 461.504,228.009 471.377,228.009 L483.066,228.009 L483.066,235.137 L462.021,235.137 L462.021,241.254 L482.207,241.254 L482.207,244.739 L469.246,244.739 L469.246,258.229 L543.687,258.229 L543.687,303.943 L527.72,303.943 C514.742,303.943 504.221,293.422 504.221,280.444 L504.221,211.665 L534.42,211.665 C539.538,211.665 543.687,215.814 543.687,220.932 C543.687,226.049 539.538,230.198 534.42,230.198 L521.447,230.198 L521.447,180.66 L572.103,180.66 L572.103,337.52 C572.103,355.068 557.746,369.425 540.199,369.425 L540.199,353.89 L524.137,353.89 L541.308,321.167 L590.586,321.167 L590.586,385.303 L571.086,385.303 L571.086,382.891 C571.086,371.474 580.352,362.224 591.769,362.244 L685.783,362.369 C685.783,375.035 675.515,385.303 662.849,385.303 L605.826,385.303 L605.826,305.179 C605.826,294.943 614.124,286.646 624.359,286.646 L624.359,301.472 L583.587,301.472 L604.591,233.419 L621.888,233.419 L642.891,296.963 L642.891,195.708 L667.602,195.771 L667.602,219.754 L596.276,219.754 L596.276,210.065 C596.276,194.143 609.183,181.236 625.105,181.236 L790.792,181.236 L790.792,246.304 L720.786,246.304 L720.786,196.131 L745.267,196.131 L745.267,219.89 L680.2,219.89 L680.2,196.131 L704.68,196.131 L704.68,231.612 L662.514,231.612 L662.514,345.515 L627.919,345.515 L627.919,320.005 L707.063,320.005 L707.063,328.4 C707.063,338.636 698.766,346.933 688.531,346.933 L688.53,346.933 L688.53,252.272 L716.947,272.04 L765.132,272.04 C780.826,272.04 793.548,284.763 793.548,300.457 L767.603,300.457 L736.711,341.013 C733.293,344.431 727.449,342.01 727.449,337.177 L727.449,299.222 L708.299,299.222 L708.299,286.867 L729.442,286.992 C740.06,287.054 748.635,295.68 748.635,306.298 L748.635,389.405 L793.548,389.405 L793.548,362.224 L715.711,362.224 L715.711,412.973 L793.548,412.973 L793.548,398.341 L774.042,398.341 L774.042,465.341 L698.591,465.341 L698.591,452.121 C698.591,442.7 706.228,435.062 715.649,435.062 L793.548,435.062 L793.548,480.803 L606.74,480.803 L606.74,402.207 L652.927,402.207 L670.322,434.418 L654.86,434.418 L654.86,467.918 L647.198,467.918 C632.928,467.918 621.36,456.35 621.36,442.079 L621.36,412.515 L691.259,412.515 C694.995,412.515 698.023,409.486 698.023,405.75 C698.023,402.014 694.995,398.986 691.259,398.986 C687.523,398.986 684.494,402.014 684.494,405.75 L684.494,507.216 L795.942,507.216 C803.111,507.216 808.97,512.934 809.145,520.1 C809.326,527.518 803.362,533.629 795.942,533.629 L677.455,533.629 C664.888,533.629 654.615,523.604 654.309,511.041 L654.216,507.216 L606.543,507.216 L606.543,638.627 L807.188,639.082 L807.188,607.736 L632.862,607.03 L632.862,559.254 L714.371,559.254 L714.371,623.375 L729.919,623.375 L729.919,566.792 L734.63,566.792 C743.738,566.792 751.121,574.175 751.121,583.282 L751.121,583.283 L751.121,583.278 L774.207,583.278 L774.207,626.586 L774.207,705.696 L758.527,705.765 C734.027,705.871 714.11,686.04 714.11,661.54 L714.11,661.109 L807.188,660.847 L807.188,727.46 L714.691,727.46 L714.691,721.88 C714.691,702.138 730.695,686.134 750.437,686.134 L750.437,783.972 C750.437,801.539 764.678,815.78 782.244,815.78 L800.133,815.78 L800.133,781.777 L812.492,781.777 L793.67,754.722 L715.562,754.722 L715.562,844.84 L742.299,844.84 L742.299,816.651 L683.068,816.651 L683.068,896.862 L717.86,896.862 C731.036,896.862 741.718,886.18 741.718,873.003 L741.718,865.475 L616.752,865.475 L616.752,909.068 L647.621,909.068 C655.771,909.068 662.379,902.46 662.379,894.309 L662.379,894.183 C662.379,886.033 655.771,879.425 647.621,879.425 C639.469,879.425 632.862,886.033 632.862,894.183 L632.862,947.43 L808.852,947.43 L808.27,843.388 L770.307,843.388 L770.888,897.734 C756.443,897.734 744.732,909.444 744.732,923.89 L744.732,975.079 L682.26,975.079 L682.26,913.89 L867.266,913.89 L867.266,946.183" id="b"></path>
                            <path d="M0.4362,1155.0836 L153.8832,1155.0836 L153.8832,1067.2756 L177.4232,1043.7356 L177.4232,1065.5326 L199.2202,1043.7356 L199.2202,1128.0156 L67.1602,1128.0156 L67.1602,1068.1476 L137.5102,1068.1476 L137.5102,1107.3816 L54.2332,1107.3816 L54.2332,1005.9556 L166.0892,1005.9556 L166.0892,1008.0756 C166.0892,1018.4606 174.5082,1026.8796 184.8932,1026.8796 L194.8612,1026.8796 L194.8612,984.0136 C194.8612,972.2166 185.2972,962.6526 173.5002,962.6526 L157.2572,962.6526 L157.2572,982.7056 L149.6872,990.5356 C147.9022,992.3826 149.2112,995.4696 151.7802,995.4696 L249.0422,995.4696 L260.0022,861.7776 L282.2932,861.7776 C286.6752,861.7776 290.2282,858.2246 290.2282,853.8426 C290.2282,849.4596 286.6752,845.9076 282.2932,845.9076 L268.0972,845.9076 L268.0972,872.7066 L292.5532,872.7066 L301.8532,959.0166 L211.1752,959.0166 L211.1752,905.9536 L228.6132,905.9536 L228.6132,942.8646 L117.8292,942.8646 C111.2772,942.8646 105.9662,937.5526 105.9662,931.0006 L105.9662,930.8966 C105.9662,924.3436 111.2772,919.0326 117.8292,919.0326 C124.3812,919.0326 129.6932,924.3436 129.6932,930.8966 L129.6932,940.9696 C129.6932,949.8766 122.4722,957.0986 113.5642,957.0986 L113.5632,957.0986 C104.6552,957.0986 97.4342,949.8766 97.4342,940.9696 C97.4342,938.9486 95.7962,937.3096 93.7752,937.3096 L89.8272,937.3096 C87.8062,937.3096 86.1682,938.9486 86.1682,940.9696 L86.1682,941.4546 C86.1682,950.0946 79.1642,957.0986 70.5242,957.0986 C61.8842,957.0986 54.8802,950.0946 54.8802,941.4546 L54.8802,939.8656 C54.8802,921.2966 69.9332,906.2446 88.5012,906.2446 L195.4412,906.2446 L195.4412,926.8796 L166.0892,926.8796 L166.0892,871.9526 C166.0892,854.7756 180.0132,840.8516 197.1902,840.8516 L227.9912,840.8516 L227.9912,886.4006 L54.2332,886.4006 L54.2332,768.2616 L91.1612,768.2616 C101.6512,768.2616 111.7312,772.3386 119.2712,779.6326 L155.1802,814.3686 L137.3542,814.3686 L137.3542,860.6766 L104.2222,860.6766 L104.2222,826.9626 L122.4352,826.9626 L122.4352,849.0506 L90.0112,849.0506 L90.0112,815.1436 L77.0962,815.1436 L126.0412,771.8146 C134.3732,765.6776 139.2922,755.9456 139.2922,745.5966 L139.2922,742.2916 C139.2922,737.0476 135.0412,732.7976 129.7982,732.7976 C124.5542,732.7976 120.3042,737.0476 120.3042,742.2916 L120.3042,744.0356 C120.3042,749.2786 124.5542,753.5296 129.7982,753.5296 L185.9972,753.5296 L205.5662,785.6926 L191.6162,785.6926 L191.6162,803.5186 L172.1682,803.5186 C165.7822,803.5186 160.6052,798.3416 160.6052,791.9556 L160.6052,766.7046 L181.4392,766.7046 C183.9562,766.7046 185.9972,768.7456 185.9972,771.2626 L185.9972,772.2216 C185.9972,774.7396 183.9562,776.7796 181.4392,776.7796 C178.9212,776.7796 176.8812,774.7396 176.8812,772.2216 L176.8812,713.6336 L88.3292,713.6336 L88.3292,667.5626 L88.3292,654.4186 C88.3292,644.6636 80.4212,636.7556 70.6662,636.7556 L69.9142,636.7556 C60.1602,636.7556 52.2522,644.6636 52.2522,654.4186 C52.2522,664.1736 60.1602,672.0816 69.9142,672.0816 L121.1232,672.0816 C121.1232,680.7986 128.1902,687.8646 136.9072,687.8646 L199.3732,687.8646 L199.3732,687.2206 L199.3732,621.5096 L121.1232,621.5096 L121.1232,598.9616 L154.6232,598.9616 L154.6232,638.2596 L97.5022,638.2596 L97.5022,562.2406 L155.2252,562.2406 L155.2252,582.2116 L88.9872,582.2116 C78.2722,582.2116 69.5852,590.8976 69.5852,601.6136 L69.5852,615.7106 L49.5772,615.7106 L49.5772,498.3046 L106.1452,498.3046 L129.8202,517.4696 L113.3932,517.4696 L113.3932,527.6026 C113.3932,541.2186 102.3552,552.2566 88.7392,552.2566 L68.9022,552.2566 L68.9022,457.9386 L98.8582,457.9386 L98.8582,483.0626 L50.5432,483.0626 L50.5432,392.5526 L89.6782,392.5526 C97.4162,392.5526 103.6892,386.2796 103.6892,378.5416 C103.6892,368.6686 95.6862,360.6646 85.8132,360.6646 C75.9402,360.6646 67.9362,368.6686 67.9362,378.5416 L67.9362,390.1366 C67.9362,400.0096 75.9402,408.0136 85.8132,408.0136 L97.5022,408.0136 L97.5022,415.1416 L76.4572,415.1416 L76.4572,421.2586 L96.6432,421.2586 L96.6432,424.7436 L83.6822,424.7436 L83.6822,438.2336 L158.1232,438.2336 L158.1232,483.9476 L142.1562,483.9476 C129.1782,483.9476 118.6572,473.4266 118.6572,460.4486 L118.6572,391.6696 L148.8562,391.6696 C153.9742,391.6696 158.1232,395.8186 158.1232,400.9366 C158.1232,406.0536 153.9742,410.2026 148.8562,410.2026 L135.8832,410.2026 L135.8832,360.6646 L186.5392,360.6646 L186.5392,517.5246 C186.5392,535.0726 172.1822,549.4296 154.6352,549.4296 L154.6352,533.8946 L138.5732,533.8946 L155.7442,501.1716 L205.0222,501.1716 L205.0222,565.3076 L185.5222,565.3076 L185.5222,562.8956 C185.5222,551.4786 194.7882,542.2286 206.2052,542.2486 L300.2192,542.3736 C300.2192,555.0396 289.9512,565.3076 277.2852,565.3076 L220.2622,565.3076 L220.2622,485.1836 C220.2622,474.9476 228.5602,466.6506 238.7952,466.6506 L238.7952,481.4766 L198.0232,481.4766 L219.0272,413.4236 L236.3242,413.4236 L257.3272,476.9676 L257.3272,375.7126 L282.0382,375.7756 L282.0382,399.7586 L210.7122,399.7586 L210.7122,390.0696 C210.7122,374.1476 223.6192,361.2406 239.5412,361.2406 L405.2282,361.2406 L405.2282,426.3086 L335.2222,426.3086 L335.2222,376.1356 L359.7032,376.1356 L359.7032,399.8946 L294.6362,399.8946 L294.6362,376.1356 L319.1162,376.1356 L319.1162,411.6166 L276.9502,411.6166 L276.9502,525.5196 L242.3552,525.5196 L242.3552,500.0096 L321.4992,500.0096 L321.4992,508.4046 C321.4992,518.6406 313.2022,526.9376 302.9672,526.9376 L302.9662,526.9376 L302.9662,432.2766 L331.3832,452.0446 L379.5682,452.0446 C395.2622,452.0446 407.9842,464.7676 407.9842,480.4616 L382.0392,480.4616 L351.1472,521.0176 C347.7292,524.4356 341.8852,522.0146 341.8852,517.1816 L341.8852,479.2266 L322.7352,479.2266 L322.7352,466.8716 L343.8782,466.9966 C354.4962,467.0586 363.0712,475.6846 363.0712,486.3026 L363.0712,569.4096 L407.9842,569.4096 L407.9842,542.2286 L330.1472,542.2286 L330.1472,592.9776 L407.9842,592.9776 L407.9842,578.3456 L388.4782,578.3456 L388.4782,645.3456 L313.0272,645.3456 L313.0272,632.1256 C313.0272,622.7046 320.6642,615.0666 330.0852,615.0666 L407.9842,615.0666 L407.9842,660.8076 L221.1762,660.8076 L221.1762,582.2116 L267.3632,582.2116 L284.7582,614.4226 L269.2962,614.4226 L269.2962,647.9226 L261.6342,647.9226 C247.3642,647.9226 235.7962,636.3546 235.7962,622.0836 L235.7962,592.5196 L305.6952,592.5196 C309.4312,592.5196 312.4592,589.4906 312.4592,585.7546 C312.4592,582.0186 309.4312,578.9906 305.6952,578.9906 C301.9592,578.9906 298.9302,582.0186 298.9302,585.7546 L298.9302,687.2206 L410.3782,687.2206 C417.5472,687.2206 423.4062,692.9386 423.5812,700.1046 C423.7622,707.5226 417.7982,713.6336 410.3782,713.6336 L291.8912,713.6336 C279.3242,713.6336 269.0512,703.6086 268.7452,691.0456 L268.6522,687.2206 L220.9792,687.2206 L220.9792,818.6316 L421.6242,819.0866 L421.6242,787.7406 L247.2982,787.0346 L247.2982,739.2586 L328.8072,739.2586 L328.8072,803.3796 L344.3552,803.3796 L344.3552,746.7966 L349.0662,746.7966 C358.1742,746.7966 365.5572,754.1796 365.5572,763.2866 L365.5572,763.2876 L365.5572,763.2826 L388.6432,763.2826 L388.6432,806.5906 L388.6432,885.7006 L372.9632,885.7696 C348.4632,885.8756 328.5462,866.0446 328.5462,841.5446 L328.5462,841.1136 L421.6242,840.8516 L421.6242,907.4646 L329.1272,907.4646 L329.1272,901.8846 C329.1272,882.1426 345.1312,866.1386 364.8732,866.1386 L364.8732,963.9766 C364.8732,981.5436 379.1142,995.7846 396.6802,995.7846 L414.5692,995.7846 L414.5692,961.7816 L426.9282,961.7816 L408.1062,934.7266 L329.9982,934.7266 L329.9982,1024.8446 L356.7352,1024.8446 L356.7352,996.6556 L297.5042,996.6556 L297.5042,1076.8666 L332.2962,1076.8666 C345.4722,1076.8666 356.1542,1066.1846 356.1542,1053.0076 L356.1542,1045.4796 L231.1882,1045.4796 L231.1882,1089.0726 L262.0572,1089.0726 C270.2072,1089.0726 276.8152,1082.4646 276.8152,1074.3136 L276.8152,1074.1876 C276.8152,1066.0376 270.2072,1059.4296 262.0572,1059.4296 C253.9052,1059.4296 247.2982,1066.0376 247.2982,1074.1876 L247.2982,1127.4346 L423.2882,1127.4346 L422.7062,1023.3926 L384.7432,1023.3926 L385.3242,1077.7386 C370.8792,1077.7386 359.1682,1089.4486 359.1682,1103.8946 L359.1682,1155.0836 L296.6962,1155.0836 L296.6962,1093.8946 L481.7022,1093.8946 L481.7022,1126.1876" id="a"></path>
                        </g>
                    </g>
                </g>
            </g>
        </g>
    </g>
</svg>