<svg xmlns="http://www.w3.org/2000/svg" xmlns:xlink="http://www.w3.org/1999/xlink" viewBox="0 0 1152 358"><defs><path id="a" d="M.18 357.32H1175V.66H.18z"/></defs><g fill="none" fill-rule="evenodd" transform="translate(-13)"><mask id="b" fill="#fff"><use xlink:href="#a"/></mask><g stroke="#1565C0" stroke-width="1.33" mask="url(#b)"><path d="M736.44 427.08h153.44v-87.8l23.54-23.55v21.8l21.8-21.8v84.28H803.16v-59.87h70.35v39.24h-83.28V277.95H902.1v2.12a18.8 18.8 0 0 0 18.8 18.8h9.97v-42.86c0-11.8-9.56-21.36-21.36-21.36h-16.24v20.05l-7.57 7.83a2.91 2.91 0 0 0 2.09 4.94h97.26L996 133.77h22.3a7.94 7.94 0 0 0 0-15.87h-14.2v26.8h24.45l9.3 86.31h-90.67v-53.06h17.43v36.91H853.83A11.86 11.86 0 0 1 841.97 203v-.1a11.86 11.86 0 1 1 23.72 0v10.07a16.13 16.13 0 1 1-32.26 0 3.66 3.66 0 0 0-3.65-3.67h-3.95a3.66 3.66 0 0 0-3.66 3.67v.48a15.64 15.64 0 1 1-31.29 0v-1.59a33.62 33.62 0 0 1 33.62-33.62h106.94v20.63H902.1v-54.92a31.1 31.1 0 0 1 31.1-31.1h30.8v45.55H790.23V40.26h36.93a40.43 40.43 0 0 1 28.11 11.37l35.91 34.73h-17.83v46.31h-33.13V98.96h18.22v22.09H826V87.14H813.1l48.94-43.33a32.56 32.56 0 0 0 13.25-26.22v-3.3a9.5 9.5 0 1 0-18.99 0v1.74a9.5 9.5 0 0 0 9.5 9.5H922l19.57 32.16h-13.95V75.5h-19.45a11.56 11.56 0 0 1-11.56-11.56V38.7h20.83a4.56 4.56 0 0 1 4.56 4.56v.96a4.56 4.56 0 1 1-9.12 0v-58.6h-88.55v-59.21c0-9.75-7.9-17.66-17.66-17.66h-.76a17.66 17.66 0 0 0 0 35.33h51.21c0 8.71 7.07 15.78 15.79 15.78h62.46v-66.36h-78.25v-22.54h33.5v39.3H833.5v-76.02h57.73v19.97h-66.24a19.4 19.4 0 0 0-19.4 19.4v14.1h-20.01V-229.7h56.57l23.67 19.16h-16.43v10.14a24.65 24.65 0 0 1-24.65 24.65H804.9v-94.32h29.96v25.13h-48.32v-90.51h39.14c7.74 0 14-6.28 14-14.01a17.88 17.88 0 1 0-35.74 0v11.6c0 9.87 8 17.87 17.87 17.87h11.7v7.13h-21.05v6.11h20.18v3.49h-12.96v13.49h74.44v45.71h-15.96a23.5 23.5 0 0 1-23.5-23.5v-68.77h30.2a9.27 9.27 0 0 1 0 18.53h-12.98v-49.54h50.66v156.86a32 32 0 0 1-31.9 31.9v-15.53h-16.07l17.17-32.72h49.28v64.13h-19.5v-2.4a20.65 20.65 0 0 1 20.69-20.66l94 .13a22.93 22.93 0 0 1-22.92 22.93h-57.03v-80.12c0-10.24 8.3-18.53 18.54-18.53v14.82h-40.78l21-68.05h17.3l21 63.54v-101.25l24.72.06v23.98H946.7v-9.68a28.83 28.83 0 0 1 28.83-28.83h165.69v65.06h-70v-50.17h24.47v23.76h-65.06v-23.76h24.48v35.48h-42.17v113.9h-34.6v-25.5h79.15v8.39c0 10.24-8.3 18.53-18.53 18.53v-94.66l28.41 19.77h48.19a28.42 28.42 0 0 1 28.41 28.42h-25.94l-30.9 40.55a5.43 5.43 0 0 1-9.25-3.83v-37.96h-19.15v-12.35l21.14.12a19.3 19.3 0 0 1 19.2 19.3v83.12h44.9v-27.19h-77.83v50.75h77.83v-14.63h-19.5v67h-75.45v-13.22c0-9.42 7.63-17.06 17.06-17.06h77.9v45.74H957.17v-78.6h46.18l17.4 32.22h-15.46v33.5h-7.67a25.84 25.84 0 0 1-25.83-25.84v-29.56h69.9a6.76 6.76 0 1 0-6.77-6.77v101.47h111.45a13.2 13.2 0 1 1 0 26.4h-118.49a23.15 23.15 0 0 1-23.14-22.58l-.1-3.82h-47.67v131.4l200.64.46V59.74l-174.32-.71V11.25h81.5v64.13h15.56V18.79h4.7c9.11 0 16.5 7.39 16.5 16.5v-.01h23.08V157.7l-15.68.07a44.23 44.23 0 0 1-44.41-44.23v-.43l93.07-.26v66.61h-92.5v-5.58c0-19.74 16.01-35.75 35.75-35.75v97.84a31.8 31.8 0 0 0 31.81 31.81h17.89v-34h12.36l-18.82-27.06H1066v90.12h26.74v-28.19h-59.24v80.21h34.8a23.86 23.86 0 0 0 23.85-23.86v-7.52H967.2v43.59h30.87c8.15 0 14.76-6.61 14.76-14.76v-.13a14.76 14.76 0 0 0-29.52 0v53.25h175.99l-.58-104.04h-37.97l.58 54.34a26.16 26.16 0 0 0-26.15 26.16v51.19h-62.47v-61.19h185v32.3"/><path d="M351 607.08h153.45v-87.8l23.54-23.55v21.8l21.8-21.8v84.28H417.71v-59.87h70.35v39.24H404.8V457.95h111.85v2.12a18.8 18.8 0 0 0 18.8 18.8h9.97v-42.86c0-11.8-9.56-21.36-21.36-21.36h-16.24v20.05l-7.57 7.83a2.91 2.91 0 0 0 2.1 4.94h97.26l10.96-133.7h22.29a7.94 7.94 0 0 0 0-15.87h-14.2v26.8h24.46l9.3 86.31h-90.68v-53.06h17.44v36.91H468.39A11.86 11.86 0 0 1 456.53 383v-.1a11.86 11.86 0 1 1 23.73 0v10.07a16.13 16.13 0 1 1-32.26 0 3.66 3.66 0 0 0-3.66-3.67h-3.95a3.66 3.66 0 0 0-3.66 3.67v.48a15.64 15.64 0 1 1-31.29 0v-1.59a33.62 33.62 0 0 1 33.63-33.62H546v20.63h-29.36v-54.92a31.1 31.1 0 0 1 31.1-31.1h30.8v45.55H404.8V220.26h36.93a40.43 40.43 0 0 1 28.1 11.37l35.91 34.73h-17.82v46.31h-33.13v-33.71h18.2v22.09h-32.42v-33.91h-12.91l48.94-43.33a32.56 32.56 0 0 0 13.26-26.22v-3.3a9.5 9.5 0 1 0-19 0v1.74a9.5 9.5 0 0 0 9.5 9.5h56.2l19.57 32.16h-13.95v17.82h-19.45a11.56 11.56 0 0 1-11.56-11.56V218.7H532a4.56 4.56 0 0 1 4.56 4.56v.96a4.56 4.56 0 1 1-9.11 0v-58.6h-88.56v-59.21c0-9.75-7.9-17.66-17.66-17.66h-.75a17.66 17.66 0 0 0 0 35.33h51.2c0 8.71 7.07 15.78 15.8 15.78h62.46V73.5h-78.25V50.96h33.5v39.3h-57.12V14.23h57.72V34.2h-66.24a19.4 19.4 0 0 0-19.4 19.4v14.1h-20V-49.7h56.56l23.67 19.16h-16.42v10.14A24.65 24.65 0 0 1 439.3 4.25h-19.83v-94.32h29.95v25.13h-48.31v-90.51h39.13c7.74 0 14.01-6.28 14.01-14.01a17.88 17.88 0 1 0-35.75 0v11.6c0 9.87 8 17.87 17.88 17.87h11.69v7.13h-21.05v6.11h20.19v3.49h-12.96v13.49h74.44v45.71h-15.97a23.5 23.5 0 0 1-23.5-23.5v-68.78h30.2a9.27 9.27 0 0 1 0 18.54h-12.97v-49.54h50.65v156.86a32 32 0 0 1-31.9 31.9V-14.1h-16.06l17.17-32.72h49.28V17.3h-19.5v-2.4a20.65 20.65 0 0 1 20.68-20.66l94.01.13a22.93 22.93 0 0 1-22.93 22.93h-57.02v-80.12c0-10.24 8.3-18.53 18.53-18.53v14.82h-40.77l21-68.05h17.3l21 63.54v-101.25l24.71.06v23.98h-71.32v-9.69a28.83 28.83 0 0 1 28.83-28.82h165.68v65.06h-70v-50.17h24.48v23.76H645.2v-23.76h24.48v35.48h-42.17v113.9h-34.6v-25.5h79.15v8.39c0 10.24-8.3 18.53-18.53 18.53v-94.66l28.42 19.77h48.18a28.42 28.42 0 0 1 28.42 28.42H732.6L701.71-27a5.43 5.43 0 0 1-9.26-3.83v-37.96H673.3v-12.35l21.14.12a19.3 19.3 0 0 1 19.2 19.3V21.4h44.9V-5.78h-77.83v50.75h77.84V30.34h-19.5v67h-75.46V84.12c0-9.42 7.64-17.06 17.06-17.06h77.9v45.74H571.74V34.2h46.19l17.4 32.22h-15.47v33.5h-7.66a25.84 25.84 0 0 1-25.84-25.84V44.5h69.9a6.76 6.76 0 1 0-6.77-6.76v101.47h111.45a13.2 13.2 0 1 1 0 26.4H642.45a23.15 23.15 0 0 1-23.14-22.58l-.1-3.82h-47.67v131.4l200.65.46v-31.34l-174.33-.71v-47.78h81.51v64.13h15.55v-56.59h4.71c9.1 0 16.5 7.38 16.5 16.5v-.01h23.08V337.7l-15.68.06a44.23 44.23 0 0 1-44.42-44.22v-.43l93.08-.26v66.61h-92.5v-5.58c0-19.74 16-35.75 35.75-35.75v97.84a31.8 31.8 0 0 0 31.8 31.81h17.9v-34h12.35l-18.82-27.06h-78.1v90.12h26.73v-28.19h-59.23v80.21h34.79A23.86 23.86 0 0 0 706.72 505v-7.52H581.75v43.59h30.87c8.15 0 14.76-6.61 14.76-14.76v-.13a14.76 14.76 0 0 0-29.52 0v53.25h176l-.59-104.04h-37.96l.58 54.34a26.16 26.16 0 0 0-26.16 26.16v51.19h-62.47v-61.19h185v32.3"/><path d="M-34.56 787.08h153.44v-87.8l23.54-23.54v21.8l21.8-21.8v84.28H32.16v-59.87h70.35v39.23H19.23V637.96H131.1v2.12a18.8 18.8 0 0 0 18.8 18.8h9.97v-42.87c0-11.8-9.56-21.36-21.36-21.36h-16.24v20.06l-7.57 7.83a2.91 2.91 0 0 0 2.09 4.93h97.26L225 493.77h22.3a7.94 7.94 0 0 0 0-15.86h-14.2v26.8h24.45l9.3 86.3h-90.67v-53.06h17.43v36.91H82.83A11.86 11.86 0 0 1 70.97 563v-.1a11.86 11.86 0 1 1 23.72 0v10.07a16.13 16.13 0 1 1-32.26 0 3.66 3.66 0 0 0-3.65-3.66h-3.95a3.66 3.66 0 0 0-3.66 3.66v.48a15.64 15.64 0 1 1-31.29 0v-1.58a33.62 33.62 0 0 1 33.62-33.63h106.94v20.64H131.1v-54.93a31.1 31.1 0 0 1 31.1-31.1h30.8v45.55H19.23V400.26h36.93a40.43 40.43 0 0 1 28.11 11.37l35.91 34.74h-17.83v46.3H69.22v-33.7h18.22v22.08H55v-33.9H42.1l48.94-43.34a32.56 32.56 0 0 0 13.25-26.21v-3.3a9.5 9.5 0 1 0-18.99 0v1.74a9.5 9.5 0 0 0 9.5 9.49H151l19.57 32.16h-13.95v17.83h-19.45a11.56 11.56 0 0 1-11.56-11.56V398.7h20.83a4.56 4.56 0 0 1 4.56 4.56v.96a4.56 4.56 0 1 1-9.12 0v-58.59H53.33v-59.21c0-9.76-7.9-17.66-17.66-17.66h-.76a17.66 17.66 0 0 0 0 35.32h51.21c0 8.72 7.07 15.78 15.79 15.78h62.46v-66.35H86.12v-22.55h33.5v39.3H62.5v-76.02h57.73v19.97H53.99a19.4 19.4 0 0 0-19.4 19.4v14.1H14.58v-117.4h56.57l23.67 19.16H78.39v10.13a24.65 24.65 0 0 1-24.65 24.66H33.9V89.94h29.96v25.12H15.54v-90.5h39.14c7.74 0 14-6.28 14-14.02a17.88 17.88 0 1 0-35.74 0v11.6C32.94 32 40.94 40 50.8 40h11.7v7.13H41.45v6.12h20.18v3.48H48.68v13.5h74.44v45.7h-15.96a23.5 23.5 0 0 1-23.5-23.5V23.68h30.2a9.27 9.27 0 0 1 0 18.53h-12.98V-7.34h50.66v156.86a32 32 0 0 1-31.9 31.91v-15.54h-16.07l17.17-32.72h49.28v64.14h-19.5v-2.41a20.65 20.65 0 0 1 20.69-20.65l94 .12a22.93 22.93 0 0 1-22.92 22.94h-57.03v-80.13c0-10.23 8.3-18.53 18.54-18.53v14.83h-40.78l21-68.06h17.3l21 63.55V7.7l24.72.07v23.98H175.7v-9.69a28.83 28.83 0 0 1 28.83-28.83h165.69v65.07h-70V8.14h24.47v23.75h-65.06V8.14h24.48v35.48h-42.17v113.9h-34.6v-25.51h79.15v8.4c0 10.23-8.3 18.53-18.53 18.53V64.28l28.41 19.76h48.19a28.42 28.42 0 0 1 28.41 28.42h-25.94l-30.9 40.56a5.43 5.43 0 0 1-9.25-3.84v-37.95h-19.15V98.87l21.14.13a19.3 19.3 0 0 1 19.2 19.3v83.11h44.9v-27.18h-77.83v50.75h77.83v-14.63h-19.5v67h-75.45v-13.22c0-9.43 7.63-17.06 17.06-17.06h77.9v45.74H186.17v-78.6h46.18l17.4 32.21H234.3v33.5h-7.67a25.84 25.84 0 0 1-25.83-25.84v-29.56h69.9a6.76 6.76 0 1 0-6.77-6.77v101.47h111.45a13.2 13.2 0 1 1 0 26.41H256.89a23.15 23.15 0 0 1-23.14-22.58l-.1-3.83h-47.67v131.41l200.64.46v-31.35l-174.32-.7v-47.78h81.5v64.12h15.56V378.8h4.7c9.11 0 16.5 7.38 16.5 16.49h23.08V517.7l-15.68.07a44.23 44.23 0 0 1-44.41-44.23v-.43l93.07-.26v66.61h-92.5v-5.58c0-19.74 16.01-35.74 35.75-35.74v97.84a31.8 31.8 0 0 0 31.81 31.8h17.89v-34h12.36l-18.82-27.05H295v90.11h26.74v-28.18H262.5v80.2h34.8a23.86 23.86 0 0 0 23.85-23.85v-7.53H196.2v43.6h30.87c8.15 0 14.76-6.62 14.76-14.77v-.12a14.76 14.76 0 0 0-29.52 0v53.24h175.99l-.58-104.04h-37.97l.58 54.35a26.16 26.16 0 0 0-26.15 26.15v51.2H261.7v-61.2h185v32.3"/></g></g></svg>